<svg width="259" height="126" viewBox="0 0 259 126" fill="none" xmlns="http://www.w3.org/2000/svg">
<path d="M89.4463 90.1758C88.708 90.1758 88.0459 90.0586 87.46 89.8242C86.874 89.584 86.376 89.2529 85.9658 88.8311C85.5615 88.4092 85.251 87.9199 85.0342 87.3633C84.8174 86.8008 84.709 86.2031 84.709 85.5703V85.2188C84.709 84.498 84.8115 83.8389 85.0166 83.2412C85.2217 82.6436 85.5146 82.125 85.8955 81.6855C86.2822 81.2461 86.751 80.9092 87.3018 80.6748C87.8525 80.4346 88.4736 80.3145 89.165 80.3145C89.8389 80.3145 90.4365 80.4258 90.958 80.6484C91.4795 80.8711 91.916 81.1875 92.2676 81.5977C92.625 82.0078 92.8945 82.5 93.0762 83.0742C93.2578 83.6426 93.3486 84.2754 93.3486 84.9727V86.0273H85.79V84.3398H90.8613V84.1465C90.8613 83.7949 90.7969 83.4814 90.668 83.2061C90.5449 82.9248 90.3574 82.7021 90.1055 82.5381C89.8535 82.374 89.5312 82.292 89.1387 82.292C88.8047 82.292 88.5176 82.3652 88.2773 82.5117C88.0371 82.6582 87.8408 82.8633 87.6885 83.127C87.542 83.3906 87.4307 83.7012 87.3545 84.0586C87.2842 84.4102 87.249 84.7969 87.249 85.2188V85.5703C87.249 85.9512 87.3018 86.3027 87.4072 86.625C87.5186 86.9473 87.6738 87.2256 87.873 87.46C88.0781 87.6943 88.3242 87.876 88.6113 88.0049C88.9043 88.1338 89.2354 88.1982 89.6045 88.1982C90.0615 88.1982 90.4863 88.1104 90.8789 87.9346C91.2773 87.7529 91.6201 87.4805 91.9072 87.1172L93.1377 88.4531C92.9385 88.7402 92.666 89.0156 92.3203 89.2793C91.9805 89.543 91.5703 89.7598 91.0898 89.9297C90.6094 90.0938 90.0615 90.1758 89.4463 90.1758ZM97.2686 82.5205V90H94.7373V80.4902H97.1104L97.2686 82.5205ZM96.8994 84.9111H96.2139C96.2139 84.208 96.3047 83.5752 96.4863 83.0127C96.668 82.4443 96.9229 81.9609 97.251 81.5625C97.5791 81.1582 97.9688 80.8506 98.4199 80.6396C98.877 80.4229 99.3867 80.3145 99.9492 80.3145C100.395 80.3145 100.802 80.3789 101.171 80.5078C101.54 80.6367 101.856 80.8418 102.12 81.123C102.39 81.4043 102.595 81.7764 102.735 82.2393C102.882 82.7021 102.955 83.2676 102.955 83.9355V90H100.406V83.9268C100.406 83.5049 100.348 83.1768 100.23 82.9424C100.113 82.708 99.9404 82.5439 99.7119 82.4502C99.4893 82.3506 99.2139 82.3008 98.8857 82.3008C98.5459 82.3008 98.25 82.3682 97.998 82.5029C97.752 82.6377 97.5469 82.8252 97.3828 83.0654C97.2246 83.2998 97.1045 83.5752 97.0225 83.8916C96.9404 84.208 96.8994 84.5479 96.8994 84.9111ZM109.538 80.4902V82.2832H104.001V80.4902H109.538ZM105.372 78.1436H107.903V87.1348C107.903 87.4102 107.938 87.6211 108.009 87.7676C108.085 87.9141 108.196 88.0166 108.343 88.0752C108.489 88.1279 108.674 88.1543 108.896 88.1543C109.055 88.1543 109.195 88.1484 109.318 88.1367C109.447 88.1191 109.556 88.1016 109.644 88.084L109.652 89.9473C109.436 90.0176 109.201 90.0732 108.949 90.1143C108.697 90.1553 108.419 90.1758 108.114 90.1758C107.558 90.1758 107.071 90.085 106.655 89.9033C106.245 89.7158 105.929 89.417 105.706 89.0068C105.483 88.5967 105.372 88.0576 105.372 87.3896V78.1436ZM113.511 82.5645V90H110.979V80.4902H113.361L113.511 82.5645ZM116.376 80.4287L116.332 82.7754C116.209 82.7578 116.06 82.7432 115.884 82.7314C115.714 82.7139 115.559 82.7051 115.418 82.7051C115.061 82.7051 114.75 82.752 114.486 82.8457C114.229 82.9336 114.012 83.0654 113.836 83.2412C113.666 83.417 113.537 83.6309 113.449 83.8828C113.367 84.1348 113.32 84.4219 113.309 84.7441L112.799 84.5859C112.799 83.9707 112.86 83.4053 112.983 82.8896C113.106 82.3682 113.285 81.9141 113.52 81.5273C113.76 81.1406 114.053 80.8418 114.398 80.6309C114.744 80.4199 115.14 80.3145 115.585 80.3145C115.726 80.3145 115.869 80.3262 116.016 80.3496C116.162 80.3672 116.282 80.3936 116.376 80.4287ZM121.772 90.1758C121.034 90.1758 120.372 90.0586 119.786 89.8242C119.2 89.584 118.702 89.2529 118.292 88.8311C117.888 88.4092 117.577 87.9199 117.36 87.3633C117.144 86.8008 117.035 86.2031 117.035 85.5703V85.2188C117.035 84.498 117.138 83.8389 117.343 83.2412C117.548 82.6436 117.841 82.125 118.222 81.6855C118.608 81.2461 119.077 80.9092 119.628 80.6748C120.179 80.4346 120.8 80.3145 121.491 80.3145C122.165 80.3145 122.763 80.4258 123.284 80.6484C123.806 80.8711 124.242 81.1875 124.594 81.5977C124.951 82.0078 125.221 82.5 125.402 83.0742C125.584 83.6426 125.675 84.2754 125.675 84.9727V86.0273H118.116V84.3398H123.188V84.1465C123.188 83.7949 123.123 83.4814 122.994 83.2061C122.871 82.9248 122.684 82.7021 122.432 82.5381C122.18 82.374 121.857 82.292 121.465 82.292C121.131 82.292 120.844 82.3652 120.604 82.5117C120.363 82.6582 120.167 82.8633 120.015 83.127C119.868 83.3906 119.757 83.7012 119.681 84.0586C119.61 84.4102 119.575 84.7969 119.575 85.2188V85.5703C119.575 85.9512 119.628 86.3027 119.733 86.625C119.845 86.9473 120 87.2256 120.199 87.46C120.404 87.6943 120.65 87.876 120.938 88.0049C121.23 88.1338 121.562 88.1982 121.931 88.1982C122.388 88.1982 122.812 88.1104 123.205 87.9346C123.604 87.7529 123.946 87.4805 124.233 87.1172L125.464 88.4531C125.265 88.7402 124.992 89.0156 124.646 89.2793C124.307 89.543 123.896 89.7598 123.416 89.9297C122.936 90.0938 122.388 90.1758 121.772 90.1758ZM133.137 80.4902H135.431V89.6836C135.431 90.5508 135.237 91.2861 134.851 91.8896C134.47 92.499 133.937 92.959 133.251 93.2695C132.565 93.5859 131.769 93.7441 130.86 93.7441C130.462 93.7441 130.04 93.6914 129.595 93.5859C129.155 93.4805 128.733 93.3164 128.329 93.0938C127.931 92.8711 127.597 92.5898 127.327 92.25L128.443 90.7559C128.736 91.0957 129.076 91.3594 129.463 91.5469C129.85 91.7402 130.277 91.8369 130.746 91.8369C131.203 91.8369 131.59 91.752 131.906 91.582C132.223 91.418 132.466 91.1748 132.636 90.8525C132.806 90.5361 132.891 90.1523 132.891 89.7012V82.6875L133.137 80.4902ZM126.738 85.3594V85.1748C126.738 84.4482 126.826 83.7891 127.002 83.1973C127.184 82.5996 127.438 82.0869 127.767 81.6592C128.101 81.2314 128.505 80.9004 128.979 80.666C129.454 80.4316 129.99 80.3145 130.588 80.3145C131.221 80.3145 131.751 80.4316 132.179 80.666C132.606 80.9004 132.958 81.2344 133.233 81.668C133.509 82.0957 133.723 82.6025 133.875 83.1885C134.033 83.7686 134.156 84.4043 134.244 85.0957V85.5C134.156 86.1621 134.024 86.7773 133.849 87.3457C133.673 87.9141 133.441 88.4121 133.154 88.8398C132.867 89.2617 132.51 89.5898 132.082 89.8242C131.66 90.0586 131.156 90.1758 130.57 90.1758C129.984 90.1758 129.454 90.0557 128.979 89.8154C128.511 89.5752 128.109 89.2383 127.775 88.8047C127.441 88.3711 127.184 87.8613 127.002 87.2754C126.826 86.6895 126.738 86.0508 126.738 85.3594ZM129.27 85.1748V85.3594C129.27 85.752 129.308 86.1182 129.384 86.458C129.46 86.7979 129.577 87.0996 129.735 87.3633C129.899 87.6211 130.102 87.8232 130.342 87.9697C130.588 88.1104 130.878 88.1807 131.212 88.1807C131.675 88.1807 132.053 88.084 132.346 87.8906C132.639 87.6914 132.858 87.4189 133.005 87.0732C133.151 86.7275 133.236 86.3291 133.26 85.8779V84.7266C133.248 84.3574 133.198 84.0264 133.11 83.7334C133.022 83.4346 132.899 83.1797 132.741 82.9688C132.583 82.7578 132.378 82.5938 132.126 82.4766C131.874 82.3594 131.575 82.3008 131.229 82.3008C130.896 82.3008 130.605 82.377 130.359 82.5293C130.119 82.6758 129.917 82.8779 129.753 83.1357C129.595 83.3936 129.475 83.6982 129.393 84.0498C129.311 84.3955 129.27 84.7705 129.27 85.1748ZM142.532 87.8555V83.6191C142.532 83.3145 142.482 83.0537 142.383 82.8369C142.283 82.6143 142.128 82.4414 141.917 82.3184C141.712 82.1953 141.445 82.1338 141.117 82.1338C140.836 82.1338 140.593 82.1836 140.388 82.2832C140.183 82.377 140.024 82.5146 139.913 82.6963C139.802 82.8721 139.746 83.0801 139.746 83.3203H137.215C137.215 82.916 137.309 82.5322 137.496 82.1689C137.684 81.8057 137.956 81.4863 138.313 81.2109C138.671 80.9297 139.096 80.71 139.588 80.5518C140.086 80.3936 140.643 80.3145 141.258 80.3145C141.996 80.3145 142.652 80.4375 143.227 80.6836C143.801 80.9297 144.252 81.2988 144.58 81.791C144.914 82.2832 145.081 82.8984 145.081 83.6367V87.7061C145.081 88.2275 145.113 88.6553 145.178 88.9893C145.242 89.3174 145.336 89.6045 145.459 89.8506V90H142.901C142.778 89.7422 142.685 89.4199 142.62 89.0332C142.562 88.6406 142.532 88.248 142.532 87.8555ZM142.866 84.208L142.884 85.6406H141.469C141.135 85.6406 140.845 85.6787 140.599 85.7549C140.353 85.8311 140.15 85.9395 139.992 86.0801C139.834 86.2148 139.717 86.373 139.641 86.5547C139.57 86.7363 139.535 86.9355 139.535 87.1523C139.535 87.3691 139.585 87.5654 139.685 87.7412C139.784 87.9111 139.928 88.0459 140.115 88.1455C140.303 88.2393 140.522 88.2861 140.774 88.2861C141.155 88.2861 141.486 88.21 141.768 88.0576C142.049 87.9053 142.266 87.7178 142.418 87.4951C142.576 87.2725 142.658 87.0615 142.664 86.8623L143.332 87.9346C143.238 88.1748 143.109 88.4238 142.945 88.6816C142.787 88.9395 142.585 89.1826 142.339 89.4111C142.093 89.6338 141.797 89.8184 141.451 89.9648C141.105 90.1055 140.695 90.1758 140.221 90.1758C139.617 90.1758 139.069 90.0557 138.577 89.8154C138.091 89.5693 137.704 89.2324 137.417 88.8047C137.136 88.3711 136.995 87.8789 136.995 87.3281C136.995 86.8301 137.089 86.3877 137.276 86.001C137.464 85.6143 137.739 85.2891 138.103 85.0254C138.472 84.7559 138.932 84.5537 139.482 84.4189C140.033 84.2783 140.672 84.208 141.398 84.208H142.866ZM147.129 88.7783C147.129 88.4033 147.258 88.0898 147.516 87.8379C147.779 87.5859 148.128 87.46 148.562 87.46C148.995 87.46 149.341 87.5859 149.599 87.8379C149.862 88.0898 149.994 88.4033 149.994 88.7783C149.994 89.1533 149.862 89.4668 149.599 89.7188C149.341 89.9707 148.995 90.0967 148.562 90.0967C148.128 90.0967 147.779 89.9707 147.516 89.7188C147.258 89.4668 147.129 89.1533 147.129 88.7783ZM147.129 81.5273C147.129 81.1523 147.258 80.8389 147.516 80.5869C147.779 80.335 148.128 80.209 148.562 80.209C148.995 80.209 149.341 80.335 149.599 80.5869C149.862 80.8389 149.994 81.1523 149.994 81.5273C149.994 81.9023 149.862 82.2158 149.599 82.4678C149.341 82.7197 148.995 82.8457 148.562 82.8457C148.128 82.8457 147.779 82.7197 147.516 82.4678C147.258 82.2158 147.129 81.9023 147.129 81.5273Z" fill="#403D3D"/>
<path d="M166.896 83.3115V88.3828C166.696 88.623 166.389 88.8838 165.973 89.165C165.557 89.4404 165.021 89.6777 164.364 89.877C163.708 90.0762 162.914 90.1758 161.982 90.1758C161.156 90.1758 160.403 90.041 159.724 89.7715C159.044 89.4961 158.458 89.0947 157.966 88.5674C157.479 88.04 157.104 87.3955 156.841 86.6338C156.577 85.8662 156.445 84.9902 156.445 84.0059V83.2061C156.445 82.2217 156.571 81.3457 156.823 80.5781C157.081 79.8105 157.447 79.1631 157.922 78.6357C158.396 78.1084 158.962 77.707 159.618 77.4316C160.274 77.1562 161.004 77.0186 161.807 77.0186C162.92 77.0186 163.834 77.2002 164.549 77.5635C165.264 77.9209 165.809 78.4189 166.184 79.0576C166.564 79.6904 166.799 80.417 166.887 81.2373H164.329C164.265 80.8037 164.142 80.4258 163.96 80.1035C163.778 79.7812 163.518 79.5293 163.178 79.3477C162.844 79.166 162.41 79.0752 161.877 79.0752C161.438 79.0752 161.045 79.166 160.699 79.3477C160.359 79.5234 160.072 79.7842 159.838 80.1299C159.604 80.4756 159.425 80.9033 159.302 81.4131C159.179 81.9229 159.117 82.5146 159.117 83.1885V84.0059C159.117 84.6738 159.182 85.2656 159.311 85.7812C159.439 86.291 159.63 86.7217 159.882 87.0732C160.14 87.4189 160.456 87.6797 160.831 87.8555C161.206 88.0312 161.643 88.1191 162.141 88.1191C162.557 88.1191 162.902 88.084 163.178 88.0137C163.459 87.9434 163.685 87.8584 163.854 87.7588C164.03 87.6533 164.165 87.5537 164.259 87.46V85.1924H161.851V83.3115H166.896ZM171.396 82.5645V90H168.864V80.4902H171.246L171.396 82.5645ZM174.261 80.4287L174.217 82.7754C174.094 82.7578 173.944 82.7432 173.769 82.7314C173.599 82.7139 173.443 82.7051 173.303 82.7051C172.945 82.7051 172.635 82.752 172.371 82.8457C172.113 82.9336 171.896 83.0654 171.721 83.2412C171.551 83.417 171.422 83.6309 171.334 83.8828C171.252 84.1348 171.205 84.4219 171.193 84.7441L170.684 84.5859C170.684 83.9707 170.745 83.4053 170.868 82.8896C170.991 82.3682 171.17 81.9141 171.404 81.5273C171.645 81.1406 171.938 80.8418 172.283 80.6309C172.629 80.4199 173.024 80.3145 173.47 80.3145C173.61 80.3145 173.754 80.3262 173.9 80.3496C174.047 80.3672 174.167 80.3936 174.261 80.4287ZM180.29 87.8555V83.6191C180.29 83.3145 180.24 83.0537 180.141 82.8369C180.041 82.6143 179.886 82.4414 179.675 82.3184C179.47 82.1953 179.203 82.1338 178.875 82.1338C178.594 82.1338 178.351 82.1836 178.146 82.2832C177.94 82.377 177.782 82.5146 177.671 82.6963C177.56 82.8721 177.504 83.0801 177.504 83.3203H174.973C174.973 82.916 175.066 82.5322 175.254 82.1689C175.441 81.8057 175.714 81.4863 176.071 81.2109C176.429 80.9297 176.854 80.71 177.346 80.5518C177.844 80.3936 178.4 80.3145 179.016 80.3145C179.754 80.3145 180.41 80.4375 180.984 80.6836C181.559 80.9297 182.01 81.2988 182.338 81.791C182.672 82.2832 182.839 82.8984 182.839 83.6367V87.7061C182.839 88.2275 182.871 88.6553 182.936 88.9893C183 89.3174 183.094 89.6045 183.217 89.8506V90H180.659C180.536 89.7422 180.442 89.4199 180.378 89.0332C180.319 88.6406 180.29 88.248 180.29 87.8555ZM180.624 84.208L180.642 85.6406H179.227C178.893 85.6406 178.603 85.6787 178.356 85.7549C178.11 85.8311 177.908 85.9395 177.75 86.0801C177.592 86.2148 177.475 86.373 177.398 86.5547C177.328 86.7363 177.293 86.9355 177.293 87.1523C177.293 87.3691 177.343 87.5654 177.442 87.7412C177.542 87.9111 177.686 88.0459 177.873 88.1455C178.061 88.2393 178.28 88.2861 178.532 88.2861C178.913 88.2861 179.244 88.21 179.525 88.0576C179.807 87.9053 180.023 87.7178 180.176 87.4951C180.334 87.2725 180.416 87.0615 180.422 86.8623L181.09 87.9346C180.996 88.1748 180.867 88.4238 180.703 88.6816C180.545 88.9395 180.343 89.1826 180.097 89.4111C179.851 89.6338 179.555 89.8184 179.209 89.9648C178.863 90.1055 178.453 90.1758 177.979 90.1758C177.375 90.1758 176.827 90.0557 176.335 89.8154C175.849 89.5693 175.462 89.2324 175.175 88.8047C174.894 88.3711 174.753 87.8789 174.753 87.3281C174.753 86.8301 174.847 86.3877 175.034 86.001C175.222 85.6143 175.497 85.2891 175.86 85.0254C176.229 84.7559 176.689 84.5537 177.24 84.4189C177.791 84.2783 178.43 84.208 179.156 84.208H180.624ZM177.803 79.207L179.525 76.5H182.276L179.859 79.207H177.803ZM189.448 80.4902V82.2832H183.911V80.4902H189.448ZM185.282 78.1436H187.813V87.1348C187.813 87.4102 187.849 87.6211 187.919 87.7676C187.995 87.9141 188.106 88.0166 188.253 88.0752C188.399 88.1279 188.584 88.1543 188.807 88.1543C188.965 88.1543 189.105 88.1484 189.229 88.1367C189.357 88.1191 189.466 88.1016 189.554 88.084L189.562 89.9473C189.346 90.0176 189.111 90.0732 188.859 90.1143C188.607 90.1553 188.329 90.1758 188.024 90.1758C187.468 90.1758 186.981 90.085 186.565 89.9033C186.155 89.7158 185.839 89.417 185.616 89.0068C185.394 88.5967 185.282 88.0576 185.282 87.3896V78.1436ZM193.562 80.4902V90H191.021V80.4902H193.562ZM190.863 78.0117C190.863 77.6426 190.992 77.3379 191.25 77.0977C191.508 76.8574 191.854 76.7373 192.287 76.7373C192.715 76.7373 193.058 76.8574 193.315 77.0977C193.579 77.3379 193.711 77.6426 193.711 78.0117C193.711 78.3809 193.579 78.6855 193.315 78.9258C193.058 79.166 192.715 79.2861 192.287 79.2861C191.854 79.2861 191.508 79.166 191.25 78.9258C190.992 78.6855 190.863 78.3809 190.863 78.0117ZM200.795 87.3721C200.795 87.1904 200.742 87.0264 200.637 86.8799C200.531 86.7334 200.335 86.5986 200.048 86.4756C199.767 86.3467 199.359 86.2295 198.826 86.124C198.346 86.0186 197.897 85.8867 197.481 85.7285C197.071 85.5645 196.714 85.3682 196.409 85.1396C196.11 84.9111 195.876 84.6416 195.706 84.3311C195.536 84.0146 195.451 83.6543 195.451 83.25C195.451 82.8516 195.536 82.4766 195.706 82.125C195.882 81.7734 196.131 81.4629 196.453 81.1934C196.781 80.918 197.18 80.7041 197.648 80.5518C198.123 80.3936 198.656 80.3145 199.248 80.3145C200.074 80.3145 200.783 80.4463 201.375 80.71C201.973 80.9736 202.43 81.3369 202.746 81.7998C203.068 82.2568 203.229 82.7783 203.229 83.3643H200.698C200.698 83.1182 200.646 82.8984 200.54 82.7051C200.44 82.5059 200.282 82.3506 200.065 82.2393C199.854 82.1221 199.579 82.0635 199.239 82.0635C198.958 82.0635 198.715 82.1133 198.51 82.2129C198.305 82.3066 198.146 82.4355 198.035 82.5996C197.93 82.7578 197.877 82.9336 197.877 83.127C197.877 83.2734 197.906 83.4053 197.965 83.5225C198.029 83.6338 198.132 83.7363 198.272 83.8301C198.413 83.9238 198.595 84.0117 198.817 84.0938C199.046 84.1699 199.327 84.2402 199.661 84.3047C200.347 84.4453 200.959 84.6299 201.498 84.8584C202.037 85.0811 202.465 85.3857 202.781 85.7725C203.098 86.1533 203.256 86.6543 203.256 87.2754C203.256 87.6973 203.162 88.084 202.975 88.4355C202.787 88.7871 202.518 89.0947 202.166 89.3584C201.814 89.6162 201.393 89.8184 200.9 89.9648C200.414 90.1055 199.866 90.1758 199.257 90.1758C198.372 90.1758 197.622 90.0176 197.007 89.7012C196.397 89.3848 195.935 88.9834 195.618 88.4971C195.308 88.0049 195.152 87.501 195.152 86.9854H197.552C197.563 87.3311 197.651 87.6094 197.815 87.8203C197.985 88.0312 198.199 88.1836 198.457 88.2773C198.721 88.3711 199.005 88.418 199.31 88.418C199.638 88.418 199.91 88.374 200.127 88.2861C200.344 88.1924 200.508 88.0693 200.619 87.917C200.736 87.7588 200.795 87.5771 200.795 87.3721Z" fill="#D1A05C"/>
<path d="M46.3359 114.872V117.078H37.5645V114.872H46.3359ZM43.1543 111.4V120.717H40.7549V111.4H43.1543ZM58.4121 109.177V122H55.8809V112.095L52.8398 113.062V111.066L58.1396 109.177H58.4121ZM69.1084 109.071H69.4775V111.093H69.3281C68.6602 111.093 68.0654 111.192 67.5439 111.392C67.0225 111.591 66.5801 111.875 66.2168 112.244C65.8594 112.607 65.584 113.047 65.3906 113.562C65.2031 114.078 65.1094 114.655 65.1094 115.294V117.421C65.1094 117.878 65.1533 118.282 65.2412 118.634C65.335 118.979 65.4668 119.27 65.6367 119.504C65.8125 119.732 66.0176 119.905 66.252 120.022C66.4863 120.134 66.75 120.189 67.043 120.189C67.3184 120.189 67.5674 120.131 67.79 120.014C68.0186 119.896 68.2119 119.732 68.3701 119.521C68.5342 119.305 68.6572 119.053 68.7393 118.766C68.8271 118.473 68.8711 118.153 68.8711 117.808C68.8711 117.462 68.8271 117.143 68.7393 116.85C68.6572 116.557 68.5342 116.305 68.3701 116.094C68.2061 115.877 68.0068 115.71 67.7725 115.593C67.5381 115.476 67.2744 115.417 66.9814 115.417C66.583 115.417 66.2314 115.511 65.9268 115.698C65.6279 115.88 65.3936 116.114 65.2236 116.401C65.0537 116.688 64.9629 116.99 64.9512 117.307L64.1865 116.814C64.2041 116.363 64.2979 115.936 64.4678 115.531C64.6436 115.127 64.8838 114.77 65.1885 114.459C65.499 114.143 65.8711 113.896 66.3047 113.721C66.7383 113.539 67.2275 113.448 67.7725 113.448C68.3701 113.448 68.8945 113.562 69.3457 113.791C69.8027 114.02 70.1836 114.333 70.4883 114.731C70.793 115.13 71.0215 115.59 71.1738 116.111C71.3262 116.633 71.4023 117.189 71.4023 117.781C71.4023 118.402 71.2998 118.979 71.0947 119.513C70.8955 120.046 70.6055 120.512 70.2246 120.91C69.8496 121.309 69.3984 121.619 68.8711 121.842C68.3438 122.064 67.752 122.176 67.0957 122.176C66.416 122.176 65.7979 122.053 65.2412 121.807C64.6904 121.555 64.2158 121.203 63.8174 120.752C63.4189 120.301 63.1113 119.765 62.8945 119.144C62.6836 118.522 62.5781 117.843 62.5781 117.104V116.12C62.5781 115.089 62.7275 114.146 63.0264 113.29C63.3311 112.429 63.7676 111.685 64.3359 111.058C64.9043 110.425 65.5898 109.936 66.3926 109.59C67.1953 109.244 68.1006 109.071 69.1084 109.071Z" fill="#D1A05C"/>
<path d="M77.502 108.5H80.0332V119.82L79.7783 122H77.502V108.5ZM86.0537 117.148V117.333C86.0537 118.042 85.9775 118.692 85.8252 119.284C85.6787 119.876 85.4502 120.389 85.1396 120.822C84.8291 121.25 84.4424 121.584 83.9795 121.824C83.5225 122.059 82.9834 122.176 82.3623 122.176C81.7822 122.176 81.2783 122.059 80.8506 121.824C80.4287 121.59 80.0742 121.259 79.7871 120.831C79.5 120.403 79.2686 119.902 79.0928 119.328C78.917 118.754 78.7852 118.127 78.6973 117.447V117.043C78.7852 116.363 78.917 115.736 79.0928 115.162C79.2686 114.588 79.5 114.087 79.7871 113.659C80.0742 113.231 80.4287 112.9 80.8506 112.666C81.2725 112.432 81.7705 112.314 82.3447 112.314C82.9717 112.314 83.5166 112.435 83.9795 112.675C84.4482 112.909 84.835 113.243 85.1396 113.677C85.4502 114.104 85.6787 114.614 85.8252 115.206C85.9775 115.792 86.0537 116.439 86.0537 117.148ZM83.5225 117.333V117.148C83.5225 116.762 83.4932 116.398 83.4346 116.059C83.3818 115.713 83.2881 115.411 83.1533 115.153C83.0186 114.89 82.834 114.682 82.5996 114.529C82.3711 114.377 82.0752 114.301 81.7119 114.301C81.3662 114.301 81.0732 114.359 80.833 114.477C80.5928 114.594 80.3936 114.758 80.2354 114.969C80.083 115.18 79.9688 115.432 79.8926 115.725C79.8164 116.012 79.7695 116.328 79.752 116.674V117.825C79.7695 118.288 79.8457 118.698 79.9805 119.056C80.1211 119.407 80.332 119.686 80.6133 119.891C80.9004 120.09 81.2725 120.189 81.7295 120.189C82.0869 120.189 82.3828 120.119 82.6172 119.979C82.8516 119.838 83.0332 119.639 83.1621 119.381C83.2969 119.123 83.3906 118.821 83.4434 118.476C83.4961 118.124 83.5225 117.743 83.5225 117.333ZM92.0039 122.176C91.2656 122.176 90.6035 122.059 90.0176 121.824C89.4316 121.584 88.9336 121.253 88.5234 120.831C88.1191 120.409 87.8086 119.92 87.5918 119.363C87.375 118.801 87.2666 118.203 87.2666 117.57V117.219C87.2666 116.498 87.3691 115.839 87.5742 115.241C87.7793 114.644 88.0723 114.125 88.4531 113.686C88.8398 113.246 89.3086 112.909 89.8594 112.675C90.4102 112.435 91.0312 112.314 91.7227 112.314C92.3965 112.314 92.9941 112.426 93.5156 112.648C94.0371 112.871 94.4736 113.188 94.8252 113.598C95.1826 114.008 95.4521 114.5 95.6338 115.074C95.8154 115.643 95.9062 116.275 95.9062 116.973V118.027H88.3477V116.34H93.4189V116.146C93.4189 115.795 93.3545 115.481 93.2256 115.206C93.1025 114.925 92.915 114.702 92.6631 114.538C92.4111 114.374 92.0889 114.292 91.6963 114.292C91.3623 114.292 91.0752 114.365 90.835 114.512C90.5947 114.658 90.3984 114.863 90.2461 115.127C90.0996 115.391 89.9883 115.701 89.9121 116.059C89.8418 116.41 89.8066 116.797 89.8066 117.219V117.57C89.8066 117.951 89.8594 118.303 89.9648 118.625C90.0762 118.947 90.2314 119.226 90.4307 119.46C90.6357 119.694 90.8818 119.876 91.1689 120.005C91.4619 120.134 91.793 120.198 92.1621 120.198C92.6191 120.198 93.0439 120.11 93.4365 119.935C93.835 119.753 94.1777 119.48 94.4648 119.117L95.6953 120.453C95.4961 120.74 95.2236 121.016 94.8779 121.279C94.5381 121.543 94.1279 121.76 93.6475 121.93C93.167 122.094 92.6191 122.176 92.0039 122.176ZM99.8262 114.521V122H97.2949V112.49H99.668L99.8262 114.521ZM99.457 116.911H98.7715C98.7715 116.208 98.8623 115.575 99.0439 115.013C99.2256 114.444 99.4805 113.961 99.8086 113.562C100.137 113.158 100.526 112.851 100.978 112.64C101.435 112.423 101.944 112.314 102.507 112.314C102.952 112.314 103.359 112.379 103.729 112.508C104.098 112.637 104.414 112.842 104.678 113.123C104.947 113.404 105.152 113.776 105.293 114.239C105.439 114.702 105.513 115.268 105.513 115.936V122H102.964V115.927C102.964 115.505 102.905 115.177 102.788 114.942C102.671 114.708 102.498 114.544 102.27 114.45C102.047 114.351 101.771 114.301 101.443 114.301C101.104 114.301 100.808 114.368 100.556 114.503C100.31 114.638 100.104 114.825 99.9404 115.065C99.7822 115.3 99.6621 115.575 99.5801 115.892C99.498 116.208 99.457 116.548 99.457 116.911ZM111.814 122.176C111.076 122.176 110.414 122.059 109.828 121.824C109.242 121.584 108.744 121.253 108.334 120.831C107.93 120.409 107.619 119.92 107.402 119.363C107.186 118.801 107.077 118.203 107.077 117.57V117.219C107.077 116.498 107.18 115.839 107.385 115.241C107.59 114.644 107.883 114.125 108.264 113.686C108.65 113.246 109.119 112.909 109.67 112.675C110.221 112.435 110.842 112.314 111.533 112.314C112.207 112.314 112.805 112.426 113.326 112.648C113.848 112.871 114.284 113.188 114.636 113.598C114.993 114.008 115.263 114.5 115.444 115.074C115.626 115.643 115.717 116.275 115.717 116.973V118.027H108.158V116.34H113.229V116.146C113.229 115.795 113.165 115.481 113.036 115.206C112.913 114.925 112.726 114.702 112.474 114.538C112.222 114.374 111.899 114.292 111.507 114.292C111.173 114.292 110.886 114.365 110.646 114.512C110.405 114.658 110.209 114.863 110.057 115.127C109.91 115.391 109.799 115.701 109.723 116.059C109.652 116.41 109.617 116.797 109.617 117.219V117.57C109.617 117.951 109.67 118.303 109.775 118.625C109.887 118.947 110.042 119.226 110.241 119.46C110.446 119.694 110.692 119.876 110.979 120.005C111.272 120.134 111.604 120.198 111.973 120.198C112.43 120.198 112.854 120.11 113.247 119.935C113.646 119.753 113.988 119.48 114.275 119.117L115.506 120.453C115.307 120.74 115.034 121.016 114.688 121.279C114.349 121.543 113.938 121.76 113.458 121.93C112.978 122.094 112.43 122.176 111.814 122.176ZM120.384 122H117.835V111.646C117.835 110.926 117.976 110.319 118.257 109.827C118.544 109.329 118.945 108.954 119.461 108.702C119.982 108.444 120.601 108.315 121.315 108.315C121.55 108.315 121.775 108.333 121.992 108.368C122.209 108.397 122.42 108.436 122.625 108.482L122.599 110.39C122.487 110.36 122.37 110.34 122.247 110.328C122.124 110.316 121.98 110.311 121.816 110.311C121.512 110.311 121.251 110.363 121.034 110.469C120.823 110.568 120.662 110.718 120.551 110.917C120.439 111.116 120.384 111.359 120.384 111.646V122ZM122.282 112.49V114.283H116.42V112.49H122.282ZM126.343 112.49V122H123.803V112.49H126.343ZM123.882 111.339L125.604 108.632H128.355L125.938 111.339H123.882ZM132.46 120.198C132.771 120.198 133.046 120.14 133.286 120.022C133.526 119.899 133.714 119.729 133.849 119.513C133.989 119.29 134.062 119.029 134.068 118.73H136.45C136.444 119.398 136.266 119.993 135.914 120.515C135.562 121.03 135.091 121.438 134.499 121.736C133.907 122.029 133.245 122.176 132.513 122.176C131.774 122.176 131.13 122.053 130.579 121.807C130.034 121.561 129.58 121.221 129.217 120.787C128.854 120.348 128.581 119.838 128.399 119.258C128.218 118.672 128.127 118.045 128.127 117.377V117.122C128.127 116.448 128.218 115.821 128.399 115.241C128.581 114.655 128.854 114.146 129.217 113.712C129.58 113.272 130.034 112.93 130.579 112.684C131.124 112.438 131.763 112.314 132.495 112.314C133.274 112.314 133.957 112.464 134.543 112.763C135.135 113.062 135.598 113.489 135.932 114.046C136.271 114.597 136.444 115.25 136.45 116.006H134.068C134.062 115.689 133.995 115.402 133.866 115.145C133.743 114.887 133.562 114.682 133.321 114.529C133.087 114.371 132.797 114.292 132.451 114.292C132.082 114.292 131.78 114.371 131.546 114.529C131.312 114.682 131.13 114.893 131.001 115.162C130.872 115.426 130.781 115.728 130.729 116.067C130.682 116.401 130.658 116.753 130.658 117.122V117.377C130.658 117.746 130.682 118.101 130.729 118.44C130.775 118.78 130.863 119.082 130.992 119.346C131.127 119.609 131.312 119.817 131.546 119.97C131.78 120.122 132.085 120.198 132.46 120.198ZM140.59 112.49V122H138.05V112.49H140.59ZM137.892 110.012C137.892 109.643 138.021 109.338 138.278 109.098C138.536 108.857 138.882 108.737 139.315 108.737C139.743 108.737 140.086 108.857 140.344 109.098C140.607 109.338 140.739 109.643 140.739 110.012C140.739 110.381 140.607 110.686 140.344 110.926C140.086 111.166 139.743 111.286 139.315 111.286C138.882 111.286 138.536 111.166 138.278 110.926C138.021 110.686 137.892 110.381 137.892 110.012ZM142.277 117.342V117.157C142.277 116.46 142.377 115.818 142.576 115.232C142.775 114.641 143.065 114.128 143.446 113.694C143.827 113.261 144.296 112.924 144.853 112.684C145.409 112.438 146.048 112.314 146.769 112.314C147.489 112.314 148.131 112.438 148.693 112.684C149.256 112.924 149.728 113.261 150.108 113.694C150.495 114.128 150.788 114.641 150.987 115.232C151.187 115.818 151.286 116.46 151.286 117.157V117.342C151.286 118.033 151.187 118.675 150.987 119.267C150.788 119.853 150.495 120.365 150.108 120.805C149.728 121.238 149.259 121.575 148.702 121.815C148.146 122.056 147.507 122.176 146.786 122.176C146.065 122.176 145.424 122.056 144.861 121.815C144.305 121.575 143.833 121.238 143.446 120.805C143.065 120.365 142.775 119.853 142.576 119.267C142.377 118.675 142.277 118.033 142.277 117.342ZM144.809 117.157V117.342C144.809 117.74 144.844 118.112 144.914 118.458C144.984 118.804 145.096 119.108 145.248 119.372C145.406 119.63 145.611 119.832 145.863 119.979C146.115 120.125 146.423 120.198 146.786 120.198C147.138 120.198 147.439 120.125 147.691 119.979C147.943 119.832 148.146 119.63 148.298 119.372C148.45 119.108 148.562 118.804 148.632 118.458C148.708 118.112 148.746 117.74 148.746 117.342V117.157C148.746 116.771 148.708 116.407 148.632 116.067C148.562 115.722 148.447 115.417 148.289 115.153C148.137 114.884 147.935 114.673 147.683 114.521C147.431 114.368 147.126 114.292 146.769 114.292C146.411 114.292 146.106 114.368 145.854 114.521C145.608 114.673 145.406 114.884 145.248 115.153C145.096 115.417 144.984 115.722 144.914 116.067C144.844 116.407 144.809 116.771 144.809 117.157ZM157.983 119.372C157.983 119.19 157.931 119.026 157.825 118.88C157.72 118.733 157.523 118.599 157.236 118.476C156.955 118.347 156.548 118.229 156.015 118.124C155.534 118.019 155.086 117.887 154.67 117.729C154.26 117.564 153.902 117.368 153.598 117.14C153.299 116.911 153.064 116.642 152.895 116.331C152.725 116.015 152.64 115.654 152.64 115.25C152.64 114.852 152.725 114.477 152.895 114.125C153.07 113.773 153.319 113.463 153.642 113.193C153.97 112.918 154.368 112.704 154.837 112.552C155.312 112.394 155.845 112.314 156.437 112.314C157.263 112.314 157.972 112.446 158.563 112.71C159.161 112.974 159.618 113.337 159.935 113.8C160.257 114.257 160.418 114.778 160.418 115.364H157.887C157.887 115.118 157.834 114.898 157.729 114.705C157.629 114.506 157.471 114.351 157.254 114.239C157.043 114.122 156.768 114.063 156.428 114.063C156.146 114.063 155.903 114.113 155.698 114.213C155.493 114.307 155.335 114.436 155.224 114.6C155.118 114.758 155.065 114.934 155.065 115.127C155.065 115.273 155.095 115.405 155.153 115.522C155.218 115.634 155.32 115.736 155.461 115.83C155.602 115.924 155.783 116.012 156.006 116.094C156.234 116.17 156.516 116.24 156.85 116.305C157.535 116.445 158.147 116.63 158.687 116.858C159.226 117.081 159.653 117.386 159.97 117.772C160.286 118.153 160.444 118.654 160.444 119.275C160.444 119.697 160.351 120.084 160.163 120.436C159.976 120.787 159.706 121.095 159.354 121.358C159.003 121.616 158.581 121.818 158.089 121.965C157.603 122.105 157.055 122.176 156.445 122.176C155.561 122.176 154.811 122.018 154.195 121.701C153.586 121.385 153.123 120.983 152.807 120.497C152.496 120.005 152.341 119.501 152.341 118.985H154.74C154.752 119.331 154.84 119.609 155.004 119.82C155.174 120.031 155.388 120.184 155.646 120.277C155.909 120.371 156.193 120.418 156.498 120.418C156.826 120.418 157.099 120.374 157.315 120.286C157.532 120.192 157.696 120.069 157.808 119.917C157.925 119.759 157.983 119.577 157.983 119.372ZM170.947 122.176C170.209 122.176 169.547 122.059 168.961 121.824C168.375 121.584 167.877 121.253 167.467 120.831C167.062 120.409 166.752 119.92 166.535 119.363C166.318 118.801 166.21 118.203 166.21 117.57V117.219C166.21 116.498 166.312 115.839 166.518 115.241C166.723 114.644 167.016 114.125 167.396 113.686C167.783 113.246 168.252 112.909 168.803 112.675C169.354 112.435 169.975 112.314 170.666 112.314C171.34 112.314 171.938 112.426 172.459 112.648C172.98 112.871 173.417 113.188 173.769 113.598C174.126 114.008 174.396 114.5 174.577 115.074C174.759 115.643 174.85 116.275 174.85 116.973V118.027H167.291V116.34H172.362V116.146C172.362 115.795 172.298 115.481 172.169 115.206C172.046 114.925 171.858 114.702 171.606 114.538C171.354 114.374 171.032 114.292 170.64 114.292C170.306 114.292 170.019 114.365 169.778 114.512C169.538 114.658 169.342 114.863 169.189 115.127C169.043 115.391 168.932 115.701 168.855 116.059C168.785 116.41 168.75 116.797 168.75 117.219V117.57C168.75 117.951 168.803 118.303 168.908 118.625C169.02 118.947 169.175 119.226 169.374 119.46C169.579 119.694 169.825 119.876 170.112 120.005C170.405 120.134 170.736 120.198 171.105 120.198C171.562 120.198 171.987 120.11 172.38 119.935C172.778 119.753 173.121 119.48 173.408 119.117L174.639 120.453C174.439 120.74 174.167 121.016 173.821 121.279C173.481 121.543 173.071 121.76 172.591 121.93C172.11 122.094 171.562 122.176 170.947 122.176ZM178.33 112.49L179.903 115.382L181.521 112.49H184.219L181.529 117.14L184.342 122H181.635L179.921 118.941L178.207 122H175.5L178.312 117.14L175.623 112.49H178.33ZM189.202 120.198C189.513 120.198 189.788 120.14 190.028 120.022C190.269 119.899 190.456 119.729 190.591 119.513C190.731 119.29 190.805 119.029 190.811 118.73H193.192C193.187 119.398 193.008 119.993 192.656 120.515C192.305 121.03 191.833 121.438 191.241 121.736C190.649 122.029 189.987 122.176 189.255 122.176C188.517 122.176 187.872 122.053 187.321 121.807C186.776 121.561 186.322 121.221 185.959 120.787C185.596 120.348 185.323 119.838 185.142 119.258C184.96 118.672 184.869 118.045 184.869 117.377V117.122C184.869 116.448 184.96 115.821 185.142 115.241C185.323 114.655 185.596 114.146 185.959 113.712C186.322 113.272 186.776 112.93 187.321 112.684C187.866 112.438 188.505 112.314 189.237 112.314C190.017 112.314 190.699 112.464 191.285 112.763C191.877 113.062 192.34 113.489 192.674 114.046C193.014 114.597 193.187 115.25 193.192 116.006H190.811C190.805 115.689 190.737 115.402 190.608 115.145C190.485 114.887 190.304 114.682 190.063 114.529C189.829 114.371 189.539 114.292 189.193 114.292C188.824 114.292 188.522 114.371 188.288 114.529C188.054 114.682 187.872 114.893 187.743 115.162C187.614 115.426 187.523 115.728 187.471 116.067C187.424 116.401 187.4 116.753 187.4 117.122V117.377C187.4 117.746 187.424 118.101 187.471 118.44C187.518 118.78 187.605 119.082 187.734 119.346C187.869 119.609 188.054 119.817 188.288 119.97C188.522 120.122 188.827 120.198 189.202 120.198ZM197.332 108.5V122H194.792V108.5H197.332ZM205.049 119.724V112.49H207.58V122H205.198L205.049 119.724ZM205.33 117.772L206.077 117.755C206.077 118.388 206.004 118.977 205.857 119.521C205.711 120.061 205.491 120.529 205.198 120.928C204.905 121.32 204.536 121.628 204.091 121.851C203.646 122.067 203.121 122.176 202.518 122.176C202.055 122.176 201.627 122.111 201.234 121.982C200.848 121.848 200.514 121.64 200.232 121.358C199.957 121.071 199.74 120.705 199.582 120.26C199.43 119.809 199.354 119.267 199.354 118.634V112.49H201.885V118.651C201.885 118.933 201.917 119.17 201.981 119.363C202.052 119.557 202.148 119.715 202.271 119.838C202.395 119.961 202.538 120.049 202.702 120.102C202.872 120.154 203.06 120.181 203.265 120.181C203.786 120.181 204.196 120.075 204.495 119.864C204.8 119.653 205.014 119.366 205.137 119.003C205.266 118.634 205.33 118.224 205.33 117.772ZM214.655 119.372C214.655 119.19 214.603 119.026 214.497 118.88C214.392 118.733 214.195 118.599 213.908 118.476C213.627 118.347 213.22 118.229 212.687 118.124C212.206 118.019 211.758 117.887 211.342 117.729C210.932 117.564 210.574 117.368 210.27 117.14C209.971 116.911 209.736 116.642 209.566 116.331C209.396 116.015 209.312 115.654 209.312 115.25C209.312 114.852 209.396 114.477 209.566 114.125C209.742 113.773 209.991 113.463 210.313 113.193C210.642 112.918 211.04 112.704 211.509 112.552C211.983 112.394 212.517 112.314 213.108 112.314C213.935 112.314 214.644 112.446 215.235 112.71C215.833 112.974 216.29 113.337 216.606 113.8C216.929 114.257 217.09 114.778 217.09 115.364H214.559C214.559 115.118 214.506 114.898 214.4 114.705C214.301 114.506 214.143 114.351 213.926 114.239C213.715 114.122 213.439 114.063 213.1 114.063C212.818 114.063 212.575 114.113 212.37 114.213C212.165 114.307 212.007 114.436 211.896 114.6C211.79 114.758 211.737 114.934 211.737 115.127C211.737 115.273 211.767 115.405 211.825 115.522C211.89 115.634 211.992 115.736 212.133 115.83C212.273 115.924 212.455 116.012 212.678 116.094C212.906 116.17 213.188 116.24 213.521 116.305C214.207 116.445 214.819 116.63 215.358 116.858C215.897 117.081 216.325 117.386 216.642 117.772C216.958 118.153 217.116 118.654 217.116 119.275C217.116 119.697 217.022 120.084 216.835 120.436C216.647 120.787 216.378 121.095 216.026 121.358C215.675 121.616 215.253 121.818 214.761 121.965C214.274 122.105 213.727 122.176 213.117 122.176C212.232 122.176 211.482 122.018 210.867 121.701C210.258 121.385 209.795 120.983 209.479 120.497C209.168 120.005 209.013 119.501 209.013 118.985H211.412C211.424 119.331 211.512 119.609 211.676 119.82C211.846 120.031 212.06 120.184 212.317 120.277C212.581 120.371 212.865 120.418 213.17 120.418C213.498 120.418 213.771 120.374 213.987 120.286C214.204 120.192 214.368 120.069 214.479 119.917C214.597 119.759 214.655 119.577 214.655 119.372ZM221.432 112.49V122H218.892V112.49H221.432ZM218.733 110.012C218.733 109.643 218.862 109.338 219.12 109.098C219.378 108.857 219.724 108.737 220.157 108.737C220.585 108.737 220.928 108.857 221.186 109.098C221.449 109.338 221.581 109.643 221.581 110.012C221.581 110.381 221.449 110.686 221.186 110.926C220.928 111.166 220.585 111.286 220.157 111.286C219.724 111.286 219.378 111.166 219.12 110.926C218.862 110.686 218.733 110.381 218.733 110.012ZM226.758 120.154L228.867 112.49H231.513L228.305 122H226.705L226.758 120.154ZM225.308 112.49L227.426 120.163L227.47 122H225.861L222.653 112.49H225.308ZM232.102 117.342V117.157C232.102 116.46 232.201 115.818 232.4 115.232C232.6 114.641 232.89 114.128 233.271 113.694C233.651 113.261 234.12 112.924 234.677 112.684C235.233 112.438 235.872 112.314 236.593 112.314C237.313 112.314 237.955 112.438 238.518 112.684C239.08 112.924 239.552 113.261 239.933 113.694C240.319 114.128 240.612 114.641 240.812 115.232C241.011 115.818 241.11 116.46 241.11 117.157V117.342C241.11 118.033 241.011 118.675 240.812 119.267C240.612 119.853 240.319 120.365 239.933 120.805C239.552 121.238 239.083 121.575 238.526 121.815C237.97 122.056 237.331 122.176 236.61 122.176C235.89 122.176 235.248 122.056 234.686 121.815C234.129 121.575 233.657 121.238 233.271 120.805C232.89 120.365 232.6 119.853 232.4 119.267C232.201 118.675 232.102 118.033 232.102 117.342ZM234.633 117.157V117.342C234.633 117.74 234.668 118.112 234.738 118.458C234.809 118.804 234.92 119.108 235.072 119.372C235.23 119.63 235.436 119.832 235.688 119.979C235.939 120.125 236.247 120.198 236.61 120.198C236.962 120.198 237.264 120.125 237.516 119.979C237.768 119.832 237.97 119.63 238.122 119.372C238.274 119.108 238.386 118.804 238.456 118.458C238.532 118.112 238.57 117.74 238.57 117.342V117.157C238.57 116.771 238.532 116.407 238.456 116.067C238.386 115.722 238.271 115.417 238.113 115.153C237.961 114.884 237.759 114.673 237.507 114.521C237.255 114.368 236.95 114.292 236.593 114.292C236.235 114.292 235.931 114.368 235.679 114.521C235.433 114.673 235.23 114.884 235.072 115.153C234.92 115.417 234.809 115.722 234.738 116.067C234.668 116.407 234.633 116.771 234.633 117.157ZM247.808 119.372C247.808 119.19 247.755 119.026 247.649 118.88C247.544 118.733 247.348 118.599 247.061 118.476C246.779 118.347 246.372 118.229 245.839 118.124C245.358 118.019 244.91 117.887 244.494 117.729C244.084 117.564 243.727 117.368 243.422 117.14C243.123 116.911 242.889 116.642 242.719 116.331C242.549 116.015 242.464 115.654 242.464 115.25C242.464 114.852 242.549 114.477 242.719 114.125C242.895 113.773 243.144 113.463 243.466 113.193C243.794 112.918 244.192 112.704 244.661 112.552C245.136 112.394 245.669 112.314 246.261 112.314C247.087 112.314 247.796 112.446 248.388 112.71C248.985 112.974 249.442 113.337 249.759 113.8C250.081 114.257 250.242 114.778 250.242 115.364H247.711C247.711 115.118 247.658 114.898 247.553 114.705C247.453 114.506 247.295 114.351 247.078 114.239C246.867 114.122 246.592 114.063 246.252 114.063C245.971 114.063 245.728 114.113 245.522 114.213C245.317 114.307 245.159 114.436 245.048 114.6C244.942 114.758 244.89 114.934 244.89 115.127C244.89 115.273 244.919 115.405 244.978 115.522C245.042 115.634 245.145 115.736 245.285 115.83C245.426 115.924 245.607 116.012 245.83 116.094C246.059 116.17 246.34 116.24 246.674 116.305C247.359 116.445 247.972 116.63 248.511 116.858C249.05 117.081 249.478 117.386 249.794 117.772C250.11 118.153 250.269 118.654 250.269 119.275C250.269 119.697 250.175 120.084 249.987 120.436C249.8 120.787 249.53 121.095 249.179 121.358C248.827 121.616 248.405 121.818 247.913 121.965C247.427 122.105 246.879 122.176 246.27 122.176C245.385 122.176 244.635 122.018 244.02 121.701C243.41 121.385 242.947 120.983 242.631 120.497C242.32 120.005 242.165 119.501 242.165 118.985H244.564C244.576 119.331 244.664 119.609 244.828 119.82C244.998 120.031 245.212 120.184 245.47 120.277C245.733 120.371 246.018 120.418 246.322 120.418C246.65 120.418 246.923 120.374 247.14 120.286C247.356 120.192 247.521 120.069 247.632 119.917C247.749 119.759 247.808 119.577 247.808 119.372Z" fill="#403D3D"/>
<g clip-path="url(#clip0_301_81)">
<path d="M97.1127 4.80979C93.8409 3.0016 90.1059 2.56194 86.5975 3.57017C85.2282 3.96354 81.0801 6.12875 78.7078 7.3849L72.7539 4.58831C72.4374 4.43956 72.0709 4.48253 71.801 4.70071C71.5278 4.91888 71.4079 5.26597 71.4911 5.60315L72.7939 11.0542C72.9471 11.7021 72.7306 12.3764 72.2275 12.8161L68.196 16.3366C67.9328 16.5647 67.8295 16.9151 67.9228 17.249C68.0161 17.5829 68.2893 17.8308 68.6358 17.8903L74.2432 18.8721C74.8196 18.9712 75.3127 19.3448 75.5626 19.8704L77.8882 24.733C78.0315 25.0338 78.3313 25.2321 78.6678 25.2421C79.001 25.252 79.3176 25.0834 79.4841 24.7925L82.3861 19.7778C82.6527 19.315 83.1091 18.9977 83.6389 18.9051L89.6428 17.8308C89.956 17.7184 90.1726 17.4605 90.2259 17.1333C90.2792 16.8093 90.1592 16.4953 89.8994 16.2903L83.6356 11.3286C83.2891 11.0542 82.8393 10.9319 82.3995 10.998C81.9597 11.0641 81.5665 11.312 81.3166 11.679C80.8668 12.3434 80.9901 13.2392 81.6032 13.7615L83.0392 14.978C83.1691 15.0871 83.2191 15.2524 83.1758 15.4176C83.1291 15.5829 83.0025 15.6986 82.8359 15.7284L81.4699 15.9697C80.9901 16.0556 80.5736 16.3465 80.3304 16.7664L79.3109 18.525C79.2309 18.6638 79.081 18.7431 78.9211 18.7398C78.7578 18.7332 78.6179 18.6407 78.5479 18.4952L77.7683 16.8688C77.5384 16.3928 77.0886 16.0523 76.5655 15.9598L74.9229 15.6722C74.7596 15.6424 74.633 15.5333 74.5831 15.3747C74.5364 15.216 74.5797 15.054 74.6997 14.9416L75.9957 13.7252C76.4255 13.3219 76.6055 12.7136 76.4622 12.1417L76.059 10.5352C76.0157 10.3699 76.0724 10.2079 76.2056 10.0988C76.3389 9.99306 76.5088 9.96992 76.6654 10.0426L78.0548 10.6972C78.5279 10.9186 79.0877 10.9054 79.5474 10.6542C82.0863 9.28235 86.4943 6.99483 87.5038 6.70724C90.1626 5.94363 93.0013 6.28412 95.5001 7.66258C97.7691 8.91542 99.5816 10.9616 100.121 12.8756C101.034 16.1151 100.518 18.4655 98.2855 21.2587C95.9066 24.2338 91.6286 27.5891 85.6846 32.2501C82.7093 34.5806 79.3409 37.2251 75.5459 40.3324C75.446 40.4117 75.3294 40.4481 75.2061 40.4316C75.0895 40.415 74.9862 40.3522 74.9129 40.2498C73.1437 37.7441 69.3121 32.2699 63.5415 23.7677C61.3991 20.6042 60.3329 17.7448 60.2963 15.0375C60.2463 11.4046 62.1454 7.99645 65.937 4.90566C66.6201 4.35031 66.7467 3.36522 66.2236 2.66442C65.9537 2.3041 65.5439 2.0694 65.0974 2.01321C64.6476 1.95701 64.2112 2.08262 63.8647 2.36691C59.2468 6.11883 56.9412 10.393 57.0011 15.0805C57.0478 18.4423 58.2972 21.8868 60.8194 25.6024C69.1456 37.8631 73.4902 43.9124 73.5335 43.9752L74 44.6264C74.1466 44.8281 74.3732 44.9636 74.6197 44.9934C74.6564 44.9967 74.6963 45 74.733 45C74.9429 45 75.1495 44.9273 75.3127 44.7917L75.9291 44.2794C80.4137 40.5572 84.3053 37.5094 87.7603 34.802C93.8575 30.022 98.2622 26.5676 100.878 23.295C102.31 21.5001 103.203 19.7613 103.6 17.9762C104.013 16.1284 103.916 14.1747 103.303 11.9996C102.527 9.24599 100.155 6.48907 97.1127 4.80979Z" fill="#7D7566"/>
<path d="M117.187 3.46436H115.714V43.5322H117.187V3.46436Z" fill="#7D7566"/>
<path d="M135.245 11.7054C133.209 11.7054 131.847 10.0592 131.847 8.11545C131.847 6.18494 133.183 4.6412 135.232 4.6412C136.814 4.6412 137.877 5.6329 137.877 5.6329L138.514 4.68087C138.514 4.68087 137.384 3.48422 135.182 3.48422C132.523 3.48422 130.527 5.49076 130.527 8.12867C130.527 10.793 132.46 12.8756 135.209 12.8756C137.504 12.8756 138.76 11.4343 138.76 11.4343L138.074 10.522C138.074 10.522 136.971 11.7054 135.245 11.7054Z" fill="#7D7566"/>
<path d="M147.706 11.6162H143.608V3.63962H142.325V12.7203H147.706V11.6162Z" fill="#7D7566"/>
<path d="M154.317 12.8756C156.456 12.8756 157.922 11.5236 157.922 9.50386V3.63962H156.639V9.48071C156.639 10.8955 155.719 11.7054 154.307 11.7054C152.907 11.7054 151.998 10.8955 151.998 9.50716V3.63962H150.715V9.50386C150.712 11.5236 152.178 12.8756 154.317 12.8756Z" fill="#7D7566"/>
<path d="M166.814 7.93697V7.91053C167.514 7.55021 167.953 6.8428 167.953 5.95358C167.953 4.48587 166.837 3.63962 165.295 3.63962H162.093V12.7203H165.371C166.981 12.7203 168.313 11.8443 168.313 10.1352C168.32 9.1204 167.773 8.21795 166.814 7.93697ZM163.379 4.74701H165.271C166.154 4.74701 166.647 5.28584 166.647 6.0858C166.647 6.88247 166.128 7.46096 165.298 7.46096H163.379V4.74701ZM165.441 11.6162H163.379V8.51546H165.428C166.387 8.51546 167.011 9.14684 167.011 10.0724C167.011 10.998 166.424 11.6162 165.441 11.6162Z" fill="#7D7566"/>
<path d="M173.414 8.69397H176.693V7.58988H173.414V4.74701H177.446V3.63962H172.128V12.7203H177.666V11.6162H173.414V8.69397Z" fill="#7D7566"/>
<path d="M136.388 25.7512C136.388 22.8058 131.953 23.3083 131.953 21.4307C131.953 20.71 132.64 20.1051 133.613 20.1051C134.779 20.1051 135.622 20.8885 135.622 20.8885L136.205 19.834C136.205 19.834 135.308 18.9217 133.613 18.9217C131.887 18.9217 130.657 20.0423 130.657 21.4571C130.657 24.2471 135.092 23.824 135.092 25.7908C135.092 26.6536 134.366 27.1296 133.509 27.1296C132.147 27.1296 131.177 26.1511 131.177 26.1511L130.451 27.1164C130.451 27.1164 131.54 28.313 133.486 28.313C135.298 28.3097 136.388 27.1527 136.388 25.7512Z" fill="#7D7566"/>
<path d="M147.123 24.9413V19.0737H145.84V24.9148C145.84 26.3296 144.921 27.1395 143.508 27.1395C142.109 27.1395 141.199 26.3296 141.199 24.9413V19.0737H139.917V24.9413C139.917 26.961 141.382 28.313 143.522 28.313C145.657 28.3097 147.123 26.961 147.123 24.9413Z" fill="#7D7566"/>
<path d="M154.64 19.0737H151.294V28.1544H152.577V24.7991H154.64C156.312 24.7991 157.518 23.6421 157.518 21.9166C157.518 20.191 156.312 19.0737 154.64 19.0737ZM154.433 23.6917H152.581V20.1811H154.446C155.536 20.1811 156.209 20.8257 156.209 21.9166C156.209 23.0108 155.536 23.6917 154.433 23.6917Z" fill="#7D7566"/>
<path d="M166.517 27.0503H162.263V24.1314H165.545V23.024H162.263V20.1811H166.298V19.0737H160.98V28.1577H166.517V27.0503Z" fill="#7D7566"/>
<path d="M171.508 24.5412H173.467L175.4 28.1543H176.852L174.907 24.6305C174.737 24.333 174.633 24.2206 174.633 24.2206V24.1942C175.633 23.8735 176.279 22.895 176.279 21.7381C176.279 20.5414 175.67 19.629 174.737 19.2819C174.387 19.153 173.984 19.077 173.024 19.077H170.222V28.1576H171.505V24.5412H171.508ZM171.508 20.1811H172.988C173.701 20.1811 174 20.2571 174.244 20.386C174.71 20.6439 174.97 21.1199 174.97 21.7876C174.97 22.8025 174.347 23.4339 173.347 23.4339H171.505V20.1811H171.508Z" fill="#7D7566"/>
<path d="M186.392 24.9809C186.392 25.4834 186.482 26.2933 186.482 26.2933H186.455C186.455 26.2933 186.028 25.4702 185.689 24.9809L181.617 19.077H180.348V28.1577H181.63V22.2637C181.63 21.748 181.54 20.9381 181.54 20.9381H181.567C181.567 20.9381 181.994 21.7612 182.333 22.2637L186.418 28.1544H187.674V19.0737H186.392V24.9809V24.9809Z" fill="#7D7566"/>
<path d="M196.064 18.9217C193.419 18.9217 191.356 20.9414 191.356 23.5529C191.356 26.2272 193.419 28.313 196.064 28.313C198.71 28.313 200.759 26.2305 200.759 23.5529C200.755 20.9414 198.706 18.9217 196.064 18.9217ZM196.064 27.1395C194.198 27.1395 192.679 25.5958 192.679 23.5496C192.679 21.5695 194.195 20.0753 196.064 20.0753C197.93 20.0753 199.436 21.5662 199.436 23.5496C199.433 25.5958 197.93 27.1395 196.064 27.1395Z" fill="#7D7566"/>
<path d="M205.24 21.4307C205.24 20.71 205.926 20.1051 206.899 20.1051C208.065 20.1051 208.908 20.8885 208.908 20.8885L209.491 19.834C209.491 19.834 208.595 18.9217 206.899 18.9217C205.173 18.9217 203.944 20.0423 203.944 21.4571C203.944 24.2471 208.379 23.824 208.379 25.7908C208.379 26.6536 207.652 27.1296 206.796 27.1296C205.433 27.1296 204.464 26.1511 204.464 26.1511L203.737 27.1164C203.737 27.1164 204.827 28.313 206.769 28.313C208.585 28.313 209.675 27.1561 209.675 25.7545C209.675 22.8058 205.24 23.3083 205.24 21.4307Z" fill="#7D7566"/>
<path d="M214.135 21.4307C214.135 20.71 214.822 20.1051 215.795 20.1051C216.961 20.1051 217.804 20.8885 217.804 20.8885L218.387 19.834C218.387 19.834 217.494 18.9217 215.795 18.9217C214.069 18.9217 212.839 20.0423 212.839 21.4571C212.839 24.2471 217.274 23.824 217.274 25.7908C217.274 26.6536 216.548 27.1296 215.691 27.1296C214.329 27.1296 213.359 26.1511 213.359 26.1511L212.633 27.1164C212.633 27.1164 213.722 28.313 215.668 28.313C217.484 28.313 218.573 27.1561 218.573 25.7545C218.57 22.8058 214.135 23.3083 214.135 21.4307Z" fill="#7D7566"/>
<path d="M226.306 18.9217C223.661 18.9217 221.599 20.9414 221.599 23.5529C221.599 26.2272 223.661 28.313 226.306 28.313C228.952 28.313 231.001 26.2305 231.001 23.5529C231.001 20.9414 228.952 18.9217 226.306 18.9217ZM226.306 27.1395C224.441 27.1395 222.921 25.5958 222.921 23.5496C222.921 21.5695 224.437 20.0753 226.306 20.0753C228.172 20.0753 229.678 21.5662 229.678 23.5496C229.678 25.5958 228.176 27.1395 226.306 27.1395Z" fill="#7D7566"/>
<path d="M134.845 34.3954H130.994V43.5918H133.263V40.7489H134.845C136.648 40.7489 137.867 39.4101 137.867 37.559C137.864 35.7078 136.648 34.3954 134.845 34.3954ZM134.379 38.8184H133.263V36.3226H134.415C135.168 36.3226 135.555 36.8251 135.555 37.559C135.558 38.2928 135.168 38.8184 134.379 38.8184Z" fill="#7D7566"/>
<path d="M146.383 39.8233V39.7969C147.303 39.3341 147.769 38.2664 147.769 37.2879C147.769 35.9491 147.106 35.0103 146.057 34.6136C145.654 34.4583 145.201 34.3954 144.254 34.3954H141.026V43.5918H143.295V40.4911H144.358L146.004 43.5918H148.532L146.73 40.3754C146.513 39.9886 146.383 39.8233 146.383 39.8233ZM144.281 38.5639H143.295V36.3259H144.061C145.201 36.3259 145.461 36.7359 145.461 37.4333C145.464 38.1639 145.007 38.5639 144.281 38.5639Z" fill="#7D7566"/>
<path d="M153.954 34.3954H151.685V43.5918H153.954V34.3954Z" fill="#7D7566"/>
<path d="M164.545 34.3954L163.196 38.2796C162.989 38.8713 162.729 39.7969 162.729 39.7969H162.703C162.703 39.7969 162.443 38.8713 162.236 38.2796L160.89 34.3954H158.428L157.662 43.5918H159.944L160.23 39.4498C160.284 38.7556 160.23 37.9061 160.23 37.9061H160.257C160.257 37.9061 160.567 38.8713 160.777 39.4498L161.75 42.1142H163.696L164.668 39.4498C164.875 38.8713 165.188 37.9061 165.188 37.9061H165.215C165.215 37.9061 165.162 38.7556 165.215 39.4498L165.501 43.5918H167.77L167.011 34.3954H164.545Z" fill="#7D7566"/>
<path d="M173.737 39.9258H176.563V37.9953H173.737V36.3226H177.276V34.3954H171.468V43.5918H177.459V41.6613H173.737V39.9258Z" fill="#7D7566"/>
</g>
<defs>
<clipPath id="clip0_301_81">
<rect width="174" height="43" fill="white" transform="translate(57 2)"/>
</clipPath>
</defs>
</svg>
