<svg width="214" height="126" viewBox="0 0 214 126" fill="none" xmlns="http://www.w3.org/2000/svg">
<path d="M52.4463 90.1758C51.708 90.1758 51.0459 90.0586 50.46 89.8242C49.874 89.584 49.376 89.2529 48.9658 88.8311C48.5615 88.4092 48.251 87.9199 48.0342 87.3633C47.8174 86.8008 47.709 86.2031 47.709 85.5703V85.2188C47.709 84.498 47.8115 83.8389 48.0166 83.2412C48.2217 82.6436 48.5146 82.125 48.8955 81.6855C49.2822 81.2461 49.751 80.9092 50.3018 80.6748C50.8525 80.4346 51.4736 80.3145 52.165 80.3145C52.8389 80.3145 53.4365 80.4258 53.958 80.6484C54.4795 80.8711 54.916 81.1875 55.2676 81.5977C55.625 82.0078 55.8945 82.5 56.0762 83.0742C56.2578 83.6426 56.3486 84.2754 56.3486 84.9727V86.0273H48.79V84.3398H53.8613V84.1465C53.8613 83.7949 53.7969 83.4814 53.668 83.2061C53.5449 82.9248 53.3574 82.7021 53.1055 82.5381C52.8535 82.374 52.5312 82.292 52.1387 82.292C51.8047 82.292 51.5176 82.3652 51.2773 82.5117C51.0371 82.6582 50.8408 82.8633 50.6885 83.127C50.542 83.3906 50.4307 83.7012 50.3545 84.0586C50.2842 84.4102 50.249 84.7969 50.249 85.2188V85.5703C50.249 85.9512 50.3018 86.3027 50.4072 86.625C50.5186 86.9473 50.6738 87.2256 50.873 87.46C51.0781 87.6943 51.3242 87.876 51.6113 88.0049C51.9043 88.1338 52.2354 88.1982 52.6045 88.1982C53.0615 88.1982 53.4863 88.1104 53.8789 87.9346C54.2773 87.7529 54.6201 87.4805 54.9072 87.1172L56.1377 88.4531C55.9385 88.7402 55.666 89.0156 55.3203 89.2793C54.9805 89.543 54.5703 89.7598 54.0898 89.9297C53.6094 90.0938 53.0615 90.1758 52.4463 90.1758ZM60.2686 82.5205V90H57.7373V80.4902H60.1104L60.2686 82.5205ZM59.8994 84.9111H59.2139C59.2139 84.208 59.3047 83.5752 59.4863 83.0127C59.668 82.4443 59.9229 81.9609 60.251 81.5625C60.5791 81.1582 60.9688 80.8506 61.4199 80.6396C61.877 80.4229 62.3867 80.3145 62.9492 80.3145C63.3945 80.3145 63.8018 80.3789 64.1709 80.5078C64.54 80.6367 64.8564 80.8418 65.1201 81.123C65.3896 81.4043 65.5947 81.7764 65.7354 82.2393C65.8818 82.7021 65.9551 83.2676 65.9551 83.9355V90H63.4062V83.9268C63.4062 83.5049 63.3477 83.1768 63.2305 82.9424C63.1133 82.708 62.9404 82.5439 62.7119 82.4502C62.4893 82.3506 62.2139 82.3008 61.8857 82.3008C61.5459 82.3008 61.25 82.3682 60.998 82.5029C60.752 82.6377 60.5469 82.8252 60.3828 83.0654C60.2246 83.2998 60.1045 83.5752 60.0225 83.8916C59.9404 84.208 59.8994 84.5479 59.8994 84.9111ZM72.5381 80.4902V82.2832H67.001V80.4902H72.5381ZM68.3721 78.1436H70.9033V87.1348C70.9033 87.4102 70.9385 87.6211 71.0088 87.7676C71.085 87.9141 71.1963 88.0166 71.3428 88.0752C71.4893 88.1279 71.6738 88.1543 71.8965 88.1543C72.0547 88.1543 72.1953 88.1484 72.3184 88.1367C72.4473 88.1191 72.5557 88.1016 72.6436 88.084L72.6523 89.9473C72.4355 90.0176 72.2012 90.0732 71.9492 90.1143C71.6973 90.1553 71.4189 90.1758 71.1143 90.1758C70.5576 90.1758 70.0713 90.085 69.6553 89.9033C69.2451 89.7158 68.9287 89.417 68.7061 89.0068C68.4834 88.5967 68.3721 88.0576 68.3721 87.3896V78.1436ZM76.5107 82.5645V90H73.9795V80.4902H76.3613L76.5107 82.5645ZM79.376 80.4287L79.332 82.7754C79.209 82.7578 79.0596 82.7432 78.8838 82.7314C78.7139 82.7139 78.5586 82.7051 78.418 82.7051C78.0605 82.7051 77.75 82.752 77.4863 82.8457C77.2285 82.9336 77.0117 83.0654 76.8359 83.2412C76.666 83.417 76.5371 83.6309 76.4492 83.8828C76.3672 84.1348 76.3203 84.4219 76.3086 84.7441L75.7988 84.5859C75.7988 83.9707 75.8604 83.4053 75.9834 82.8896C76.1064 82.3682 76.2852 81.9141 76.5195 81.5273C76.7598 81.1406 77.0527 80.8418 77.3984 80.6309C77.7441 80.4199 78.1396 80.3145 78.585 80.3145C78.7256 80.3145 78.8691 80.3262 79.0156 80.3496C79.1621 80.3672 79.2822 80.3936 79.376 80.4287ZM84.7725 90.1758C84.0342 90.1758 83.3721 90.0586 82.7861 89.8242C82.2002 89.584 81.7021 89.2529 81.292 88.8311C80.8877 88.4092 80.5771 87.9199 80.3604 87.3633C80.1436 86.8008 80.0352 86.2031 80.0352 85.5703V85.2188C80.0352 84.498 80.1377 83.8389 80.3428 83.2412C80.5479 82.6436 80.8408 82.125 81.2217 81.6855C81.6084 81.2461 82.0771 80.9092 82.6279 80.6748C83.1787 80.4346 83.7998 80.3145 84.4912 80.3145C85.165 80.3145 85.7627 80.4258 86.2842 80.6484C86.8057 80.8711 87.2422 81.1875 87.5938 81.5977C87.9512 82.0078 88.2207 82.5 88.4023 83.0742C88.584 83.6426 88.6748 84.2754 88.6748 84.9727V86.0273H81.1162V84.3398H86.1875V84.1465C86.1875 83.7949 86.123 83.4814 85.9941 83.2061C85.8711 82.9248 85.6836 82.7021 85.4316 82.5381C85.1797 82.374 84.8574 82.292 84.4648 82.292C84.1309 82.292 83.8438 82.3652 83.6035 82.5117C83.3633 82.6582 83.167 82.8633 83.0146 83.127C82.8682 83.3906 82.7568 83.7012 82.6807 84.0586C82.6104 84.4102 82.5752 84.7969 82.5752 85.2188V85.5703C82.5752 85.9512 82.6279 86.3027 82.7334 86.625C82.8447 86.9473 83 87.2256 83.1992 87.46C83.4043 87.6943 83.6504 87.876 83.9375 88.0049C84.2305 88.1338 84.5615 88.1982 84.9307 88.1982C85.3877 88.1982 85.8125 88.1104 86.2051 87.9346C86.6035 87.7529 86.9463 87.4805 87.2334 87.1172L88.4639 88.4531C88.2646 88.7402 87.9922 89.0156 87.6465 89.2793C87.3066 89.543 86.8965 89.7598 86.416 89.9297C85.9355 90.0938 85.3877 90.1758 84.7725 90.1758ZM96.1367 80.4902H98.4307V89.6836C98.4307 90.5508 98.2373 91.2861 97.8506 91.8896C97.4697 92.499 96.9365 92.959 96.251 93.2695C95.5654 93.5859 94.7686 93.7441 93.8604 93.7441C93.4619 93.7441 93.04 93.6914 92.5947 93.5859C92.1553 93.4805 91.7334 93.3164 91.3291 93.0938C90.9307 92.8711 90.5967 92.5898 90.3271 92.25L91.4434 90.7559C91.7363 91.0957 92.0762 91.3594 92.4629 91.5469C92.8496 91.7402 93.2773 91.8369 93.7461 91.8369C94.2031 91.8369 94.5898 91.752 94.9062 91.582C95.2227 91.418 95.4658 91.1748 95.6357 90.8525C95.8057 90.5361 95.8906 90.1523 95.8906 89.7012V82.6875L96.1367 80.4902ZM89.7383 85.3594V85.1748C89.7383 84.4482 89.8262 83.7891 90.002 83.1973C90.1836 82.5996 90.4385 82.0869 90.7666 81.6592C91.1006 81.2314 91.5049 80.9004 91.9795 80.666C92.4541 80.4316 92.9902 80.3145 93.5879 80.3145C94.2207 80.3145 94.751 80.4316 95.1787 80.666C95.6064 80.9004 95.958 81.2344 96.2334 81.668C96.5088 82.0957 96.7227 82.6025 96.875 83.1885C97.0332 83.7686 97.1562 84.4043 97.2441 85.0957V85.5C97.1562 86.1621 97.0244 86.7773 96.8486 87.3457C96.6729 87.9141 96.4414 88.4121 96.1543 88.8398C95.8672 89.2617 95.5098 89.5898 95.082 89.8242C94.6602 90.0586 94.1562 90.1758 93.5703 90.1758C92.9844 90.1758 92.4541 90.0557 91.9795 89.8154C91.5107 89.5752 91.1094 89.2383 90.7754 88.8047C90.4414 88.3711 90.1836 87.8613 90.002 87.2754C89.8262 86.6895 89.7383 86.0508 89.7383 85.3594ZM92.2695 85.1748V85.3594C92.2695 85.752 92.3076 86.1182 92.3838 86.458C92.46 86.7979 92.5771 87.0996 92.7354 87.3633C92.8994 87.6211 93.1016 87.8232 93.3418 87.9697C93.5879 88.1104 93.8779 88.1807 94.2119 88.1807C94.6748 88.1807 95.0527 88.084 95.3457 87.8906C95.6387 87.6914 95.8584 87.4189 96.0049 87.0732C96.1514 86.7275 96.2363 86.3291 96.2598 85.8779V84.7266C96.248 84.3574 96.1982 84.0264 96.1104 83.7334C96.0225 83.4346 95.8994 83.1797 95.7412 82.9688C95.583 82.7578 95.3779 82.5938 95.126 82.4766C94.874 82.3594 94.5752 82.3008 94.2295 82.3008C93.8955 82.3008 93.6055 82.377 93.3594 82.5293C93.1191 82.6758 92.917 82.8779 92.7529 83.1357C92.5947 83.3936 92.4746 83.6982 92.3926 84.0498C92.3105 84.3955 92.2695 84.7705 92.2695 85.1748ZM105.532 87.8555V83.6191C105.532 83.3145 105.482 83.0537 105.383 82.8369C105.283 82.6143 105.128 82.4414 104.917 82.3184C104.712 82.1953 104.445 82.1338 104.117 82.1338C103.836 82.1338 103.593 82.1836 103.388 82.2832C103.183 82.377 103.024 82.5146 102.913 82.6963C102.802 82.8721 102.746 83.0801 102.746 83.3203H100.215C100.215 82.916 100.309 82.5322 100.496 82.1689C100.684 81.8057 100.956 81.4863 101.313 81.2109C101.671 80.9297 102.096 80.71 102.588 80.5518C103.086 80.3936 103.643 80.3145 104.258 80.3145C104.996 80.3145 105.652 80.4375 106.227 80.6836C106.801 80.9297 107.252 81.2988 107.58 81.791C107.914 82.2832 108.081 82.8984 108.081 83.6367V87.7061C108.081 88.2275 108.113 88.6553 108.178 88.9893C108.242 89.3174 108.336 89.6045 108.459 89.8506V90H105.901C105.778 89.7422 105.685 89.4199 105.62 89.0332C105.562 88.6406 105.532 88.248 105.532 87.8555ZM105.866 84.208L105.884 85.6406H104.469C104.135 85.6406 103.845 85.6787 103.599 85.7549C103.353 85.8311 103.15 85.9395 102.992 86.0801C102.834 86.2148 102.717 86.373 102.641 86.5547C102.57 86.7363 102.535 86.9355 102.535 87.1523C102.535 87.3691 102.585 87.5654 102.685 87.7412C102.784 87.9111 102.928 88.0459 103.115 88.1455C103.303 88.2393 103.522 88.2861 103.774 88.2861C104.155 88.2861 104.486 88.21 104.768 88.0576C105.049 87.9053 105.266 87.7178 105.418 87.4951C105.576 87.2725 105.658 87.0615 105.664 86.8623L106.332 87.9346C106.238 88.1748 106.109 88.4238 105.945 88.6816C105.787 88.9395 105.585 89.1826 105.339 89.4111C105.093 89.6338 104.797 89.8184 104.451 89.9648C104.105 90.1055 103.695 90.1758 103.221 90.1758C102.617 90.1758 102.069 90.0557 101.577 89.8154C101.091 89.5693 100.704 89.2324 100.417 88.8047C100.136 88.3711 99.9951 87.8789 99.9951 87.3281C99.9951 86.8301 100.089 86.3877 100.276 86.001C100.464 85.6143 100.739 85.2891 101.103 85.0254C101.472 84.7559 101.932 84.5537 102.482 84.4189C103.033 84.2783 103.672 84.208 104.398 84.208H105.866ZM110.129 88.7783C110.129 88.4033 110.258 88.0898 110.516 87.8379C110.779 87.5859 111.128 87.46 111.562 87.46C111.995 87.46 112.341 87.5859 112.599 87.8379C112.862 88.0898 112.994 88.4033 112.994 88.7783C112.994 89.1533 112.862 89.4668 112.599 89.7188C112.341 89.9707 111.995 90.0967 111.562 90.0967C111.128 90.0967 110.779 89.9707 110.516 89.7188C110.258 89.4668 110.129 89.1533 110.129 88.7783ZM110.129 81.5273C110.129 81.1523 110.258 80.8389 110.516 80.5869C110.779 80.335 111.128 80.209 111.562 80.209C111.995 80.209 112.341 80.335 112.599 80.5869C112.862 80.8389 112.994 81.1523 112.994 81.5273C112.994 81.9023 112.862 82.2158 112.599 82.4678C112.341 82.7197 111.995 82.8457 111.562 82.8457C111.128 82.8457 110.779 82.7197 110.516 82.4678C110.258 82.2158 110.129 81.9023 110.129 81.5273Z" fill="#403D3D"/>
<path d="M129.896 83.3115V88.3828C129.696 88.623 129.389 88.8838 128.973 89.165C128.557 89.4404 128.021 89.6777 127.364 89.877C126.708 90.0762 125.914 90.1758 124.982 90.1758C124.156 90.1758 123.403 90.041 122.724 89.7715C122.044 89.4961 121.458 89.0947 120.966 88.5674C120.479 88.04 120.104 87.3955 119.841 86.6338C119.577 85.8662 119.445 84.9902 119.445 84.0059V83.2061C119.445 82.2217 119.571 81.3457 119.823 80.5781C120.081 79.8105 120.447 79.1631 120.922 78.6357C121.396 78.1084 121.962 77.707 122.618 77.4316C123.274 77.1562 124.004 77.0186 124.807 77.0186C125.92 77.0186 126.834 77.2002 127.549 77.5635C128.264 77.9209 128.809 78.4189 129.184 79.0576C129.564 79.6904 129.799 80.417 129.887 81.2373H127.329C127.265 80.8037 127.142 80.4258 126.96 80.1035C126.778 79.7812 126.518 79.5293 126.178 79.3477C125.844 79.166 125.41 79.0752 124.877 79.0752C124.438 79.0752 124.045 79.166 123.699 79.3477C123.359 79.5234 123.072 79.7842 122.838 80.1299C122.604 80.4756 122.425 80.9033 122.302 81.4131C122.179 81.9229 122.117 82.5146 122.117 83.1885V84.0059C122.117 84.6738 122.182 85.2656 122.311 85.7812C122.439 86.291 122.63 86.7217 122.882 87.0732C123.14 87.4189 123.456 87.6797 123.831 87.8555C124.206 88.0312 124.643 88.1191 125.141 88.1191C125.557 88.1191 125.902 88.084 126.178 88.0137C126.459 87.9434 126.685 87.8584 126.854 87.7588C127.03 87.6533 127.165 87.5537 127.259 87.46V85.1924H124.851V83.3115H129.896ZM134.396 82.5645V90H131.864V80.4902H134.246L134.396 82.5645ZM137.261 80.4287L137.217 82.7754C137.094 82.7578 136.944 82.7432 136.769 82.7314C136.599 82.7139 136.443 82.7051 136.303 82.7051C135.945 82.7051 135.635 82.752 135.371 82.8457C135.113 82.9336 134.896 83.0654 134.721 83.2412C134.551 83.417 134.422 83.6309 134.334 83.8828C134.252 84.1348 134.205 84.4219 134.193 84.7441L133.684 84.5859C133.684 83.9707 133.745 83.4053 133.868 82.8896C133.991 82.3682 134.17 81.9141 134.404 81.5273C134.645 81.1406 134.938 80.8418 135.283 80.6309C135.629 80.4199 136.024 80.3145 136.47 80.3145C136.61 80.3145 136.754 80.3262 136.9 80.3496C137.047 80.3672 137.167 80.3936 137.261 80.4287ZM143.29 87.8555V83.6191C143.29 83.3145 143.24 83.0537 143.141 82.8369C143.041 82.6143 142.886 82.4414 142.675 82.3184C142.47 82.1953 142.203 82.1338 141.875 82.1338C141.594 82.1338 141.351 82.1836 141.146 82.2832C140.94 82.377 140.782 82.5146 140.671 82.6963C140.56 82.8721 140.504 83.0801 140.504 83.3203H137.973C137.973 82.916 138.066 82.5322 138.254 82.1689C138.441 81.8057 138.714 81.4863 139.071 81.2109C139.429 80.9297 139.854 80.71 140.346 80.5518C140.844 80.3936 141.4 80.3145 142.016 80.3145C142.754 80.3145 143.41 80.4375 143.984 80.6836C144.559 80.9297 145.01 81.2988 145.338 81.791C145.672 82.2832 145.839 82.8984 145.839 83.6367V87.7061C145.839 88.2275 145.871 88.6553 145.936 88.9893C146 89.3174 146.094 89.6045 146.217 89.8506V90H143.659C143.536 89.7422 143.442 89.4199 143.378 89.0332C143.319 88.6406 143.29 88.248 143.29 87.8555ZM143.624 84.208L143.642 85.6406H142.227C141.893 85.6406 141.603 85.6787 141.356 85.7549C141.11 85.8311 140.908 85.9395 140.75 86.0801C140.592 86.2148 140.475 86.373 140.398 86.5547C140.328 86.7363 140.293 86.9355 140.293 87.1523C140.293 87.3691 140.343 87.5654 140.442 87.7412C140.542 87.9111 140.686 88.0459 140.873 88.1455C141.061 88.2393 141.28 88.2861 141.532 88.2861C141.913 88.2861 142.244 88.21 142.525 88.0576C142.807 87.9053 143.023 87.7178 143.176 87.4951C143.334 87.2725 143.416 87.0615 143.422 86.8623L144.09 87.9346C143.996 88.1748 143.867 88.4238 143.703 88.6816C143.545 88.9395 143.343 89.1826 143.097 89.4111C142.851 89.6338 142.555 89.8184 142.209 89.9648C141.863 90.1055 141.453 90.1758 140.979 90.1758C140.375 90.1758 139.827 90.0557 139.335 89.8154C138.849 89.5693 138.462 89.2324 138.175 88.8047C137.894 88.3711 137.753 87.8789 137.753 87.3281C137.753 86.8301 137.847 86.3877 138.034 86.001C138.222 85.6143 138.497 85.2891 138.86 85.0254C139.229 84.7559 139.689 84.5537 140.24 84.4189C140.791 84.2783 141.43 84.208 142.156 84.208H143.624ZM140.803 79.207L142.525 76.5H145.276L142.859 79.207H140.803ZM152.448 80.4902V82.2832H146.911V80.4902H152.448ZM148.282 78.1436H150.813V87.1348C150.813 87.4102 150.849 87.6211 150.919 87.7676C150.995 87.9141 151.106 88.0166 151.253 88.0752C151.399 88.1279 151.584 88.1543 151.807 88.1543C151.965 88.1543 152.105 88.1484 152.229 88.1367C152.357 88.1191 152.466 88.1016 152.554 88.084L152.562 89.9473C152.346 90.0176 152.111 90.0732 151.859 90.1143C151.607 90.1553 151.329 90.1758 151.024 90.1758C150.468 90.1758 149.981 90.085 149.565 89.9033C149.155 89.7158 148.839 89.417 148.616 89.0068C148.394 88.5967 148.282 88.0576 148.282 87.3896V78.1436ZM156.562 80.4902V90H154.021V80.4902H156.562ZM153.863 78.0117C153.863 77.6426 153.992 77.3379 154.25 77.0977C154.508 76.8574 154.854 76.7373 155.287 76.7373C155.715 76.7373 156.058 76.8574 156.315 77.0977C156.579 77.3379 156.711 77.6426 156.711 78.0117C156.711 78.3809 156.579 78.6855 156.315 78.9258C156.058 79.166 155.715 79.2861 155.287 79.2861C154.854 79.2861 154.508 79.166 154.25 78.9258C153.992 78.6855 153.863 78.3809 153.863 78.0117ZM163.795 87.3721C163.795 87.1904 163.742 87.0264 163.637 86.8799C163.531 86.7334 163.335 86.5986 163.048 86.4756C162.767 86.3467 162.359 86.2295 161.826 86.124C161.346 86.0186 160.897 85.8867 160.481 85.7285C160.071 85.5645 159.714 85.3682 159.409 85.1396C159.11 84.9111 158.876 84.6416 158.706 84.3311C158.536 84.0146 158.451 83.6543 158.451 83.25C158.451 82.8516 158.536 82.4766 158.706 82.125C158.882 81.7734 159.131 81.4629 159.453 81.1934C159.781 80.918 160.18 80.7041 160.648 80.5518C161.123 80.3936 161.656 80.3145 162.248 80.3145C163.074 80.3145 163.783 80.4463 164.375 80.71C164.973 80.9736 165.43 81.3369 165.746 81.7998C166.068 82.2568 166.229 82.7783 166.229 83.3643H163.698C163.698 83.1182 163.646 82.8984 163.54 82.7051C163.44 82.5059 163.282 82.3506 163.065 82.2393C162.854 82.1221 162.579 82.0635 162.239 82.0635C161.958 82.0635 161.715 82.1133 161.51 82.2129C161.305 82.3066 161.146 82.4355 161.035 82.5996C160.93 82.7578 160.877 82.9336 160.877 83.127C160.877 83.2734 160.906 83.4053 160.965 83.5225C161.029 83.6338 161.132 83.7363 161.272 83.8301C161.413 83.9238 161.595 84.0117 161.817 84.0938C162.046 84.1699 162.327 84.2402 162.661 84.3047C163.347 84.4453 163.959 84.6299 164.498 84.8584C165.037 85.0811 165.465 85.3857 165.781 85.7725C166.098 86.1533 166.256 86.6543 166.256 87.2754C166.256 87.6973 166.162 88.084 165.975 88.4355C165.787 88.7871 165.518 89.0947 165.166 89.3584C164.814 89.6162 164.393 89.8184 163.9 89.9648C163.414 90.1055 162.866 90.1758 162.257 90.1758C161.372 90.1758 160.622 90.0176 160.007 89.7012C159.397 89.3848 158.935 88.9834 158.618 88.4971C158.308 88.0049 158.152 87.501 158.152 86.9854H160.552C160.563 87.3311 160.651 87.6094 160.815 87.8203C160.985 88.0312 161.199 88.1836 161.457 88.2773C161.721 88.3711 162.005 88.418 162.31 88.418C162.638 88.418 162.91 88.374 163.127 88.2861C163.344 88.1924 163.508 88.0693 163.619 87.917C163.736 87.7588 163.795 87.5771 163.795 87.3721Z" fill="#D1A05C"/>
<path d="M9.33594 114.872V117.078H0.564453V114.872H9.33594ZM6.1543 111.4V120.717H3.75488V111.4H6.1543ZM21.4121 109.177V122H18.8809V112.095L15.8398 113.062V111.066L21.1396 109.177H21.4121ZM32.1084 109.071H32.4775V111.093H32.3281C31.6602 111.093 31.0654 111.192 30.5439 111.392C30.0225 111.591 29.5801 111.875 29.2168 112.244C28.8594 112.607 28.584 113.047 28.3906 113.562C28.2031 114.078 28.1094 114.655 28.1094 115.294V117.421C28.1094 117.878 28.1533 118.282 28.2412 118.634C28.335 118.979 28.4668 119.27 28.6367 119.504C28.8125 119.732 29.0176 119.905 29.252 120.022C29.4863 120.134 29.75 120.189 30.043 120.189C30.3184 120.189 30.5674 120.131 30.79 120.014C31.0186 119.896 31.2119 119.732 31.3701 119.521C31.5342 119.305 31.6572 119.053 31.7393 118.766C31.8271 118.473 31.8711 118.153 31.8711 117.808C31.8711 117.462 31.8271 117.143 31.7393 116.85C31.6572 116.557 31.5342 116.305 31.3701 116.094C31.2061 115.877 31.0068 115.71 30.7725 115.593C30.5381 115.476 30.2744 115.417 29.9814 115.417C29.583 115.417 29.2314 115.511 28.9268 115.698C28.6279 115.88 28.3936 116.114 28.2236 116.401C28.0537 116.688 27.9629 116.99 27.9512 117.307L27.1865 116.814C27.2041 116.363 27.2979 115.936 27.4678 115.531C27.6436 115.127 27.8838 114.77 28.1885 114.459C28.499 114.143 28.8711 113.896 29.3047 113.721C29.7383 113.539 30.2275 113.448 30.7725 113.448C31.3701 113.448 31.8945 113.562 32.3457 113.791C32.8027 114.02 33.1836 114.333 33.4883 114.731C33.793 115.13 34.0215 115.59 34.1738 116.111C34.3262 116.633 34.4023 117.189 34.4023 117.781C34.4023 118.402 34.2998 118.979 34.0947 119.513C33.8955 120.046 33.6055 120.512 33.2246 120.91C32.8496 121.309 32.3984 121.619 31.8711 121.842C31.3438 122.064 30.752 122.176 30.0957 122.176C29.416 122.176 28.7979 122.053 28.2412 121.807C27.6904 121.555 27.2158 121.203 26.8174 120.752C26.4189 120.301 26.1113 119.765 25.8945 119.144C25.6836 118.522 25.5781 117.843 25.5781 117.104V116.12C25.5781 115.089 25.7275 114.146 26.0264 113.29C26.3311 112.429 26.7676 111.685 27.3359 111.058C27.9043 110.425 28.5898 109.936 29.3926 109.59C30.1953 109.244 31.1006 109.071 32.1084 109.071Z" fill="#D1A05C"/>
<path d="M40.502 108.5H43.0332V119.82L42.7783 122H40.502V108.5ZM49.0537 117.148V117.333C49.0537 118.042 48.9775 118.692 48.8252 119.284C48.6787 119.876 48.4502 120.389 48.1396 120.822C47.8291 121.25 47.4424 121.584 46.9795 121.824C46.5225 122.059 45.9834 122.176 45.3623 122.176C44.7822 122.176 44.2783 122.059 43.8506 121.824C43.4287 121.59 43.0742 121.259 42.7871 120.831C42.5 120.403 42.2686 119.902 42.0928 119.328C41.917 118.754 41.7852 118.127 41.6973 117.447V117.043C41.7852 116.363 41.917 115.736 42.0928 115.162C42.2686 114.588 42.5 114.087 42.7871 113.659C43.0742 113.231 43.4287 112.9 43.8506 112.666C44.2725 112.432 44.7705 112.314 45.3447 112.314C45.9717 112.314 46.5166 112.435 46.9795 112.675C47.4482 112.909 47.835 113.243 48.1396 113.677C48.4502 114.104 48.6787 114.614 48.8252 115.206C48.9775 115.792 49.0537 116.439 49.0537 117.148ZM46.5225 117.333V117.148C46.5225 116.762 46.4932 116.398 46.4346 116.059C46.3818 115.713 46.2881 115.411 46.1533 115.153C46.0186 114.89 45.834 114.682 45.5996 114.529C45.3711 114.377 45.0752 114.301 44.7119 114.301C44.3662 114.301 44.0732 114.359 43.833 114.477C43.5928 114.594 43.3936 114.758 43.2354 114.969C43.083 115.18 42.9688 115.432 42.8926 115.725C42.8164 116.012 42.7695 116.328 42.752 116.674V117.825C42.7695 118.288 42.8457 118.698 42.9805 119.056C43.1211 119.407 43.332 119.686 43.6133 119.891C43.9004 120.09 44.2725 120.189 44.7295 120.189C45.0869 120.189 45.3828 120.119 45.6172 119.979C45.8516 119.838 46.0332 119.639 46.1621 119.381C46.2969 119.123 46.3906 118.821 46.4434 118.476C46.4961 118.124 46.5225 117.743 46.5225 117.333ZM55.0039 122.176C54.2656 122.176 53.6035 122.059 53.0176 121.824C52.4316 121.584 51.9336 121.253 51.5234 120.831C51.1191 120.409 50.8086 119.92 50.5918 119.363C50.375 118.801 50.2666 118.203 50.2666 117.57V117.219C50.2666 116.498 50.3691 115.839 50.5742 115.241C50.7793 114.644 51.0723 114.125 51.4531 113.686C51.8398 113.246 52.3086 112.909 52.8594 112.675C53.4102 112.435 54.0312 112.314 54.7227 112.314C55.3965 112.314 55.9941 112.426 56.5156 112.648C57.0371 112.871 57.4736 113.188 57.8252 113.598C58.1826 114.008 58.4521 114.5 58.6338 115.074C58.8154 115.643 58.9062 116.275 58.9062 116.973V118.027H51.3477V116.34H56.4189V116.146C56.4189 115.795 56.3545 115.481 56.2256 115.206C56.1025 114.925 55.915 114.702 55.6631 114.538C55.4111 114.374 55.0889 114.292 54.6963 114.292C54.3623 114.292 54.0752 114.365 53.835 114.512C53.5947 114.658 53.3984 114.863 53.2461 115.127C53.0996 115.391 52.9883 115.701 52.9121 116.059C52.8418 116.41 52.8066 116.797 52.8066 117.219V117.57C52.8066 117.951 52.8594 118.303 52.9648 118.625C53.0762 118.947 53.2314 119.226 53.4307 119.46C53.6357 119.694 53.8818 119.876 54.1689 120.005C54.4619 120.134 54.793 120.198 55.1621 120.198C55.6191 120.198 56.0439 120.11 56.4365 119.935C56.835 119.753 57.1777 119.48 57.4648 119.117L58.6953 120.453C58.4961 120.74 58.2236 121.016 57.8779 121.279C57.5381 121.543 57.1279 121.76 56.6475 121.93C56.167 122.094 55.6191 122.176 55.0039 122.176ZM62.8262 114.521V122H60.2949V112.49H62.668L62.8262 114.521ZM62.457 116.911H61.7715C61.7715 116.208 61.8623 115.575 62.0439 115.013C62.2256 114.444 62.4805 113.961 62.8086 113.562C63.1367 113.158 63.5264 112.851 63.9775 112.64C64.4346 112.423 64.9443 112.314 65.5068 112.314C65.9521 112.314 66.3594 112.379 66.7285 112.508C67.0977 112.637 67.4141 112.842 67.6777 113.123C67.9473 113.404 68.1523 113.776 68.293 114.239C68.4395 114.702 68.5127 115.268 68.5127 115.936V122H65.9639V115.927C65.9639 115.505 65.9053 115.177 65.7881 114.942C65.6709 114.708 65.498 114.544 65.2695 114.45C65.0469 114.351 64.7715 114.301 64.4434 114.301C64.1035 114.301 63.8076 114.368 63.5557 114.503C63.3096 114.638 63.1045 114.825 62.9404 115.065C62.7822 115.3 62.6621 115.575 62.5801 115.892C62.498 116.208 62.457 116.548 62.457 116.911ZM74.8145 122.176C74.0762 122.176 73.4141 122.059 72.8281 121.824C72.2422 121.584 71.7441 121.253 71.334 120.831C70.9297 120.409 70.6191 119.92 70.4023 119.363C70.1855 118.801 70.0771 118.203 70.0771 117.57V117.219C70.0771 116.498 70.1797 115.839 70.3848 115.241C70.5898 114.644 70.8828 114.125 71.2637 113.686C71.6504 113.246 72.1191 112.909 72.6699 112.675C73.2207 112.435 73.8418 112.314 74.5332 112.314C75.207 112.314 75.8047 112.426 76.3262 112.648C76.8477 112.871 77.2842 113.188 77.6357 113.598C77.9932 114.008 78.2627 114.5 78.4443 115.074C78.626 115.643 78.7168 116.275 78.7168 116.973V118.027H71.1582V116.34H76.2295V116.146C76.2295 115.795 76.165 115.481 76.0361 115.206C75.9131 114.925 75.7256 114.702 75.4736 114.538C75.2217 114.374 74.8994 114.292 74.5068 114.292C74.1729 114.292 73.8857 114.365 73.6455 114.512C73.4053 114.658 73.209 114.863 73.0566 115.127C72.9102 115.391 72.7988 115.701 72.7227 116.059C72.6523 116.41 72.6172 116.797 72.6172 117.219V117.57C72.6172 117.951 72.6699 118.303 72.7754 118.625C72.8867 118.947 73.042 119.226 73.2412 119.46C73.4463 119.694 73.6924 119.876 73.9795 120.005C74.2725 120.134 74.6035 120.198 74.9727 120.198C75.4297 120.198 75.8545 120.11 76.2471 119.935C76.6455 119.753 76.9883 119.48 77.2754 119.117L78.5059 120.453C78.3066 120.74 78.0342 121.016 77.6885 121.279C77.3486 121.543 76.9385 121.76 76.458 121.93C75.9775 122.094 75.4297 122.176 74.8145 122.176ZM83.3838 122H80.835V111.646C80.835 110.926 80.9756 110.319 81.2568 109.827C81.5439 109.329 81.9453 108.954 82.4609 108.702C82.9824 108.444 83.6006 108.315 84.3154 108.315C84.5498 108.315 84.7754 108.333 84.9922 108.368C85.209 108.397 85.4199 108.436 85.625 108.482L85.5986 110.39C85.4873 110.36 85.3701 110.34 85.2471 110.328C85.124 110.316 84.9805 110.311 84.8164 110.311C84.5117 110.311 84.251 110.363 84.0342 110.469C83.8232 110.568 83.6621 110.718 83.5508 110.917C83.4395 111.116 83.3838 111.359 83.3838 111.646V122ZM85.2822 112.49V114.283H79.4199V112.49H85.2822ZM89.3428 112.49V122H86.8027V112.49H89.3428ZM86.8818 111.339L88.6045 108.632H91.3555L88.9385 111.339H86.8818ZM95.46 120.198C95.7705 120.198 96.0459 120.14 96.2861 120.022C96.5264 119.899 96.7139 119.729 96.8486 119.513C96.9893 119.29 97.0625 119.029 97.0684 118.73H99.4502C99.4443 119.398 99.2656 119.993 98.9141 120.515C98.5625 121.03 98.0908 121.438 97.499 121.736C96.9072 122.029 96.2451 122.176 95.5127 122.176C94.7744 122.176 94.1299 122.053 93.5791 121.807C93.0342 121.561 92.5801 121.221 92.2168 120.787C91.8535 120.348 91.5811 119.838 91.3994 119.258C91.2178 118.672 91.127 118.045 91.127 117.377V117.122C91.127 116.448 91.2178 115.821 91.3994 115.241C91.5811 114.655 91.8535 114.146 92.2168 113.712C92.5801 113.272 93.0342 112.93 93.5791 112.684C94.124 112.438 94.7627 112.314 95.4951 112.314C96.2744 112.314 96.957 112.464 97.543 112.763C98.1348 113.062 98.5977 113.489 98.9316 114.046C99.2715 114.597 99.4443 115.25 99.4502 116.006H97.0684C97.0625 115.689 96.9951 115.402 96.8662 115.145C96.7432 114.887 96.5615 114.682 96.3213 114.529C96.0869 114.371 95.7969 114.292 95.4512 114.292C95.082 114.292 94.7803 114.371 94.5459 114.529C94.3115 114.682 94.1299 114.893 94.001 115.162C93.8721 115.426 93.7812 115.728 93.7285 116.067C93.6816 116.401 93.6582 116.753 93.6582 117.122V117.377C93.6582 117.746 93.6816 118.101 93.7285 118.44C93.7754 118.78 93.8633 119.082 93.9922 119.346C94.127 119.609 94.3115 119.817 94.5459 119.97C94.7803 120.122 95.085 120.198 95.46 120.198ZM103.59 112.49V122H101.05V112.49H103.59ZM100.892 110.012C100.892 109.643 101.021 109.338 101.278 109.098C101.536 108.857 101.882 108.737 102.315 108.737C102.743 108.737 103.086 108.857 103.344 109.098C103.607 109.338 103.739 109.643 103.739 110.012C103.739 110.381 103.607 110.686 103.344 110.926C103.086 111.166 102.743 111.286 102.315 111.286C101.882 111.286 101.536 111.166 101.278 110.926C101.021 110.686 100.892 110.381 100.892 110.012ZM105.277 117.342V117.157C105.277 116.46 105.377 115.818 105.576 115.232C105.775 114.641 106.065 114.128 106.446 113.694C106.827 113.261 107.296 112.924 107.853 112.684C108.409 112.438 109.048 112.314 109.769 112.314C110.489 112.314 111.131 112.438 111.693 112.684C112.256 112.924 112.728 113.261 113.108 113.694C113.495 114.128 113.788 114.641 113.987 115.232C114.187 115.818 114.286 116.46 114.286 117.157V117.342C114.286 118.033 114.187 118.675 113.987 119.267C113.788 119.853 113.495 120.365 113.108 120.805C112.728 121.238 112.259 121.575 111.702 121.815C111.146 122.056 110.507 122.176 109.786 122.176C109.065 122.176 108.424 122.056 107.861 121.815C107.305 121.575 106.833 121.238 106.446 120.805C106.065 120.365 105.775 119.853 105.576 119.267C105.377 118.675 105.277 118.033 105.277 117.342ZM107.809 117.157V117.342C107.809 117.74 107.844 118.112 107.914 118.458C107.984 118.804 108.096 119.108 108.248 119.372C108.406 119.63 108.611 119.832 108.863 119.979C109.115 120.125 109.423 120.198 109.786 120.198C110.138 120.198 110.439 120.125 110.691 119.979C110.943 119.832 111.146 119.63 111.298 119.372C111.45 119.108 111.562 118.804 111.632 118.458C111.708 118.112 111.746 117.74 111.746 117.342V117.157C111.746 116.771 111.708 116.407 111.632 116.067C111.562 115.722 111.447 115.417 111.289 115.153C111.137 114.884 110.935 114.673 110.683 114.521C110.431 114.368 110.126 114.292 109.769 114.292C109.411 114.292 109.106 114.368 108.854 114.521C108.608 114.673 108.406 114.884 108.248 115.153C108.096 115.417 107.984 115.722 107.914 116.067C107.844 116.407 107.809 116.771 107.809 117.157ZM120.983 119.372C120.983 119.19 120.931 119.026 120.825 118.88C120.72 118.733 120.523 118.599 120.236 118.476C119.955 118.347 119.548 118.229 119.015 118.124C118.534 118.019 118.086 117.887 117.67 117.729C117.26 117.564 116.902 117.368 116.598 117.14C116.299 116.911 116.064 116.642 115.895 116.331C115.725 116.015 115.64 115.654 115.64 115.25C115.64 114.852 115.725 114.477 115.895 114.125C116.07 113.773 116.319 113.463 116.642 113.193C116.97 112.918 117.368 112.704 117.837 112.552C118.312 112.394 118.845 112.314 119.437 112.314C120.263 112.314 120.972 112.446 121.563 112.71C122.161 112.974 122.618 113.337 122.935 113.8C123.257 114.257 123.418 114.778 123.418 115.364H120.887C120.887 115.118 120.834 114.898 120.729 114.705C120.629 114.506 120.471 114.351 120.254 114.239C120.043 114.122 119.768 114.063 119.428 114.063C119.146 114.063 118.903 114.113 118.698 114.213C118.493 114.307 118.335 114.436 118.224 114.6C118.118 114.758 118.065 114.934 118.065 115.127C118.065 115.273 118.095 115.405 118.153 115.522C118.218 115.634 118.32 115.736 118.461 115.83C118.602 115.924 118.783 116.012 119.006 116.094C119.234 116.17 119.516 116.24 119.85 116.305C120.535 116.445 121.147 116.63 121.687 116.858C122.226 117.081 122.653 117.386 122.97 117.772C123.286 118.153 123.444 118.654 123.444 119.275C123.444 119.697 123.351 120.084 123.163 120.436C122.976 120.787 122.706 121.095 122.354 121.358C122.003 121.616 121.581 121.818 121.089 121.965C120.603 122.105 120.055 122.176 119.445 122.176C118.561 122.176 117.811 122.018 117.195 121.701C116.586 121.385 116.123 120.983 115.807 120.497C115.496 120.005 115.341 119.501 115.341 118.985H117.74C117.752 119.331 117.84 119.609 118.004 119.82C118.174 120.031 118.388 120.184 118.646 120.277C118.909 120.371 119.193 120.418 119.498 120.418C119.826 120.418 120.099 120.374 120.315 120.286C120.532 120.192 120.696 120.069 120.808 119.917C120.925 119.759 120.983 119.577 120.983 119.372ZM133.947 122.176C133.209 122.176 132.547 122.059 131.961 121.824C131.375 121.584 130.877 121.253 130.467 120.831C130.062 120.409 129.752 119.92 129.535 119.363C129.318 118.801 129.21 118.203 129.21 117.57V117.219C129.21 116.498 129.312 115.839 129.518 115.241C129.723 114.644 130.016 114.125 130.396 113.686C130.783 113.246 131.252 112.909 131.803 112.675C132.354 112.435 132.975 112.314 133.666 112.314C134.34 112.314 134.938 112.426 135.459 112.648C135.98 112.871 136.417 113.188 136.769 113.598C137.126 114.008 137.396 114.5 137.577 115.074C137.759 115.643 137.85 116.275 137.85 116.973V118.027H130.291V116.34H135.362V116.146C135.362 115.795 135.298 115.481 135.169 115.206C135.046 114.925 134.858 114.702 134.606 114.538C134.354 114.374 134.032 114.292 133.64 114.292C133.306 114.292 133.019 114.365 132.778 114.512C132.538 114.658 132.342 114.863 132.189 115.127C132.043 115.391 131.932 115.701 131.855 116.059C131.785 116.41 131.75 116.797 131.75 117.219V117.57C131.75 117.951 131.803 118.303 131.908 118.625C132.02 118.947 132.175 119.226 132.374 119.46C132.579 119.694 132.825 119.876 133.112 120.005C133.405 120.134 133.736 120.198 134.105 120.198C134.562 120.198 134.987 120.11 135.38 119.935C135.778 119.753 136.121 119.48 136.408 119.117L137.639 120.453C137.439 120.74 137.167 121.016 136.821 121.279C136.481 121.543 136.071 121.76 135.591 121.93C135.11 122.094 134.562 122.176 133.947 122.176ZM141.33 112.49L142.903 115.382L144.521 112.49H147.219L144.529 117.14L147.342 122H144.635L142.921 118.941L141.207 122H138.5L141.312 117.14L138.623 112.49H141.33ZM152.202 120.198C152.513 120.198 152.788 120.14 153.028 120.022C153.269 119.899 153.456 119.729 153.591 119.513C153.731 119.29 153.805 119.029 153.811 118.73H156.192C156.187 119.398 156.008 119.993 155.656 120.515C155.305 121.03 154.833 121.438 154.241 121.736C153.649 122.029 152.987 122.176 152.255 122.176C151.517 122.176 150.872 122.053 150.321 121.807C149.776 121.561 149.322 121.221 148.959 120.787C148.596 120.348 148.323 119.838 148.142 119.258C147.96 118.672 147.869 118.045 147.869 117.377V117.122C147.869 116.448 147.96 115.821 148.142 115.241C148.323 114.655 148.596 114.146 148.959 113.712C149.322 113.272 149.776 112.93 150.321 112.684C150.866 112.438 151.505 112.314 152.237 112.314C153.017 112.314 153.699 112.464 154.285 112.763C154.877 113.062 155.34 113.489 155.674 114.046C156.014 114.597 156.187 115.25 156.192 116.006H153.811C153.805 115.689 153.737 115.402 153.608 115.145C153.485 114.887 153.304 114.682 153.063 114.529C152.829 114.371 152.539 114.292 152.193 114.292C151.824 114.292 151.522 114.371 151.288 114.529C151.054 114.682 150.872 114.893 150.743 115.162C150.614 115.426 150.523 115.728 150.471 116.067C150.424 116.401 150.4 116.753 150.4 117.122V117.377C150.4 117.746 150.424 118.101 150.471 118.44C150.518 118.78 150.605 119.082 150.734 119.346C150.869 119.609 151.054 119.817 151.288 119.97C151.522 120.122 151.827 120.198 152.202 120.198ZM160.332 108.5V122H157.792V108.5H160.332ZM168.049 119.724V112.49H170.58V122H168.198L168.049 119.724ZM168.33 117.772L169.077 117.755C169.077 118.388 169.004 118.977 168.857 119.521C168.711 120.061 168.491 120.529 168.198 120.928C167.905 121.32 167.536 121.628 167.091 121.851C166.646 122.067 166.121 122.176 165.518 122.176C165.055 122.176 164.627 122.111 164.234 121.982C163.848 121.848 163.514 121.64 163.232 121.358C162.957 121.071 162.74 120.705 162.582 120.26C162.43 119.809 162.354 119.267 162.354 118.634V112.49H164.885V118.651C164.885 118.933 164.917 119.17 164.981 119.363C165.052 119.557 165.148 119.715 165.271 119.838C165.395 119.961 165.538 120.049 165.702 120.102C165.872 120.154 166.06 120.181 166.265 120.181C166.786 120.181 167.196 120.075 167.495 119.864C167.8 119.653 168.014 119.366 168.137 119.003C168.266 118.634 168.33 118.224 168.33 117.772ZM177.655 119.372C177.655 119.19 177.603 119.026 177.497 118.88C177.392 118.733 177.195 118.599 176.908 118.476C176.627 118.347 176.22 118.229 175.687 118.124C175.206 118.019 174.758 117.887 174.342 117.729C173.932 117.564 173.574 117.368 173.27 117.14C172.971 116.911 172.736 116.642 172.566 116.331C172.396 116.015 172.312 115.654 172.312 115.25C172.312 114.852 172.396 114.477 172.566 114.125C172.742 113.773 172.991 113.463 173.313 113.193C173.642 112.918 174.04 112.704 174.509 112.552C174.983 112.394 175.517 112.314 176.108 112.314C176.935 112.314 177.644 112.446 178.235 112.71C178.833 112.974 179.29 113.337 179.606 113.8C179.929 114.257 180.09 114.778 180.09 115.364H177.559C177.559 115.118 177.506 114.898 177.4 114.705C177.301 114.506 177.143 114.351 176.926 114.239C176.715 114.122 176.439 114.063 176.1 114.063C175.818 114.063 175.575 114.113 175.37 114.213C175.165 114.307 175.007 114.436 174.896 114.6C174.79 114.758 174.737 114.934 174.737 115.127C174.737 115.273 174.767 115.405 174.825 115.522C174.89 115.634 174.992 115.736 175.133 115.83C175.273 115.924 175.455 116.012 175.678 116.094C175.906 116.17 176.188 116.24 176.521 116.305C177.207 116.445 177.819 116.63 178.358 116.858C178.897 117.081 179.325 117.386 179.642 117.772C179.958 118.153 180.116 118.654 180.116 119.275C180.116 119.697 180.022 120.084 179.835 120.436C179.647 120.787 179.378 121.095 179.026 121.358C178.675 121.616 178.253 121.818 177.761 121.965C177.274 122.105 176.727 122.176 176.117 122.176C175.232 122.176 174.482 122.018 173.867 121.701C173.258 121.385 172.795 120.983 172.479 120.497C172.168 120.005 172.013 119.501 172.013 118.985H174.412C174.424 119.331 174.512 119.609 174.676 119.82C174.846 120.031 175.06 120.184 175.317 120.277C175.581 120.371 175.865 120.418 176.17 120.418C176.498 120.418 176.771 120.374 176.987 120.286C177.204 120.192 177.368 120.069 177.479 119.917C177.597 119.759 177.655 119.577 177.655 119.372ZM184.432 112.49V122H181.892V112.49H184.432ZM181.733 110.012C181.733 109.643 181.862 109.338 182.12 109.098C182.378 108.857 182.724 108.737 183.157 108.737C183.585 108.737 183.928 108.857 184.186 109.098C184.449 109.338 184.581 109.643 184.581 110.012C184.581 110.381 184.449 110.686 184.186 110.926C183.928 111.166 183.585 111.286 183.157 111.286C182.724 111.286 182.378 111.166 182.12 110.926C181.862 110.686 181.733 110.381 181.733 110.012ZM189.758 120.154L191.867 112.49H194.513L191.305 122H189.705L189.758 120.154ZM188.308 112.49L190.426 120.163L190.47 122H188.861L185.653 112.49H188.308ZM195.102 117.342V117.157C195.102 116.46 195.201 115.818 195.4 115.232C195.6 114.641 195.89 114.128 196.271 113.694C196.651 113.261 197.12 112.924 197.677 112.684C198.233 112.438 198.872 112.314 199.593 112.314C200.313 112.314 200.955 112.438 201.518 112.684C202.08 112.924 202.552 113.261 202.933 113.694C203.319 114.128 203.612 114.641 203.812 115.232C204.011 115.818 204.11 116.46 204.11 117.157V117.342C204.11 118.033 204.011 118.675 203.812 119.267C203.612 119.853 203.319 120.365 202.933 120.805C202.552 121.238 202.083 121.575 201.526 121.815C200.97 122.056 200.331 122.176 199.61 122.176C198.89 122.176 198.248 122.056 197.686 121.815C197.129 121.575 196.657 121.238 196.271 120.805C195.89 120.365 195.6 119.853 195.4 119.267C195.201 118.675 195.102 118.033 195.102 117.342ZM197.633 117.157V117.342C197.633 117.74 197.668 118.112 197.738 118.458C197.809 118.804 197.92 119.108 198.072 119.372C198.23 119.63 198.436 119.832 198.688 119.979C198.939 120.125 199.247 120.198 199.61 120.198C199.962 120.198 200.264 120.125 200.516 119.979C200.768 119.832 200.97 119.63 201.122 119.372C201.274 119.108 201.386 118.804 201.456 118.458C201.532 118.112 201.57 117.74 201.57 117.342V117.157C201.57 116.771 201.532 116.407 201.456 116.067C201.386 115.722 201.271 115.417 201.113 115.153C200.961 114.884 200.759 114.673 200.507 114.521C200.255 114.368 199.95 114.292 199.593 114.292C199.235 114.292 198.931 114.368 198.679 114.521C198.433 114.673 198.23 114.884 198.072 115.153C197.92 115.417 197.809 115.722 197.738 116.067C197.668 116.407 197.633 116.771 197.633 117.157ZM210.808 119.372C210.808 119.19 210.755 119.026 210.649 118.88C210.544 118.733 210.348 118.599 210.061 118.476C209.779 118.347 209.372 118.229 208.839 118.124C208.358 118.019 207.91 117.887 207.494 117.729C207.084 117.564 206.727 117.368 206.422 117.14C206.123 116.911 205.889 116.642 205.719 116.331C205.549 116.015 205.464 115.654 205.464 115.25C205.464 114.852 205.549 114.477 205.719 114.125C205.895 113.773 206.144 113.463 206.466 113.193C206.794 112.918 207.192 112.704 207.661 112.552C208.136 112.394 208.669 112.314 209.261 112.314C210.087 112.314 210.796 112.446 211.388 112.71C211.985 112.974 212.442 113.337 212.759 113.8C213.081 114.257 213.242 114.778 213.242 115.364H210.711C210.711 115.118 210.658 114.898 210.553 114.705C210.453 114.506 210.295 114.351 210.078 114.239C209.867 114.122 209.592 114.063 209.252 114.063C208.971 114.063 208.728 114.113 208.522 114.213C208.317 114.307 208.159 114.436 208.048 114.6C207.942 114.758 207.89 114.934 207.89 115.127C207.89 115.273 207.919 115.405 207.978 115.522C208.042 115.634 208.145 115.736 208.285 115.83C208.426 115.924 208.607 116.012 208.83 116.094C209.059 116.17 209.34 116.24 209.674 116.305C210.359 116.445 210.972 116.63 211.511 116.858C212.05 117.081 212.478 117.386 212.794 117.772C213.11 118.153 213.269 118.654 213.269 119.275C213.269 119.697 213.175 120.084 212.987 120.436C212.8 120.787 212.53 121.095 212.179 121.358C211.827 121.616 211.405 121.818 210.913 121.965C210.427 122.105 209.879 122.176 209.27 122.176C208.385 122.176 207.635 122.018 207.02 121.701C206.41 121.385 205.947 120.983 205.631 120.497C205.32 120.005 205.165 119.501 205.165 118.985H207.564C207.576 119.331 207.664 119.609 207.828 119.82C207.998 120.031 208.212 120.184 208.47 120.277C208.733 120.371 209.018 120.418 209.322 120.418C209.65 120.418 209.923 120.374 210.14 120.286C210.356 120.192 210.521 120.069 210.632 119.917C210.749 119.759 210.808 119.577 210.808 119.372Z" fill="#403D3D"/>
<g clip-path="url(#clip0_301_81)">
<path d="M60.1127 4.80979C56.8409 3.0016 53.1059 2.56194 49.5975 3.57017C48.2282 3.96354 44.0801 6.12875 41.7078 7.3849L35.7539 4.58831C35.4374 4.43956 35.0709 4.48253 34.801 4.70071C34.5278 4.91888 34.4079 5.26597 34.4911 5.60315L35.7939 11.0542C35.9471 11.7021 35.7306 12.3764 35.2275 12.8161L31.196 16.3366C30.9328 16.5647 30.8295 16.9151 30.9228 17.249C31.0161 17.5829 31.2893 17.8308 31.6358 17.8903L37.2432 18.8721C37.8196 18.9712 38.3127 19.3448 38.5626 19.8704L40.8882 24.733C41.0315 25.0338 41.3313 25.2321 41.6678 25.2421C42.001 25.252 42.3176 25.0834 42.4841 24.7925L45.3861 19.7778C45.6527 19.315 46.1091 18.9977 46.6389 18.9051L52.6428 17.8308C52.956 17.7184 53.1726 17.4605 53.2259 17.1333C53.2792 16.8093 53.1592 16.4953 52.8994 16.2903L46.6356 11.3286C46.2891 11.0542 45.8393 10.9319 45.3995 10.998C44.9597 11.0641 44.5665 11.312 44.3166 11.679C43.8668 12.3434 43.9901 13.2392 44.6032 13.7615L46.0392 14.978C46.1691 15.0871 46.2191 15.2524 46.1758 15.4176C46.1291 15.5829 46.0025 15.6986 45.8359 15.7284L44.4699 15.9697C43.9901 16.0556 43.5736 16.3465 43.3304 16.7664L42.3109 18.525C42.2309 18.6638 42.081 18.7431 41.9211 18.7398C41.7578 18.7332 41.6179 18.6407 41.5479 18.4952L40.7683 16.8688C40.5384 16.3928 40.0886 16.0523 39.5655 15.9598L37.9229 15.6722C37.7596 15.6424 37.633 15.5333 37.5831 15.3747C37.5364 15.216 37.5797 15.054 37.6997 14.9416L38.9957 13.7252C39.4255 13.3219 39.6055 12.7136 39.4622 12.1417L39.059 10.5352C39.0157 10.3699 39.0724 10.2079 39.2056 10.0988C39.3389 9.99306 39.5088 9.96992 39.6654 10.0426L41.0548 10.6972C41.5279 10.9186 42.0877 10.9054 42.5474 10.6542C45.0863 9.28235 49.4943 6.99483 50.5038 6.70724C53.1626 5.94363 56.0013 6.28412 58.5001 7.66258C60.7691 8.91542 62.5816 10.9616 63.1213 12.8756C64.0342 16.1151 63.5178 18.4655 61.2855 21.2587C58.9066 24.2338 54.6286 27.5891 48.6846 32.2501C45.7093 34.5806 42.3409 37.2251 38.5459 40.3324C38.446 40.4117 38.3294 40.4481 38.2061 40.4316C38.0895 40.415 37.9862 40.3522 37.9129 40.2498C36.1437 37.7441 32.3121 32.2699 26.5415 23.7677C24.3991 20.6042 23.3329 17.7448 23.2963 15.0375C23.2463 11.4046 25.1454 7.99645 28.937 4.90566C29.6201 4.35031 29.7467 3.36522 29.2236 2.66442C28.9537 2.3041 28.5439 2.0694 28.0974 2.01321C27.6476 1.95701 27.2112 2.08262 26.8647 2.36691C22.2468 6.11883 19.9412 10.393 20.0011 15.0805C20.0478 18.4423 21.2972 21.8868 23.8194 25.6024C32.1456 37.8631 36.4902 43.9124 36.5335 43.9752L37 44.6264C37.1466 44.8281 37.3732 44.9636 37.6197 44.9934C37.6564 44.9967 37.6963 45 37.733 45C37.9429 45 38.1495 44.9273 38.3127 44.7917L38.9291 44.2794C43.4137 40.5572 47.3053 37.5094 50.7603 34.802C56.8575 30.022 61.2622 26.5676 63.8776 23.295C65.3103 21.5001 66.2032 19.7613 66.5997 17.9762C67.0129 16.1284 66.9162 14.1747 66.3032 11.9996C65.5269 9.24599 63.1546 6.48907 60.1127 4.80979Z" fill="#7D7566"/>
<path d="M80.187 3.46436H78.7144V43.5322H80.187V3.46436Z" fill="#7D7566"/>
<path d="M98.2452 11.7054C96.2094 11.7054 94.8467 10.0592 94.8467 8.11545C94.8467 6.18494 96.1828 4.6412 98.2319 4.6412C99.8145 4.6412 100.877 5.6329 100.877 5.6329L101.514 4.68087C101.514 4.68087 100.384 3.48422 98.1819 3.48422C95.5231 3.48422 93.5273 5.49076 93.5273 8.12867C93.5273 10.793 95.4598 12.8756 98.2085 12.8756C100.504 12.8756 101.76 11.4343 101.76 11.4343L101.074 10.522C101.074 10.522 99.971 11.7054 98.2452 11.7054Z" fill="#7D7566"/>
<path d="M110.706 11.6162H106.608V3.63962H105.325V12.7203H110.706V11.6162Z" fill="#7D7566"/>
<path d="M117.317 12.8756C119.456 12.8756 120.922 11.5236 120.922 9.50386V3.63962H119.639V9.48071C119.639 10.8955 118.719 11.7054 117.307 11.7054C115.907 11.7054 114.998 10.8955 114.998 9.50716V3.63962H113.715V9.50386C113.712 11.5236 115.178 12.8756 117.317 12.8756Z" fill="#7D7566"/>
<path d="M129.814 7.93697V7.91053C130.514 7.55021 130.953 6.8428 130.953 5.95358C130.953 4.48587 129.837 3.63962 128.295 3.63962H125.093V12.7203H128.371C129.981 12.7203 131.313 11.8443 131.313 10.1352C131.32 9.1204 130.773 8.21795 129.814 7.93697ZM126.379 4.74701H128.271C129.154 4.74701 129.647 5.28584 129.647 6.0858C129.647 6.88247 129.128 7.46096 128.298 7.46096H126.379V4.74701ZM128.441 11.6162H126.379V8.51546H128.428C129.387 8.51546 130.011 9.14684 130.011 10.0724C130.011 10.998 129.424 11.6162 128.441 11.6162Z" fill="#7D7566"/>
<path d="M136.414 8.69397H139.693V7.58988H136.414V4.74701H140.446V3.63962H135.128V12.7203H140.666V11.6162H136.414V8.69397Z" fill="#7D7566"/>
<path d="M99.388 25.7512C99.388 22.8058 94.9533 23.3083 94.9533 21.4307C94.9533 20.71 95.6397 20.1051 96.6126 20.1051C97.7787 20.1051 98.6216 20.8885 98.6216 20.8885L99.2047 19.834C99.2047 19.834 98.3085 18.9217 96.6126 18.9217C94.8867 18.9217 93.6573 20.0423 93.6573 21.4571C93.6573 24.2471 98.0919 23.824 98.0919 25.7908C98.0919 26.6536 97.3656 27.1296 96.5093 27.1296C95.1466 27.1296 94.177 26.1511 94.177 26.1511L93.4507 27.1164C93.4507 27.1164 94.5402 28.313 96.486 28.313C98.2985 28.3097 99.388 27.1527 99.388 25.7512Z" fill="#7D7566"/>
<path d="M110.123 24.9413V19.0737H108.84V24.9148C108.84 26.3296 107.921 27.1395 106.508 27.1395C105.109 27.1395 104.199 26.3296 104.199 24.9413V19.0737H102.917V24.9413C102.917 26.961 104.382 28.313 106.522 28.313C108.657 28.3097 110.123 26.961 110.123 24.9413Z" fill="#7D7566"/>
<path d="M117.64 19.0737H114.294V28.1544H115.577V24.7991H117.64C119.312 24.7991 120.518 23.6421 120.518 21.9166C120.518 20.191 119.312 19.0737 117.64 19.0737ZM117.433 23.6917H115.581V20.1811H117.446C118.536 20.1811 119.209 20.8257 119.209 21.9166C119.209 23.0108 118.536 23.6917 117.433 23.6917Z" fill="#7D7566"/>
<path d="M129.517 27.0503H125.263V24.1314H128.545V23.024H125.263V20.1811H129.298V19.0737H123.98V28.1577H129.517V27.0503Z" fill="#7D7566"/>
<path d="M134.508 24.5412H136.467L138.4 28.1543H139.852L137.907 24.6305C137.737 24.333 137.633 24.2206 137.633 24.2206V24.1942C138.633 23.8735 139.279 22.895 139.279 21.7381C139.279 20.5414 138.67 19.629 137.737 19.2819C137.387 19.153 136.984 19.077 136.024 19.077H133.222V28.1576H134.505V24.5412H134.508ZM134.508 20.1811H135.988C136.701 20.1811 137 20.2571 137.244 20.386C137.71 20.6439 137.97 21.1199 137.97 21.7876C137.97 22.8025 137.347 23.4339 136.347 23.4339H134.505V20.1811H134.508Z" fill="#7D7566"/>
<path d="M149.392 24.9809C149.392 25.4834 149.482 26.2933 149.482 26.2933H149.455C149.455 26.2933 149.028 25.4702 148.689 24.9809L144.617 19.077H143.348V28.1577H144.63V22.2637C144.63 21.748 144.54 20.9381 144.54 20.9381H144.567C144.567 20.9381 144.994 21.7612 145.333 22.2637L149.418 28.1544H150.674V19.0737H149.392V24.9809V24.9809Z" fill="#7D7566"/>
<path d="M159.064 18.9217C156.419 18.9217 154.356 20.9414 154.356 23.5529C154.356 26.2272 156.419 28.313 159.064 28.313C161.71 28.313 163.759 26.2305 163.759 23.5529C163.755 20.9414 161.706 18.9217 159.064 18.9217ZM159.064 27.1395C157.198 27.1395 155.679 25.5958 155.679 23.5496C155.679 21.5695 157.195 20.0753 159.064 20.0753C160.93 20.0753 162.436 21.5662 162.436 23.5496C162.433 25.5958 160.93 27.1395 159.064 27.1395Z" fill="#7D7566"/>
<path d="M168.24 21.4307C168.24 20.71 168.926 20.1051 169.899 20.1051C171.065 20.1051 171.908 20.8885 171.908 20.8885L172.491 19.834C172.491 19.834 171.595 18.9217 169.899 18.9217C168.173 18.9217 166.944 20.0423 166.944 21.4571C166.944 24.2471 171.379 23.824 171.379 25.7908C171.379 26.6536 170.652 27.1296 169.796 27.1296C168.433 27.1296 167.464 26.1511 167.464 26.1511L166.737 27.1164C166.737 27.1164 167.827 28.313 169.769 28.313C171.585 28.313 172.675 27.1561 172.675 25.7545C172.675 22.8058 168.24 23.3083 168.24 21.4307Z" fill="#7D7566"/>
<path d="M177.135 21.4307C177.135 20.71 177.822 20.1051 178.795 20.1051C179.961 20.1051 180.804 20.8885 180.804 20.8885L181.387 19.834C181.387 19.834 180.494 18.9217 178.795 18.9217C177.069 18.9217 175.839 20.0423 175.839 21.4571C175.839 24.2471 180.274 23.824 180.274 25.7908C180.274 26.6536 179.548 27.1296 178.691 27.1296C177.329 27.1296 176.359 26.1511 176.359 26.1511L175.633 27.1164C175.633 27.1164 176.722 28.313 178.668 28.313C180.484 28.313 181.573 27.1561 181.573 25.7545C181.57 22.8058 177.135 23.3083 177.135 21.4307Z" fill="#7D7566"/>
<path d="M189.306 18.9217C186.661 18.9217 184.599 20.9414 184.599 23.5529C184.599 26.2272 186.661 28.313 189.306 28.313C191.952 28.313 194.001 26.2305 194.001 23.5529C194.001 20.9414 191.952 18.9217 189.306 18.9217ZM189.306 27.1395C187.441 27.1395 185.921 25.5958 185.921 23.5496C185.921 21.5695 187.437 20.0753 189.306 20.0753C191.172 20.0753 192.678 21.5662 192.678 23.5496C192.678 25.5958 191.176 27.1395 189.306 27.1395Z" fill="#7D7566"/>
<path d="M97.8452 34.3954H93.9937V43.5918H96.2626V40.7489H97.8452C99.6477 40.7489 100.867 39.4101 100.867 37.559C100.864 35.7078 99.6477 34.3954 97.8452 34.3954ZM97.3788 38.8184H96.2626V36.3226H97.4154C98.1684 36.3226 98.5549 36.8251 98.5549 37.559C98.5582 38.2928 98.1684 38.8184 97.3788 38.8184Z" fill="#7D7566"/>
<path d="M109.383 39.8233V39.7969C110.303 39.3341 110.769 38.2664 110.769 37.2879C110.769 35.9491 110.106 35.0103 109.057 34.6136C108.654 34.4583 108.201 34.3954 107.254 34.3954H104.026V43.5918H106.295V40.4911H107.358L109.004 43.5918H111.532L109.73 40.3754C109.513 39.9886 109.383 39.8233 109.383 39.8233ZM107.281 38.5639H106.295V36.3259H107.061C108.201 36.3259 108.461 36.7359 108.461 37.4333C108.464 38.1639 108.007 38.5639 107.281 38.5639Z" fill="#7D7566"/>
<path d="M116.954 34.3954H114.685V43.5918H116.954V34.3954Z" fill="#7D7566"/>
<path d="M127.545 34.3954L126.196 38.2796C125.989 38.8713 125.729 39.7969 125.729 39.7969H125.703C125.703 39.7969 125.443 38.8713 125.236 38.2796L123.89 34.3954H121.428L120.662 43.5918H122.944L123.23 39.4498C123.284 38.7556 123.23 37.9061 123.23 37.9061H123.257C123.257 37.9061 123.567 38.8713 123.777 39.4498L124.75 42.1142H126.696L127.668 39.4498C127.875 38.8713 128.188 37.9061 128.188 37.9061H128.215C128.215 37.9061 128.162 38.7556 128.215 39.4498L128.501 43.5918H130.77L130.011 34.3954H127.545Z" fill="#7D7566"/>
<path d="M136.737 39.9258H139.563V37.9953H136.737V36.3226H140.276V34.3954H134.468V43.5918H140.459V41.6613H136.737V39.9258Z" fill="#7D7566"/>
</g>
<defs>
<clipPath id="clip0_301_81">
<rect width="174" height="43" fill="white" transform="translate(20 2)"/>
</clipPath>
</defs>
</svg>
