<svg width="259" height="126" viewBox="0 0 259 126" fill="none" xmlns="http://www.w3.org/2000/svg">
<path d="M35.0371 15.0801C35.0371 14.8783 34.9785 14.696 34.8613 14.5332C34.7441 14.3704 34.526 14.2207 34.207 14.084C33.8945 13.9408 33.4421 13.8105 32.8496 13.6934C32.3158 13.5762 31.8177 13.4297 31.3555 13.2539C30.8997 13.0716 30.5026 12.8535 30.1641 12.5996C29.832 12.3457 29.5716 12.0462 29.3828 11.7012C29.194 11.3496 29.0996 10.9492 29.0996 10.5C29.0996 10.0573 29.194 9.64062 29.3828 9.25C29.5781 8.85938 29.8548 8.51432 30.2129 8.21484C30.5775 7.90885 31.0202 7.67122 31.541 7.50195C32.0684 7.32617 32.6608 7.23828 33.3184 7.23828C34.2363 7.23828 35.0241 7.38477 35.6816 7.67773C36.3457 7.9707 36.8535 8.37435 37.2051 8.88867C37.5632 9.39648 37.7422 9.97591 37.7422 10.627H34.9297C34.9297 10.3535 34.8711 10.1094 34.7539 9.89453C34.6432 9.67318 34.4674 9.50065 34.2266 9.37695C33.9922 9.24674 33.6862 9.18164 33.3086 9.18164C32.9961 9.18164 32.7259 9.23698 32.498 9.34766C32.2702 9.45182 32.0944 9.59505 31.9707 9.77734C31.8535 9.95312 31.7949 10.1484 31.7949 10.3633C31.7949 10.526 31.8275 10.6725 31.8926 10.8027C31.9642 10.9264 32.0781 11.0404 32.2344 11.1445C32.3906 11.2487 32.5924 11.3464 32.8398 11.4375C33.0938 11.5221 33.4062 11.6003 33.7773 11.6719C34.5391 11.8281 35.2194 12.0332 35.8184 12.2871C36.4173 12.5345 36.8926 12.873 37.2441 13.3027C37.5957 13.7259 37.7715 14.2826 37.7715 14.9727C37.7715 15.4414 37.6673 15.8711 37.459 16.2617C37.2507 16.6523 36.9512 16.9941 36.5605 17.2871C36.1699 17.5736 35.7012 17.7982 35.1543 17.9609C34.6139 18.1172 34.0052 18.1953 33.3281 18.1953C32.3451 18.1953 31.5117 18.0195 30.8281 17.668C30.151 17.3164 29.6367 16.8704 29.2852 16.3301C28.9401 15.7832 28.7676 15.2233 28.7676 14.6504H31.4336C31.4466 15.0345 31.5443 15.3438 31.7266 15.5781C31.9154 15.8125 32.153 15.9818 32.4395 16.0859C32.7324 16.1901 33.0482 16.2422 33.3867 16.2422C33.7513 16.2422 34.054 16.1934 34.2949 16.0957C34.5358 15.9915 34.7181 15.8548 34.8418 15.6855C34.972 15.5098 35.0371 15.3079 35.0371 15.0801ZM44.4609 18.1953C43.6406 18.1953 42.9049 18.0651 42.2539 17.8047C41.6029 17.5378 41.0495 17.1699 40.5938 16.7012C40.1445 16.2324 39.7995 15.6888 39.5586 15.0703C39.3177 14.4453 39.1973 13.7812 39.1973 13.0781V12.6875C39.1973 11.8867 39.3112 11.1543 39.5391 10.4902C39.7669 9.82617 40.0924 9.25 40.5156 8.76172C40.9453 8.27344 41.4661 7.89909 42.0781 7.63867C42.6901 7.37174 43.3802 7.23828 44.1484 7.23828C44.8971 7.23828 45.5612 7.36198 46.1406 7.60938C46.7201 7.85677 47.2051 8.20833 47.5957 8.66406C47.9928 9.11979 48.2923 9.66667 48.4941 10.3047C48.696 10.9362 48.7969 11.6393 48.7969 12.4141V13.5859H40.3984V11.7109H46.0332V11.4961C46.0332 11.1055 45.9616 10.7572 45.8184 10.4512C45.6816 10.1387 45.4733 9.89128 45.1934 9.70898C44.9134 9.52669 44.5553 9.43555 44.1191 9.43555C43.748 9.43555 43.429 9.51693 43.1621 9.67969C42.8952 9.84245 42.6771 10.0703 42.5078 10.3633C42.3451 10.6562 42.2214 11.0013 42.1367 11.3984C42.0586 11.7891 42.0195 12.2188 42.0195 12.6875V13.0781C42.0195 13.5013 42.0781 13.8919 42.1953 14.25C42.319 14.6081 42.4915 14.9173 42.7129 15.1777C42.9408 15.4382 43.2142 15.64 43.5332 15.7832C43.8587 15.9264 44.2266 15.998 44.6367 15.998C45.1445 15.998 45.6165 15.9004 46.0527 15.7051C46.4954 15.5033 46.8763 15.2005 47.1953 14.7969L48.5625 16.2812C48.3411 16.6003 48.0384 16.9062 47.6543 17.1992C47.2767 17.4922 46.821 17.7331 46.2871 17.9219C45.7533 18.1042 45.1445 18.1953 44.4609 18.1953ZM53.2109 9.62109V18H50.3887V7.43359H53.0352L53.2109 9.62109ZM52.8203 12.3457H52.0391C52.0391 11.61 52.127 10.9329 52.3027 10.3145C52.485 9.68945 52.7487 9.14909 53.0938 8.69336C53.4453 8.23112 53.8783 7.87305 54.3926 7.61914C54.9069 7.36523 55.5026 7.23828 56.1797 7.23828C56.6484 7.23828 57.0781 7.3099 57.4688 7.45312C57.8594 7.58984 58.1947 7.80794 58.4746 8.10742C58.7611 8.40039 58.9824 8.78451 59.1387 9.25977C59.2949 9.72852 59.373 10.2917 59.373 10.9492V18H56.5605V11.2617C56.5605 10.7799 56.4954 10.4089 56.3652 10.1484C56.235 9.88802 56.0495 9.70573 55.8086 9.60156C55.5742 9.4974 55.291 9.44531 54.959 9.44531C54.5944 9.44531 54.2754 9.52018 54.002 9.66992C53.735 9.81966 53.5137 10.028 53.3379 10.2949C53.1621 10.5553 53.0319 10.8613 52.9473 11.2129C52.8626 11.5645 52.8203 11.9421 52.8203 12.3457ZM59.1094 12.0234L58.1035 12.1504C58.1035 11.4603 58.1882 10.819 58.3574 10.2266C58.5332 9.63411 58.7904 9.11328 59.1289 8.66406C59.474 8.21484 59.9004 7.86654 60.4082 7.61914C60.916 7.36523 61.502 7.23828 62.166 7.23828C62.6738 7.23828 63.1361 7.31315 63.5527 7.46289C63.9694 7.60612 64.3242 7.83724 64.6172 8.15625C64.9167 8.46875 65.1445 8.87891 65.3008 9.38672C65.4635 9.89453 65.5449 10.5163 65.5449 11.252V18H62.7227V11.252C62.7227 10.7637 62.6576 10.3926 62.5273 10.1387C62.4036 9.87826 62.2214 9.69922 61.9805 9.60156C61.7461 9.4974 61.4661 9.44531 61.1406 9.44531C60.8021 9.44531 60.5059 9.51367 60.252 9.65039C59.998 9.7806 59.7865 9.96289 59.6172 10.1973C59.4479 10.4316 59.321 10.7051 59.2363 11.0176C59.1517 11.3236 59.1094 11.6589 59.1094 12.0234ZM77.0684 15.998C77.4134 15.998 77.7194 15.9329 77.9863 15.8027C78.2533 15.666 78.4616 15.4772 78.6113 15.2363C78.7676 14.9889 78.849 14.6992 78.8555 14.3672H81.502C81.4954 15.1094 81.2969 15.7702 80.9062 16.3496C80.5156 16.9225 79.9915 17.375 79.334 17.707C78.6764 18.0326 77.9408 18.1953 77.127 18.1953C76.3066 18.1953 75.5905 18.0586 74.9785 17.7852C74.373 17.5117 73.8685 17.1341 73.4648 16.6523C73.0612 16.1641 72.7585 15.5977 72.5566 14.9531C72.3548 14.3021 72.2539 13.6055 72.2539 12.8633V12.5801C72.2539 11.8314 72.3548 11.1348 72.5566 10.4902C72.7585 9.83919 73.0612 9.27279 73.4648 8.79102C73.8685 8.30273 74.373 7.92188 74.9785 7.64844C75.584 7.375 76.2936 7.23828 77.1074 7.23828C77.9733 7.23828 78.7318 7.4043 79.3828 7.73633C80.0404 8.06836 80.5547 8.54362 80.9258 9.16211C81.3034 9.77409 81.4954 10.5 81.502 11.3398H78.8555C78.849 10.9883 78.7741 10.6693 78.6309 10.3828C78.4941 10.0964 78.2923 9.86849 78.0254 9.69922C77.765 9.52344 77.4427 9.43555 77.0586 9.43555C76.6484 9.43555 76.3132 9.52344 76.0527 9.69922C75.7923 9.86849 75.5905 10.1029 75.4473 10.4023C75.304 10.6953 75.2031 11.0306 75.1445 11.4082C75.0924 11.7793 75.0664 12.1699 75.0664 12.5801V12.8633C75.0664 13.2734 75.0924 13.6673 75.1445 14.0449C75.1966 14.4225 75.2943 14.7578 75.4375 15.0508C75.5872 15.3438 75.7923 15.5749 76.0527 15.7441C76.3132 15.9134 76.6517 15.998 77.0684 15.998ZM86.1016 3V18H83.2793V3H86.1016ZM94.6758 15.4707V7.43359H97.4883V18H94.8418L94.6758 15.4707ZM94.9883 13.3027L95.8184 13.2832C95.8184 13.9863 95.737 14.6406 95.5742 15.2461C95.4115 15.8451 95.1673 16.3659 94.8418 16.8086C94.5163 17.2448 94.1061 17.5866 93.6113 17.834C93.1165 18.0749 92.5339 18.1953 91.8633 18.1953C91.349 18.1953 90.8737 18.1237 90.4375 17.9805C90.0078 17.8307 89.6367 17.5996 89.3242 17.2871C89.0182 16.9681 88.7773 16.5612 88.6016 16.0664C88.4323 15.5651 88.3477 14.9629 88.3477 14.2598V7.43359H91.1602V14.2793C91.1602 14.5918 91.196 14.8555 91.2676 15.0703C91.3457 15.2852 91.4531 15.4609 91.5898 15.5977C91.7266 15.7344 91.8861 15.832 92.0684 15.8906C92.2572 15.9492 92.4655 15.9785 92.6934 15.9785C93.2728 15.9785 93.7285 15.8613 94.0605 15.627C94.3991 15.3926 94.6367 15.0736 94.7734 14.6699C94.9167 14.2598 94.9883 13.804 94.9883 13.3027ZM99.6367 3H102.449V15.5781L102.166 18H99.6367V3ZM109.139 12.6094V12.8145C109.139 13.6022 109.054 14.3249 108.885 14.9824C108.722 15.64 108.468 16.2096 108.123 16.6914C107.778 17.1667 107.348 17.5378 106.834 17.8047C106.326 18.0651 105.727 18.1953 105.037 18.1953C104.393 18.1953 103.833 18.0651 103.357 17.8047C102.889 17.5443 102.495 17.1764 102.176 16.7012C101.857 16.2259 101.6 15.6693 101.404 15.0312C101.209 14.3932 101.062 13.6966 100.965 12.9414V12.4922C101.062 11.737 101.209 11.0404 101.404 10.4023C101.6 9.76432 101.857 9.20768 102.176 8.73242C102.495 8.25716 102.889 7.88932 103.357 7.62891C103.826 7.36849 104.38 7.23828 105.018 7.23828C105.714 7.23828 106.32 7.37174 106.834 7.63867C107.355 7.89909 107.785 8.27018 108.123 8.75195C108.468 9.22721 108.722 9.79362 108.885 10.4512C109.054 11.1022 109.139 11.8216 109.139 12.6094ZM106.326 12.8145V12.6094C106.326 12.1797 106.294 11.776 106.229 11.3984C106.17 11.0143 106.066 10.679 105.916 10.3926C105.766 10.0996 105.561 9.86849 105.301 9.69922C105.047 9.52995 104.718 9.44531 104.314 9.44531C103.93 9.44531 103.605 9.51042 103.338 9.64062C103.071 9.77083 102.85 9.95312 102.674 10.1875C102.505 10.4219 102.378 10.7018 102.293 11.0273C102.208 11.3464 102.156 11.6979 102.137 12.082V13.3613C102.156 13.8757 102.241 14.3314 102.391 14.7285C102.547 15.1191 102.781 15.4284 103.094 15.6562C103.413 15.8776 103.826 15.9883 104.334 15.9883C104.731 15.9883 105.06 15.9102 105.32 15.7539C105.581 15.5977 105.783 15.3763 105.926 15.0898C106.076 14.8034 106.18 14.4681 106.238 14.084C106.297 13.6934 106.326 13.2702 106.326 12.8145ZM115.75 18.1953C114.93 18.1953 114.194 18.0651 113.543 17.8047C112.892 17.5378 112.339 17.1699 111.883 16.7012C111.434 16.2324 111.089 15.6888 110.848 15.0703C110.607 14.4453 110.486 13.7812 110.486 13.0781V12.6875C110.486 11.8867 110.6 11.1543 110.828 10.4902C111.056 9.82617 111.382 9.25 111.805 8.76172C112.234 8.27344 112.755 7.89909 113.367 7.63867C113.979 7.37174 114.669 7.23828 115.438 7.23828C116.186 7.23828 116.85 7.36198 117.43 7.60938C118.009 7.85677 118.494 8.20833 118.885 8.66406C119.282 9.11979 119.581 9.66667 119.783 10.3047C119.985 10.9362 120.086 11.6393 120.086 12.4141V13.5859H111.688V11.7109H117.322V11.4961C117.322 11.1055 117.251 10.7572 117.107 10.4512C116.971 10.1387 116.762 9.89128 116.482 9.70898C116.202 9.52669 115.844 9.43555 115.408 9.43555C115.037 9.43555 114.718 9.51693 114.451 9.67969C114.184 9.84245 113.966 10.0703 113.797 10.3633C113.634 10.6562 113.51 11.0013 113.426 11.3984C113.348 11.7891 113.309 12.2188 113.309 12.6875V13.0781C113.309 13.5013 113.367 13.8919 113.484 14.25C113.608 14.6081 113.781 14.9173 114.002 15.1777C114.23 15.4382 114.503 15.64 114.822 15.7832C115.148 15.9264 115.516 15.998 115.926 15.998C116.434 15.998 116.906 15.9004 117.342 15.7051C117.785 15.5033 118.165 15.2005 118.484 14.7969L119.852 16.2812C119.63 16.6003 119.327 16.9062 118.943 17.1992C118.566 17.4922 118.11 17.7331 117.576 17.9219C117.042 18.1042 116.434 18.1953 115.75 18.1953ZM132.381 15.0801C132.381 14.8783 132.322 14.696 132.205 14.5332C132.088 14.3704 131.87 14.2207 131.551 14.084C131.238 13.9408 130.786 13.8105 130.193 13.6934C129.66 13.5762 129.161 13.4297 128.699 13.2539C128.243 13.0716 127.846 12.8535 127.508 12.5996C127.176 12.3457 126.915 12.0462 126.727 11.7012C126.538 11.3496 126.443 10.9492 126.443 10.5C126.443 10.0573 126.538 9.64062 126.727 9.25C126.922 8.85938 127.199 8.51432 127.557 8.21484C127.921 7.90885 128.364 7.67122 128.885 7.50195C129.412 7.32617 130.005 7.23828 130.662 7.23828C131.58 7.23828 132.368 7.38477 133.025 7.67773C133.689 7.9707 134.197 8.37435 134.549 8.88867C134.907 9.39648 135.086 9.97591 135.086 10.627H132.273C132.273 10.3535 132.215 10.1094 132.098 9.89453C131.987 9.67318 131.811 9.50065 131.57 9.37695C131.336 9.24674 131.03 9.18164 130.652 9.18164C130.34 9.18164 130.07 9.23698 129.842 9.34766C129.614 9.45182 129.438 9.59505 129.314 9.77734C129.197 9.95312 129.139 10.1484 129.139 10.3633C129.139 10.526 129.171 10.6725 129.236 10.8027C129.308 10.9264 129.422 11.0404 129.578 11.1445C129.734 11.2487 129.936 11.3464 130.184 11.4375C130.438 11.5221 130.75 11.6003 131.121 11.6719C131.883 11.8281 132.563 12.0332 133.162 12.2871C133.761 12.5345 134.236 12.873 134.588 13.3027C134.939 13.7259 135.115 14.2826 135.115 14.9727C135.115 15.4414 135.011 15.8711 134.803 16.2617C134.594 16.6523 134.295 16.9941 133.904 17.2871C133.514 17.5736 133.045 17.7982 132.498 17.9609C131.958 18.1172 131.349 18.1953 130.672 18.1953C129.689 18.1953 128.855 18.0195 128.172 17.668C127.495 17.3164 126.98 16.8704 126.629 16.3301C126.284 15.7832 126.111 15.2233 126.111 14.6504H128.777C128.79 15.0345 128.888 15.3438 129.07 15.5781C129.259 15.8125 129.497 15.9818 129.783 16.0859C130.076 16.1901 130.392 16.2422 130.73 16.2422C131.095 16.2422 131.398 16.1934 131.639 16.0957C131.88 15.9915 132.062 15.8548 132.186 15.6855C132.316 15.5098 132.381 15.3079 132.381 15.0801ZM143.191 15.4707V7.43359H146.004V18H143.357L143.191 15.4707ZM143.504 13.3027L144.334 13.2832C144.334 13.9863 144.253 14.6406 144.09 15.2461C143.927 15.8451 143.683 16.3659 143.357 16.8086C143.032 17.2448 142.622 17.5866 142.127 17.834C141.632 18.0749 141.049 18.1953 140.379 18.1953C139.865 18.1953 139.389 18.1237 138.953 17.9805C138.523 17.8307 138.152 17.5996 137.84 17.2871C137.534 16.9681 137.293 16.5612 137.117 16.0664C136.948 15.5651 136.863 14.9629 136.863 14.2598V7.43359H139.676V14.2793C139.676 14.5918 139.712 14.8555 139.783 15.0703C139.861 15.2852 139.969 15.4609 140.105 15.5977C140.242 15.7344 140.402 15.832 140.584 15.8906C140.773 15.9492 140.981 15.9785 141.209 15.9785C141.788 15.9785 142.244 15.8613 142.576 15.627C142.915 15.3926 143.152 15.0736 143.289 14.6699C143.432 14.2598 143.504 13.804 143.504 13.3027ZM150.965 9.46484V22.0625H148.152V7.43359H150.76L150.965 9.46484ZM157.654 12.5996V12.8047C157.654 13.5729 157.563 14.2858 157.381 14.9434C157.205 15.6009 156.945 16.1738 156.6 16.6621C156.255 17.1439 155.825 17.5215 155.311 17.7949C154.803 18.0618 154.217 18.1953 153.553 18.1953C152.908 18.1953 152.348 18.0651 151.873 17.8047C151.398 17.5443 150.997 17.1797 150.672 16.7109C150.353 16.2357 150.096 15.6855 149.9 15.0605C149.705 14.4355 149.555 13.765 149.451 13.0488V12.5117C149.555 11.7435 149.705 11.0404 149.9 10.4023C150.096 9.75781 150.353 9.20117 150.672 8.73242C150.997 8.25716 151.395 7.88932 151.863 7.62891C152.339 7.36849 152.895 7.23828 153.533 7.23828C154.204 7.23828 154.793 7.36523 155.301 7.61914C155.815 7.87305 156.245 8.23763 156.59 8.71289C156.941 9.18815 157.205 9.75456 157.381 10.4121C157.563 11.0697 157.654 11.7988 157.654 12.5996ZM154.832 12.8047V12.5996C154.832 12.1504 154.793 11.737 154.715 11.3594C154.643 10.9753 154.526 10.64 154.363 10.3535C154.207 10.0671 153.999 9.8457 153.738 9.68945C153.484 9.52669 153.175 9.44531 152.811 9.44531C152.426 9.44531 152.098 9.50716 151.824 9.63086C151.557 9.75456 151.339 9.93359 151.17 10.168C151.001 10.4023 150.874 10.6823 150.789 11.0078C150.704 11.3333 150.652 11.7012 150.633 12.1113V13.4688C150.665 13.9505 150.757 14.3835 150.906 14.7676C151.056 15.1452 151.287 15.4447 151.6 15.666C151.912 15.8874 152.322 15.998 152.83 15.998C153.201 15.998 153.514 15.9167 153.768 15.7539C154.021 15.5846 154.227 15.3535 154.383 15.0605C154.546 14.7676 154.66 14.429 154.725 14.0449C154.796 13.6608 154.832 13.2474 154.832 12.8047ZM164.266 18.1953C163.445 18.1953 162.71 18.0651 162.059 17.8047C161.408 17.5378 160.854 17.1699 160.398 16.7012C159.949 16.2324 159.604 15.6888 159.363 15.0703C159.122 14.4453 159.002 13.7812 159.002 13.0781V12.6875C159.002 11.8867 159.116 11.1543 159.344 10.4902C159.572 9.82617 159.897 9.25 160.32 8.76172C160.75 8.27344 161.271 7.89909 161.883 7.63867C162.495 7.37174 163.185 7.23828 163.953 7.23828C164.702 7.23828 165.366 7.36198 165.945 7.60938C166.525 7.85677 167.01 8.20833 167.4 8.66406C167.798 9.11979 168.097 9.66667 168.299 10.3047C168.501 10.9362 168.602 11.6393 168.602 12.4141V13.5859H160.203V11.7109H165.838V11.4961C165.838 11.1055 165.766 10.7572 165.623 10.4512C165.486 10.1387 165.278 9.89128 164.998 9.70898C164.718 9.52669 164.36 9.43555 163.924 9.43555C163.553 9.43555 163.234 9.51693 162.967 9.67969C162.7 9.84245 162.482 10.0703 162.312 10.3633C162.15 10.6562 162.026 11.0013 161.941 11.3984C161.863 11.7891 161.824 12.2188 161.824 12.6875V13.0781C161.824 13.5013 161.883 13.8919 162 14.25C162.124 14.6081 162.296 14.9173 162.518 15.1777C162.745 15.4382 163.019 15.64 163.338 15.7832C163.663 15.9264 164.031 15.998 164.441 15.998C164.949 15.998 165.421 15.9004 165.857 15.7051C166.3 15.5033 166.681 15.2005 167 14.7969L168.367 16.2812C168.146 16.6003 167.843 16.9062 167.459 17.1992C167.081 17.4922 166.626 17.7331 166.092 17.9219C165.558 18.1042 164.949 18.1953 164.266 18.1953ZM173.016 9.73828V18H170.203V7.43359H172.85L173.016 9.73828ZM176.199 7.36523L176.15 9.97266C176.014 9.95312 175.848 9.93685 175.652 9.92383C175.464 9.9043 175.291 9.89453 175.135 9.89453C174.738 9.89453 174.393 9.94661 174.1 10.0508C173.813 10.1484 173.572 10.2949 173.377 10.4902C173.188 10.6855 173.045 10.9232 172.947 11.2031C172.856 11.4831 172.804 11.8021 172.791 12.1602L172.225 11.9844C172.225 11.3008 172.293 10.6725 172.43 10.0996C172.566 9.52018 172.765 9.01562 173.025 8.58594C173.292 8.15625 173.618 7.82422 174.002 7.58984C174.386 7.35547 174.826 7.23828 175.32 7.23828C175.477 7.23828 175.636 7.2513 175.799 7.27734C175.962 7.29688 176.095 7.32617 176.199 7.36523ZM180.281 9.68945V18H177.469V7.43359H180.105L180.281 9.68945ZM179.871 12.3457H179.109C179.109 11.5645 179.21 10.8613 179.412 10.2363C179.614 9.60482 179.897 9.06771 180.262 8.625C180.626 8.17578 181.059 7.83398 181.561 7.59961C182.068 7.35872 182.635 7.23828 183.26 7.23828C183.755 7.23828 184.207 7.3099 184.617 7.45312C185.027 7.59635 185.379 7.82422 185.672 8.13672C185.971 8.44922 186.199 8.86263 186.355 9.37695C186.518 9.89128 186.6 10.5195 186.6 11.2617V18H183.768V11.252C183.768 10.7832 183.702 10.4186 183.572 10.1582C183.442 9.89779 183.25 9.71549 182.996 9.61133C182.749 9.50065 182.443 9.44531 182.078 9.44531C181.701 9.44531 181.372 9.52018 181.092 9.66992C180.818 9.81966 180.59 10.028 180.408 10.2949C180.232 10.5553 180.099 10.8613 180.008 11.2129C179.917 11.5645 179.871 11.9421 179.871 12.3457ZM188.289 12.8242V12.6191C188.289 11.8444 188.4 11.1315 188.621 10.4805C188.842 9.82292 189.165 9.25326 189.588 8.77148C190.011 8.28971 190.532 7.91536 191.15 7.64844C191.769 7.375 192.479 7.23828 193.279 7.23828C194.08 7.23828 194.793 7.375 195.418 7.64844C196.043 7.91536 196.567 8.28971 196.99 8.77148C197.42 9.25326 197.745 9.82292 197.967 10.4805C198.188 11.1315 198.299 11.8444 198.299 12.6191V12.8242C198.299 13.5924 198.188 14.3053 197.967 14.9629C197.745 15.6139 197.42 16.1836 196.99 16.6719C196.567 17.1536 196.046 17.528 195.428 17.7949C194.809 18.0618 194.1 18.1953 193.299 18.1953C192.498 18.1953 191.785 18.0618 191.16 17.7949C190.542 17.528 190.018 17.1536 189.588 16.6719C189.165 16.1836 188.842 15.6139 188.621 14.9629C188.4 14.3053 188.289 13.5924 188.289 12.8242ZM191.102 12.6191V12.8242C191.102 13.2669 191.141 13.6803 191.219 14.0645C191.297 14.4486 191.421 14.7871 191.59 15.0801C191.766 15.3665 191.993 15.5911 192.273 15.7539C192.553 15.9167 192.895 15.998 193.299 15.998C193.689 15.998 194.025 15.9167 194.305 15.7539C194.585 15.5911 194.809 15.3665 194.979 15.0801C195.148 14.7871 195.271 14.4486 195.35 14.0645C195.434 13.6803 195.477 13.2669 195.477 12.8242V12.6191C195.477 12.1895 195.434 11.7858 195.35 11.4082C195.271 11.0241 195.145 10.6855 194.969 10.3926C194.799 10.0931 194.575 9.85872 194.295 9.68945C194.015 9.52018 193.676 9.43555 193.279 9.43555C192.882 9.43555 192.544 9.52018 192.264 9.68945C191.99 9.85872 191.766 10.0931 191.59 10.3926C191.421 10.6855 191.297 11.0241 191.219 11.4082C191.141 11.7858 191.102 12.1895 191.102 12.6191ZM205.74 15.0801C205.74 14.8783 205.682 14.696 205.564 14.5332C205.447 14.3704 205.229 14.2207 204.91 14.084C204.598 13.9408 204.145 13.8105 203.553 13.6934C203.019 13.5762 202.521 13.4297 202.059 13.2539C201.603 13.0716 201.206 12.8535 200.867 12.5996C200.535 12.3457 200.275 12.0462 200.086 11.7012C199.897 11.3496 199.803 10.9492 199.803 10.5C199.803 10.0573 199.897 9.64062 200.086 9.25C200.281 8.85938 200.558 8.51432 200.916 8.21484C201.281 7.90885 201.723 7.67122 202.244 7.50195C202.771 7.32617 203.364 7.23828 204.021 7.23828C204.939 7.23828 205.727 7.38477 206.385 7.67773C207.049 7.9707 207.557 8.37435 207.908 8.88867C208.266 9.39648 208.445 9.97591 208.445 10.627H205.633C205.633 10.3535 205.574 10.1094 205.457 9.89453C205.346 9.67318 205.171 9.50065 204.93 9.37695C204.695 9.24674 204.389 9.18164 204.012 9.18164C203.699 9.18164 203.429 9.23698 203.201 9.34766C202.973 9.45182 202.798 9.59505 202.674 9.77734C202.557 9.95312 202.498 10.1484 202.498 10.3633C202.498 10.526 202.531 10.6725 202.596 10.8027C202.667 10.9264 202.781 11.0404 202.938 11.1445C203.094 11.2487 203.296 11.3464 203.543 11.4375C203.797 11.5221 204.109 11.6003 204.48 11.6719C205.242 11.8281 205.923 12.0332 206.521 12.2871C207.12 12.5345 207.596 12.873 207.947 13.3027C208.299 13.7259 208.475 14.2826 208.475 14.9727C208.475 15.4414 208.37 15.8711 208.162 16.2617C207.954 16.6523 207.654 16.9941 207.264 17.2871C206.873 17.5736 206.404 17.7982 205.857 17.9609C205.317 18.1172 204.708 18.1953 204.031 18.1953C203.048 18.1953 202.215 18.0195 201.531 17.668C200.854 17.3164 200.34 16.8704 199.988 16.3301C199.643 15.7832 199.471 15.2233 199.471 14.6504H202.137C202.15 15.0345 202.247 15.3438 202.43 15.5781C202.618 15.8125 202.856 15.9818 203.143 16.0859C203.436 16.1901 203.751 16.2422 204.09 16.2422C204.454 16.2422 204.757 16.1934 204.998 16.0957C205.239 15.9915 205.421 15.8548 205.545 15.6855C205.675 15.5098 205.74 15.3079 205.74 15.0801ZM216.014 15.0801C216.014 14.8783 215.955 14.696 215.838 14.5332C215.721 14.3704 215.503 14.2207 215.184 14.084C214.871 13.9408 214.419 13.8105 213.826 13.6934C213.292 13.5762 212.794 13.4297 212.332 13.2539C211.876 13.0716 211.479 12.8535 211.141 12.5996C210.809 12.3457 210.548 12.0462 210.359 11.7012C210.171 11.3496 210.076 10.9492 210.076 10.5C210.076 10.0573 210.171 9.64062 210.359 9.25C210.555 8.85938 210.831 8.51432 211.189 8.21484C211.554 7.90885 211.997 7.67122 212.518 7.50195C213.045 7.32617 213.637 7.23828 214.295 7.23828C215.213 7.23828 216.001 7.38477 216.658 7.67773C217.322 7.9707 217.83 8.37435 218.182 8.88867C218.54 9.39648 218.719 9.97591 218.719 10.627H215.906C215.906 10.3535 215.848 10.1094 215.73 9.89453C215.62 9.67318 215.444 9.50065 215.203 9.37695C214.969 9.24674 214.663 9.18164 214.285 9.18164C213.973 9.18164 213.702 9.23698 213.475 9.34766C213.247 9.45182 213.071 9.59505 212.947 9.77734C212.83 9.95312 212.771 10.1484 212.771 10.3633C212.771 10.526 212.804 10.6725 212.869 10.8027C212.941 10.9264 213.055 11.0404 213.211 11.1445C213.367 11.2487 213.569 11.3464 213.816 11.4375C214.07 11.5221 214.383 11.6003 214.754 11.6719C215.516 11.8281 216.196 12.0332 216.795 12.2871C217.394 12.5345 217.869 12.873 218.221 13.3027C218.572 13.7259 218.748 14.2826 218.748 14.9727C218.748 15.4414 218.644 15.8711 218.436 16.2617C218.227 16.6523 217.928 16.9941 217.537 17.2871C217.146 17.5736 216.678 17.7982 216.131 17.9609C215.59 18.1172 214.982 18.1953 214.305 18.1953C213.322 18.1953 212.488 18.0195 211.805 17.668C211.128 17.3164 210.613 16.8704 210.262 16.3301C209.917 15.7832 209.744 15.2233 209.744 14.6504H212.41C212.423 15.0345 212.521 15.3438 212.703 15.5781C212.892 15.8125 213.13 15.9818 213.416 16.0859C213.709 16.1901 214.025 16.2422 214.363 16.2422C214.728 16.2422 215.031 16.1934 215.271 16.0957C215.512 15.9915 215.695 15.8548 215.818 15.6855C215.949 15.5098 216.014 15.3079 216.014 15.0801ZM220.125 12.8242V12.6191C220.125 11.8444 220.236 11.1315 220.457 10.4805C220.678 9.82292 221.001 9.25326 221.424 8.77148C221.847 8.28971 222.368 7.91536 222.986 7.64844C223.605 7.375 224.314 7.23828 225.115 7.23828C225.916 7.23828 226.629 7.375 227.254 7.64844C227.879 7.91536 228.403 8.28971 228.826 8.77148C229.256 9.25326 229.581 9.82292 229.803 10.4805C230.024 11.1315 230.135 11.8444 230.135 12.6191V12.8242C230.135 13.5924 230.024 14.3053 229.803 14.9629C229.581 15.6139 229.256 16.1836 228.826 16.6719C228.403 17.1536 227.882 17.528 227.264 17.7949C226.645 18.0618 225.936 18.1953 225.135 18.1953C224.334 18.1953 223.621 18.0618 222.996 17.7949C222.378 17.528 221.854 17.1536 221.424 16.6719C221.001 16.1836 220.678 15.6139 220.457 14.9629C220.236 14.3053 220.125 13.5924 220.125 12.8242ZM222.938 12.6191V12.8242C222.938 13.2669 222.977 13.6803 223.055 14.0645C223.133 14.4486 223.257 14.7871 223.426 15.0801C223.602 15.3665 223.829 15.5911 224.109 15.7539C224.389 15.9167 224.731 15.998 225.135 15.998C225.525 15.998 225.861 15.9167 226.141 15.7539C226.421 15.5911 226.645 15.3665 226.814 15.0801C226.984 14.7871 227.107 14.4486 227.186 14.0645C227.27 13.6803 227.312 13.2669 227.312 12.8242V12.6191C227.312 12.1895 227.27 11.7858 227.186 11.4082C227.107 11.0241 226.98 10.6855 226.805 10.3926C226.635 10.0931 226.411 9.85872 226.131 9.68945C225.851 9.52018 225.512 9.43555 225.115 9.43555C224.718 9.43555 224.38 9.52018 224.1 9.68945C223.826 9.85872 223.602 10.0931 223.426 10.3926C223.257 10.6855 223.133 11.0241 223.055 11.4082C222.977 11.7858 222.938 12.1895 222.938 12.6191ZM106.668 35.9316H103.045V33.6465H106.668C107.228 33.6465 107.684 33.5553 108.035 33.373C108.387 33.1842 108.644 32.9238 108.807 32.5918C108.969 32.2598 109.051 31.8854 109.051 31.4688C109.051 31.0456 108.969 30.6517 108.807 30.2871C108.644 29.9225 108.387 29.6296 108.035 29.4082C107.684 29.1868 107.228 29.0762 106.668 29.0762H104.061V41H101.131V26.7812H106.668C107.781 26.7812 108.735 26.9831 109.529 27.3867C110.33 27.7839 110.942 28.334 111.365 29.0371C111.788 29.7402 112 30.5443 112 31.4492C112 32.3672 111.788 33.1615 111.365 33.832C110.942 34.5026 110.33 35.0202 109.529 35.3848C108.735 35.7493 107.781 35.9316 106.668 35.9316ZM116.658 32.7383V41H113.846V30.4336H116.492L116.658 32.7383ZM119.842 30.3652L119.793 32.9727C119.656 32.9531 119.49 32.9368 119.295 32.9238C119.106 32.9043 118.934 32.8945 118.777 32.8945C118.38 32.8945 118.035 32.9466 117.742 33.0508C117.456 33.1484 117.215 33.2949 117.02 33.4902C116.831 33.6855 116.688 33.9232 116.59 34.2031C116.499 34.4831 116.447 34.8021 116.434 35.1602L115.867 34.9844C115.867 34.3008 115.936 33.6725 116.072 33.0996C116.209 32.5202 116.408 32.0156 116.668 31.5859C116.935 31.1562 117.26 30.8242 117.645 30.5898C118.029 30.3555 118.468 30.2383 118.963 30.2383C119.119 30.2383 119.279 30.2513 119.441 30.2773C119.604 30.2969 119.738 30.3262 119.842 30.3652ZM124.139 30.4336V41H121.316V30.4336H124.139ZM121.141 27.6797C121.141 27.2695 121.284 26.931 121.57 26.6641C121.857 26.3971 122.241 26.2637 122.723 26.2637C123.198 26.2637 123.579 26.3971 123.865 26.6641C124.158 26.931 124.305 27.2695 124.305 27.6797C124.305 28.0898 124.158 28.4284 123.865 28.6953C123.579 28.9622 123.198 29.0957 122.723 29.0957C122.241 29.0957 121.857 28.9622 121.57 28.6953C121.284 28.4284 121.141 28.0898 121.141 27.6797ZM129.275 32.6211V41H126.453V30.4336H129.1L129.275 32.6211ZM128.885 35.3457H128.104C128.104 34.61 128.191 33.9329 128.367 33.3145C128.549 32.6895 128.813 32.1491 129.158 31.6934C129.51 31.2311 129.943 30.873 130.457 30.6191C130.971 30.3652 131.567 30.2383 132.244 30.2383C132.713 30.2383 133.143 30.3099 133.533 30.4531C133.924 30.5898 134.259 30.8079 134.539 31.1074C134.826 31.4004 135.047 31.7845 135.203 32.2598C135.359 32.7285 135.438 33.2917 135.438 33.9492V41H132.625V34.2617C132.625 33.7799 132.56 33.4089 132.43 33.1484C132.299 32.888 132.114 32.7057 131.873 32.6016C131.639 32.4974 131.355 32.4453 131.023 32.4453C130.659 32.4453 130.34 32.5202 130.066 32.6699C129.799 32.8197 129.578 33.028 129.402 33.2949C129.227 33.5553 129.096 33.8613 129.012 34.2129C128.927 34.5645 128.885 34.9421 128.885 35.3457ZM135.174 35.0234L134.168 35.1504C134.168 34.4603 134.253 33.819 134.422 33.2266C134.598 32.6341 134.855 32.1133 135.193 31.6641C135.538 31.2148 135.965 30.8665 136.473 30.6191C136.98 30.3652 137.566 30.2383 138.23 30.2383C138.738 30.2383 139.201 30.3132 139.617 30.4629C140.034 30.6061 140.389 30.8372 140.682 31.1562C140.981 31.4688 141.209 31.8789 141.365 32.3867C141.528 32.8945 141.609 33.5163 141.609 34.252V41H138.787V34.252C138.787 33.7637 138.722 33.3926 138.592 33.1387C138.468 32.8783 138.286 32.6992 138.045 32.6016C137.811 32.4974 137.531 32.4453 137.205 32.4453C136.867 32.4453 136.57 32.5137 136.316 32.6504C136.062 32.7806 135.851 32.9629 135.682 33.1973C135.512 33.4316 135.385 33.7051 135.301 34.0176C135.216 34.3236 135.174 34.6589 135.174 35.0234ZM148.65 41.1953C147.83 41.1953 147.094 41.0651 146.443 40.8047C145.792 40.5378 145.239 40.1699 144.783 39.7012C144.334 39.2324 143.989 38.6888 143.748 38.0703C143.507 37.4453 143.387 36.7812 143.387 36.0781V35.6875C143.387 34.8867 143.501 34.1543 143.729 33.4902C143.956 32.8262 144.282 32.25 144.705 31.7617C145.135 31.2734 145.656 30.8991 146.268 30.6387C146.88 30.3717 147.57 30.2383 148.338 30.2383C149.087 30.2383 149.751 30.362 150.33 30.6094C150.91 30.8568 151.395 31.2083 151.785 31.6641C152.182 32.1198 152.482 32.6667 152.684 33.3047C152.885 33.9362 152.986 34.6393 152.986 35.4141V36.5859H144.588V34.7109H150.223V34.4961C150.223 34.1055 150.151 33.7572 150.008 33.4512C149.871 33.1387 149.663 32.8913 149.383 32.709C149.103 32.5267 148.745 32.4355 148.309 32.4355C147.938 32.4355 147.618 32.5169 147.352 32.6797C147.085 32.8424 146.867 33.0703 146.697 33.3633C146.535 33.6562 146.411 34.0013 146.326 34.3984C146.248 34.7891 146.209 35.2188 146.209 35.6875V36.0781C146.209 36.5013 146.268 36.8919 146.385 37.25C146.508 37.6081 146.681 37.9173 146.902 38.1777C147.13 38.4382 147.404 38.64 147.723 38.7832C148.048 38.9264 148.416 38.998 148.826 38.998C149.334 38.998 149.806 38.9004 150.242 38.7051C150.685 38.5033 151.066 38.2005 151.385 37.7969L152.752 39.2812C152.531 39.6003 152.228 39.9062 151.844 40.1992C151.466 40.4922 151.01 40.7331 150.477 40.9219C149.943 41.1042 149.334 41.1953 148.65 41.1953ZM154.695 39.6426C154.695 39.2259 154.839 38.8776 155.125 38.5977C155.418 38.3177 155.805 38.1777 156.287 38.1777C156.769 38.1777 157.153 38.3177 157.439 38.5977C157.732 38.8776 157.879 39.2259 157.879 39.6426C157.879 40.0592 157.732 40.4076 157.439 40.6875C157.153 40.9674 156.769 41.1074 156.287 41.1074C155.805 41.1074 155.418 40.9674 155.125 40.6875C154.839 40.4076 154.695 40.0592 154.695 39.6426ZM154.695 31.5859C154.695 31.1693 154.839 30.821 155.125 30.541C155.418 30.2611 155.805 30.1211 156.287 30.1211C156.769 30.1211 157.153 30.2611 157.439 30.541C157.732 30.821 157.879 31.1693 157.879 31.5859C157.879 32.0026 157.732 32.3509 157.439 32.6309C157.153 32.9108 156.769 33.0508 156.287 33.0508C155.805 33.0508 155.418 32.9108 155.125 32.6309C154.839 32.3509 154.695 32.0026 154.695 31.5859Z" fill="#403D3D"/>
<path d="M67.2646 90.1758C66.6025 90.1758 66.002 90.0645 65.4629 89.8418C64.9297 89.6133 64.4697 89.2939 64.083 88.8838C63.7021 88.4736 63.4092 87.9873 63.2041 87.4248C62.999 86.8623 62.8965 86.2471 62.8965 85.5791V85.21C62.8965 84.4365 63.0107 83.748 63.2393 83.1445C63.4678 82.5352 63.7783 82.0195 64.1709 81.5977C64.5635 81.1758 65.0088 80.8564 65.5068 80.6396C66.0049 80.4229 66.5205 80.3145 67.0537 80.3145C67.7334 80.3145 68.3193 80.4316 68.8115 80.666C69.3096 80.9004 69.7168 81.2285 70.0332 81.6504C70.3496 82.0664 70.584 82.5586 70.7363 83.127C70.8887 83.6895 70.9648 84.3047 70.9648 84.9727V85.7021H63.8633V84.375H69.3389V84.252C69.3154 83.8301 69.2275 83.4199 69.0752 83.0215C68.9287 82.623 68.6943 82.2949 68.3721 82.0371C68.0498 81.7793 67.6104 81.6504 67.0537 81.6504C66.6846 81.6504 66.3447 81.7295 66.0342 81.8877C65.7236 82.04 65.457 82.2686 65.2344 82.5732C65.0117 82.8779 64.8389 83.25 64.7158 83.6895C64.5928 84.1289 64.5312 84.6357 64.5312 85.21V85.5791C64.5312 86.0303 64.5928 86.4551 64.7158 86.8535C64.8447 87.2461 65.0293 87.5918 65.2695 87.8906C65.5156 88.1895 65.8115 88.4238 66.1572 88.5938C66.5088 88.7637 66.9072 88.8486 67.3525 88.8486C67.9268 88.8486 68.4131 88.7314 68.8115 88.4971C69.21 88.2627 69.5586 87.9492 69.8574 87.5566L70.8418 88.3389C70.6367 88.6494 70.376 88.9453 70.0596 89.2266C69.7432 89.5078 69.3535 89.7363 68.8906 89.9121C68.4336 90.0879 67.8916 90.1758 67.2646 90.1758ZM74.4893 82.5205V90H72.8633V80.4902H74.4014L74.4893 82.5205ZM74.1025 84.8848L73.4258 84.8584C73.4316 84.208 73.5283 83.6074 73.7158 83.0566C73.9033 82.5 74.167 82.0166 74.5068 81.6064C74.8467 81.1963 75.251 80.8799 75.7197 80.6572C76.1943 80.4287 76.7188 80.3145 77.293 80.3145C77.7617 80.3145 78.1836 80.3789 78.5586 80.5078C78.9336 80.6309 79.2529 80.8301 79.5166 81.1055C79.7861 81.3809 79.9912 81.7383 80.1318 82.1777C80.2725 82.6113 80.3428 83.1416 80.3428 83.7686V90H78.708V83.751C78.708 83.2529 78.6348 82.8545 78.4883 82.5557C78.3418 82.251 78.1279 82.0312 77.8467 81.8965C77.5654 81.7559 77.2197 81.6855 76.8096 81.6855C76.4053 81.6855 76.0361 81.7705 75.7021 81.9404C75.374 82.1104 75.0898 82.3447 74.8496 82.6436C74.6152 82.9424 74.4307 83.2852 74.2959 83.6719C74.167 84.0527 74.1025 84.457 74.1025 84.8848ZM86.7939 80.4902V81.7383H81.6523V80.4902H86.7939ZM83.3926 78.1787H85.0186V87.6445C85.0186 87.9668 85.0684 88.21 85.168 88.374C85.2676 88.5381 85.3965 88.6465 85.5547 88.6992C85.7129 88.752 85.8828 88.7783 86.0645 88.7783C86.1992 88.7783 86.3398 88.7666 86.4863 88.7432C86.6387 88.7139 86.7529 88.6904 86.8291 88.6729L86.8379 90C86.709 90.041 86.5391 90.0791 86.3281 90.1143C86.123 90.1553 85.874 90.1758 85.5811 90.1758C85.1826 90.1758 84.8164 90.0967 84.4824 89.9385C84.1484 89.7803 83.8818 89.5166 83.6826 89.1475C83.4893 88.7725 83.3926 88.2686 83.3926 87.6357V78.1787ZM90.3271 81.9844V90H88.7012V80.4902H90.2832L90.3271 81.9844ZM93.2979 80.4375L93.2891 81.9492C93.1543 81.9199 93.0254 81.9023 92.9023 81.8965C92.7852 81.8848 92.6504 81.8789 92.498 81.8789C92.123 81.8789 91.792 81.9375 91.5049 82.0547C91.2178 82.1719 90.9746 82.3359 90.7754 82.5469C90.5762 82.7578 90.418 83.0098 90.3008 83.3027C90.1895 83.5898 90.1162 83.9062 90.0811 84.252L89.624 84.5156C89.624 83.9414 89.6797 83.4023 89.791 82.8984C89.9082 82.3945 90.0869 81.9492 90.3271 81.5625C90.5674 81.1699 90.8721 80.8652 91.2412 80.6484C91.6162 80.4258 92.0615 80.3145 92.5771 80.3145C92.6943 80.3145 92.8291 80.3291 92.9814 80.3584C93.1338 80.3818 93.2393 80.4082 93.2979 80.4375ZM98.5713 90.1758C97.9092 90.1758 97.3086 90.0645 96.7695 89.8418C96.2363 89.6133 95.7764 89.2939 95.3896 88.8838C95.0088 88.4736 94.7158 87.9873 94.5107 87.4248C94.3057 86.8623 94.2031 86.2471 94.2031 85.5791V85.21C94.2031 84.4365 94.3174 83.748 94.5459 83.1445C94.7744 82.5352 95.085 82.0195 95.4775 81.5977C95.8701 81.1758 96.3154 80.8564 96.8135 80.6396C97.3115 80.4229 97.8271 80.3145 98.3604 80.3145C99.04 80.3145 99.626 80.4316 100.118 80.666C100.616 80.9004 101.023 81.2285 101.34 81.6504C101.656 82.0664 101.891 82.5586 102.043 83.127C102.195 83.6895 102.271 84.3047 102.271 84.9727V85.7021H95.1699V84.375H100.646V84.252C100.622 83.8301 100.534 83.4199 100.382 83.0215C100.235 82.623 100.001 82.2949 99.6787 82.0371C99.3564 81.7793 98.917 81.6504 98.3604 81.6504C97.9912 81.6504 97.6514 81.7295 97.3408 81.8877C97.0303 82.04 96.7637 82.2686 96.541 82.5732C96.3184 82.8779 96.1455 83.25 96.0225 83.6895C95.8994 84.1289 95.8379 84.6357 95.8379 85.21V85.5791C95.8379 86.0303 95.8994 86.4551 96.0225 86.8535C96.1514 87.2461 96.3359 87.5918 96.5762 87.8906C96.8223 88.1895 97.1182 88.4238 97.4639 88.5938C97.8154 88.7637 98.2139 88.8486 98.6592 88.8486C99.2334 88.8486 99.7197 88.7314 100.118 88.4971C100.517 88.2627 100.865 87.9492 101.164 87.5566L102.148 88.3389C101.943 88.6494 101.683 88.9453 101.366 89.2266C101.05 89.5078 100.66 89.7363 100.197 89.9121C99.7402 90.0879 99.1982 90.1758 98.5713 90.1758ZM110.331 80.4902H111.808V89.7979C111.808 90.6357 111.638 91.3506 111.298 91.9424C110.958 92.5342 110.483 92.9824 109.874 93.2871C109.271 93.5977 108.573 93.7529 107.782 93.7529C107.454 93.7529 107.067 93.7002 106.622 93.5947C106.183 93.4951 105.749 93.3223 105.321 93.0762C104.899 92.8359 104.545 92.5107 104.258 92.1006L105.11 91.1338C105.509 91.6143 105.925 91.9482 106.358 92.1357C106.798 92.3232 107.231 92.417 107.659 92.417C108.175 92.417 108.62 92.3203 108.995 92.127C109.37 91.9336 109.66 91.6465 109.865 91.2656C110.076 90.8906 110.182 90.4277 110.182 89.877V82.582L110.331 80.4902ZM103.783 85.3506V85.166C103.783 84.4395 103.868 83.7803 104.038 83.1885C104.214 82.5908 104.463 82.0781 104.785 81.6504C105.113 81.2227 105.509 80.8945 105.972 80.666C106.435 80.4316 106.956 80.3145 107.536 80.3145C108.134 80.3145 108.655 80.4199 109.101 80.6309C109.552 80.8359 109.933 81.1377 110.243 81.5361C110.56 81.9287 110.809 82.4033 110.99 82.96C111.172 83.5166 111.298 84.1465 111.368 84.8496V85.6582C111.304 86.3555 111.178 86.9824 110.99 87.5391C110.809 88.0957 110.56 88.5703 110.243 88.9629C109.933 89.3555 109.552 89.6572 109.101 89.8682C108.649 90.0732 108.122 90.1758 107.519 90.1758C106.95 90.1758 106.435 90.0557 105.972 89.8154C105.515 89.5752 105.122 89.2383 104.794 88.8047C104.466 88.3711 104.214 87.8613 104.038 87.2754C103.868 86.6836 103.783 86.042 103.783 85.3506ZM105.409 85.166V85.3506C105.409 85.8252 105.456 86.2705 105.55 86.6865C105.649 87.1025 105.799 87.4688 105.998 87.7852C106.203 88.1016 106.464 88.3506 106.78 88.5322C107.097 88.708 107.475 88.7959 107.914 88.7959C108.453 88.7959 108.898 88.6816 109.25 88.4531C109.602 88.2246 109.88 87.9229 110.085 87.5479C110.296 87.1729 110.46 86.7656 110.577 86.3262V84.208C110.513 83.8857 110.413 83.5752 110.278 83.2764C110.149 82.9717 109.979 82.7021 109.769 82.4678C109.563 82.2275 109.309 82.0371 109.004 81.8965C108.699 81.7559 108.342 81.6855 107.932 81.6855C107.486 81.6855 107.103 81.7793 106.78 81.9668C106.464 82.1484 106.203 82.4004 105.998 82.7227C105.799 83.0391 105.649 83.4082 105.55 83.8301C105.456 84.2461 105.409 84.6914 105.409 85.166ZM119.885 88.374V83.4785C119.885 83.1035 119.809 82.7783 119.656 82.5029C119.51 82.2217 119.287 82.0049 118.988 81.8525C118.689 81.7002 118.32 81.624 117.881 81.624C117.471 81.624 117.11 81.6943 116.8 81.835C116.495 81.9756 116.255 82.1602 116.079 82.3887C115.909 82.6172 115.824 82.8633 115.824 83.127H114.198C114.198 82.7871 114.286 82.4502 114.462 82.1162C114.638 81.7822 114.89 81.4805 115.218 81.2109C115.552 80.9355 115.95 80.7188 116.413 80.5605C116.882 80.3965 117.403 80.3145 117.978 80.3145C118.669 80.3145 119.278 80.4316 119.806 80.666C120.339 80.9004 120.755 81.2549 121.054 81.7295C121.358 82.1982 121.511 82.7871 121.511 83.4961V87.9258C121.511 88.2422 121.537 88.5791 121.59 88.9365C121.648 89.2939 121.733 89.6016 121.845 89.8594V90H120.148C120.066 89.8125 120.002 89.5635 119.955 89.2529C119.908 88.9365 119.885 88.6436 119.885 88.374ZM120.166 84.2344L120.184 85.377H118.54C118.077 85.377 117.664 85.415 117.301 85.4912C116.938 85.5615 116.633 85.6699 116.387 85.8164C116.141 85.9629 115.953 86.1475 115.824 86.3701C115.695 86.5869 115.631 86.8418 115.631 87.1348C115.631 87.4336 115.698 87.7061 115.833 87.9521C115.968 88.1982 116.17 88.3945 116.439 88.541C116.715 88.6816 117.052 88.752 117.45 88.752C117.948 88.752 118.388 88.6465 118.769 88.4355C119.149 88.2246 119.451 87.9668 119.674 87.6621C119.902 87.3574 120.025 87.0615 120.043 86.7744L120.737 87.5566C120.696 87.8027 120.585 88.0752 120.403 88.374C120.222 88.6729 119.979 88.96 119.674 89.2354C119.375 89.5049 119.018 89.7305 118.602 89.9121C118.191 90.0879 117.729 90.1758 117.213 90.1758C116.568 90.1758 116.003 90.0498 115.517 89.7979C115.036 89.5459 114.661 89.209 114.392 88.7871C114.128 88.3594 113.996 87.8818 113.996 87.3545C113.996 86.8447 114.096 86.3965 114.295 86.0098C114.494 85.6172 114.781 85.292 115.156 85.0342C115.531 84.7705 115.982 84.5713 116.51 84.4365C117.037 84.3018 117.626 84.2344 118.276 84.2344H120.166ZM123.998 89.1387C123.998 88.8633 124.083 88.6318 124.253 88.4443C124.429 88.251 124.681 88.1543 125.009 88.1543C125.337 88.1543 125.586 88.251 125.756 88.4443C125.932 88.6318 126.02 88.8633 126.02 89.1387C126.02 89.4082 125.932 89.6367 125.756 89.8242C125.586 90.0117 125.337 90.1055 125.009 90.1055C124.681 90.1055 124.429 90.0117 124.253 89.8242C124.083 89.6367 123.998 89.4082 123.998 89.1387ZM124.007 81.3779C124.007 81.1025 124.092 80.8711 124.262 80.6836C124.438 80.4902 124.689 80.3936 125.018 80.3936C125.346 80.3936 125.595 80.4902 125.765 80.6836C125.94 80.8711 126.028 81.1025 126.028 81.3779C126.028 81.6475 125.94 81.876 125.765 82.0635C125.595 82.251 125.346 82.3447 125.018 82.3447C124.689 82.3447 124.438 82.251 124.262 82.0635C124.092 81.876 124.007 81.6475 124.007 81.3779ZM133.139 77.2031H137.375C138.336 77.2031 139.147 77.3496 139.81 77.6426C140.478 77.9355 140.984 78.3691 141.33 78.9434C141.682 79.5117 141.857 80.2119 141.857 81.0439C141.857 81.6299 141.737 82.166 141.497 82.6523C141.263 83.1328 140.923 83.543 140.478 83.8828C140.038 84.2168 139.511 84.4658 138.896 84.6299L138.421 84.8145H134.439L134.422 83.4346H137.428C138.037 83.4346 138.544 83.3291 138.948 83.1182C139.353 82.9014 139.657 82.6113 139.862 82.248C140.067 81.8848 140.17 81.4834 140.17 81.0439C140.17 80.5518 140.073 80.1211 139.88 79.752C139.687 79.3828 139.382 79.0986 138.966 78.8994C138.556 78.6943 138.025 78.5918 137.375 78.5918H134.835V90H133.139V77.2031ZM140.618 90L137.507 84.1992L139.273 84.1904L142.429 89.8945V90H140.618ZM148.669 75.1289V77.8096H147.351V75.1289H148.669ZM148.511 89.4814V91.8281H147.201V89.4814H148.511ZM150.269 86.7041C150.269 86.3525 150.189 86.0361 150.031 85.7549C149.873 85.4736 149.612 85.2158 149.249 84.9814C148.886 84.7471 148.399 84.5303 147.79 84.3311C147.052 84.1025 146.413 83.8242 145.874 83.4961C145.341 83.168 144.928 82.7607 144.635 82.2744C144.348 81.7881 144.204 81.1992 144.204 80.5078C144.204 79.7871 144.359 79.166 144.67 78.6445C144.98 78.123 145.42 77.7217 145.988 77.4404C146.557 77.1592 147.225 77.0186 147.992 77.0186C148.59 77.0186 149.123 77.1094 149.592 77.291C150.061 77.4668 150.456 77.7305 150.778 78.082C151.106 78.4336 151.355 78.8643 151.525 79.374C151.701 79.8838 151.789 80.4727 151.789 81.1406H150.172C150.172 80.748 150.125 80.3877 150.031 80.0596C149.938 79.7314 149.797 79.4473 149.609 79.207C149.422 78.9609 149.193 78.7734 148.924 78.6445C148.654 78.5098 148.344 78.4424 147.992 78.4424C147.5 78.4424 147.093 78.5273 146.771 78.6973C146.454 78.8672 146.22 79.1074 146.067 79.418C145.915 79.7227 145.839 80.0771 145.839 80.4814C145.839 80.8564 145.915 81.1846 146.067 81.4658C146.22 81.7471 146.478 82.002 146.841 82.2305C147.21 82.4531 147.717 82.6729 148.361 82.8896C149.117 83.1299 149.759 83.4141 150.286 83.7422C150.813 84.0645 151.215 84.4629 151.49 84.9375C151.766 85.4062 151.903 85.9893 151.903 86.6865C151.903 87.4424 151.733 88.0811 151.394 88.6025C151.054 89.1182 150.576 89.5107 149.961 89.7803C149.346 90.0498 148.625 90.1846 147.799 90.1846C147.301 90.1846 146.809 90.1172 146.322 89.9824C145.836 89.8477 145.396 89.6279 145.004 89.3232C144.611 89.0127 144.298 88.6055 144.063 88.1016C143.829 87.5918 143.712 86.9678 143.712 86.2295H145.347C145.347 86.7275 145.417 87.1406 145.558 87.4688C145.704 87.791 145.897 88.0488 146.138 88.2422C146.378 88.4297 146.642 88.5645 146.929 88.6465C147.222 88.7227 147.512 88.7607 147.799 88.7607C148.326 88.7607 148.771 88.6787 149.135 88.5146C149.504 88.3447 149.785 88.1045 149.979 87.7939C150.172 87.4834 150.269 87.1201 150.269 86.7041ZM159.277 77.1328V90H157.651V79.1631L154.373 80.3584V78.8906L159.022 77.1328H159.277ZM172.707 85.6934V87.0293H163.461V86.0713L169.191 77.2031H170.519L169.095 79.7695L165.307 85.6934H172.707ZM170.923 77.2031V90H169.297V77.2031H170.923ZM175.836 88.0664V89.376C175.836 89.9092 175.701 90.4717 175.432 91.0635C175.162 91.6611 174.784 92.1592 174.298 92.5576L173.375 91.916C173.562 91.6582 173.721 91.3945 173.85 91.125C173.979 90.8613 174.075 90.5859 174.14 90.2988C174.21 90.0176 174.245 89.7188 174.245 89.4023V88.0664H175.836ZM179.352 88.6377H179.519C180.456 88.6377 181.218 88.5059 181.804 88.2422C182.39 87.9785 182.841 87.624 183.157 87.1787C183.474 86.7334 183.69 86.2324 183.808 85.6758C183.925 85.1133 183.983 84.5361 183.983 83.9443V81.9844C183.983 81.4043 183.916 80.8887 183.781 80.4375C183.652 79.9863 183.471 79.6084 183.236 79.3037C183.008 78.999 182.747 78.7676 182.454 78.6094C182.161 78.4512 181.851 78.3721 181.522 78.3721C181.147 78.3721 180.811 78.4482 180.512 78.6006C180.219 78.7471 179.97 78.9551 179.765 79.2246C179.565 79.4941 179.413 79.8105 179.308 80.1738C179.202 80.5371 179.149 80.9326 179.149 81.3604C179.149 81.7412 179.196 82.1104 179.29 82.4678C179.384 82.8252 179.527 83.1475 179.721 83.4346C179.914 83.7217 180.154 83.9502 180.441 84.1201C180.734 84.2842 181.077 84.3662 181.47 84.3662C181.833 84.3662 182.173 84.2959 182.489 84.1553C182.812 84.0088 183.096 83.8125 183.342 83.5664C183.594 83.3145 183.793 83.0303 183.939 82.7139C184.092 82.3975 184.18 82.0664 184.203 81.7207H184.977C184.977 82.207 184.88 82.6875 184.687 83.1621C184.499 83.6309 184.235 84.0586 183.896 84.4453C183.556 84.832 183.157 85.1426 182.7 85.377C182.243 85.6055 181.745 85.7197 181.206 85.7197C180.573 85.7197 180.025 85.5967 179.562 85.3506C179.1 85.1045 178.719 84.7764 178.42 84.3662C178.127 83.9561 177.907 83.499 177.761 82.9951C177.62 82.4854 177.55 81.9697 177.55 81.4482C177.55 80.8389 177.635 80.2676 177.805 79.7344C177.975 79.2012 178.227 78.7324 178.561 78.3281C178.895 77.918 179.308 77.5986 179.8 77.3701C180.298 77.1416 180.872 77.0273 181.522 77.0273C182.255 77.0273 182.879 77.1738 183.395 77.4668C183.91 77.7598 184.329 78.1523 184.651 78.6445C184.979 79.1367 185.22 79.6904 185.372 80.3057C185.524 80.9209 185.601 81.5537 185.601 82.2041V82.793C185.601 83.4551 185.557 84.1289 185.469 84.8145C185.387 85.4941 185.226 86.1445 184.985 86.7656C184.751 87.3867 184.408 87.9434 183.957 88.4355C183.506 88.9219 182.917 89.3086 182.19 89.5957C181.47 89.877 180.579 90.0176 179.519 90.0176H179.352V88.6377ZM195.893 82.582V84.5332C195.893 85.582 195.799 86.4668 195.611 87.1875C195.424 87.9082 195.154 88.4883 194.803 88.9277C194.451 89.3672 194.026 89.6865 193.528 89.8857C193.036 90.0791 192.479 90.1758 191.858 90.1758C191.366 90.1758 190.912 90.1143 190.496 89.9912C190.08 89.8682 189.705 89.6719 189.371 89.4023C189.043 89.127 188.762 88.7695 188.527 88.3301C188.293 87.8906 188.114 87.3574 187.991 86.7305C187.868 86.1035 187.807 85.3711 187.807 84.5332V82.582C187.807 81.5332 187.9 80.6543 188.088 79.9453C188.281 79.2363 188.554 78.668 188.905 78.2402C189.257 77.8066 189.679 77.4961 190.171 77.3086C190.669 77.1211 191.226 77.0273 191.841 77.0273C192.339 77.0273 192.796 77.0889 193.212 77.2119C193.634 77.3291 194.009 77.5195 194.337 77.7832C194.665 78.041 194.943 78.3867 195.172 78.8203C195.406 79.248 195.585 79.7725 195.708 80.3936C195.831 81.0146 195.893 81.7441 195.893 82.582ZM194.258 84.7969V82.3096C194.258 81.7354 194.223 81.2314 194.152 80.7979C194.088 80.3584 193.991 79.9834 193.862 79.6729C193.733 79.3623 193.569 79.1104 193.37 78.917C193.177 78.7236 192.951 78.583 192.693 78.4951C192.441 78.4014 192.157 78.3545 191.841 78.3545C191.454 78.3545 191.111 78.4277 190.812 78.5742C190.514 78.7148 190.262 78.9404 190.057 79.251C189.857 79.5615 189.705 79.9688 189.6 80.4727C189.494 80.9766 189.441 81.5889 189.441 82.3096V84.7969C189.441 85.3711 189.474 85.8779 189.538 86.3174C189.608 86.7568 189.711 87.1377 189.846 87.46C189.98 87.7764 190.145 88.0371 190.338 88.2422C190.531 88.4473 190.754 88.5996 191.006 88.6992C191.264 88.793 191.548 88.8398 191.858 88.8398C192.257 88.8398 192.605 88.7637 192.904 88.6113C193.203 88.459 193.452 88.2217 193.651 87.8994C193.856 87.5713 194.009 87.1523 194.108 86.6426C194.208 86.127 194.258 85.5117 194.258 84.7969Z" fill="#403D3D"/>
<path d="M34.499 108.5H36.1338V120.154L35.9932 122H34.499V108.5ZM42.5586 117.166V117.351C42.5586 118.042 42.4766 118.684 42.3125 119.275C42.1484 119.861 41.9082 120.371 41.5918 120.805C41.2754 121.238 40.8887 121.575 40.4316 121.815C39.9746 122.056 39.4502 122.176 38.8584 122.176C38.2549 122.176 37.7246 122.073 37.2676 121.868C36.8164 121.657 36.4355 121.355 36.125 120.963C35.8145 120.57 35.5654 120.096 35.3779 119.539C35.1963 118.982 35.0703 118.355 35 117.658V116.85C35.0703 116.146 35.1963 115.517 35.3779 114.96C35.5654 114.403 35.8145 113.929 36.125 113.536C36.4355 113.138 36.8164 112.836 37.2676 112.631C37.7188 112.42 38.2432 112.314 38.8408 112.314C39.4385 112.314 39.9688 112.432 40.4316 112.666C40.8945 112.895 41.2812 113.223 41.5918 113.65C41.9082 114.078 42.1484 114.591 42.3125 115.188C42.4766 115.78 42.5586 116.439 42.5586 117.166ZM40.9238 117.351V117.166C40.9238 116.691 40.8799 116.246 40.792 115.83C40.7041 115.408 40.5635 115.039 40.3701 114.723C40.1768 114.4 39.9219 114.148 39.6055 113.967C39.2891 113.779 38.8994 113.686 38.4365 113.686C38.0264 113.686 37.6689 113.756 37.3643 113.896C37.0654 114.037 36.8105 114.228 36.5996 114.468C36.3887 114.702 36.2158 114.972 36.0811 115.276C35.9521 115.575 35.8555 115.886 35.791 116.208V118.326C35.8848 118.736 36.0371 119.132 36.248 119.513C36.4648 119.888 36.752 120.195 37.1094 120.436C37.4727 120.676 37.9209 120.796 38.4541 120.796C38.8936 120.796 39.2686 120.708 39.5791 120.532C39.8955 120.351 40.1504 120.102 40.3438 119.785C40.543 119.469 40.6895 119.103 40.7832 118.687C40.877 118.271 40.9238 117.825 40.9238 117.351ZM48.5615 122.176C47.8994 122.176 47.2988 122.064 46.7598 121.842C46.2266 121.613 45.7666 121.294 45.3799 120.884C44.999 120.474 44.7061 119.987 44.501 119.425C44.2959 118.862 44.1934 118.247 44.1934 117.579V117.21C44.1934 116.437 44.3076 115.748 44.5361 115.145C44.7646 114.535 45.0752 114.02 45.4678 113.598C45.8604 113.176 46.3057 112.856 46.8037 112.64C47.3018 112.423 47.8174 112.314 48.3506 112.314C49.0303 112.314 49.6162 112.432 50.1084 112.666C50.6064 112.9 51.0137 113.229 51.3301 113.65C51.6465 114.066 51.8809 114.559 52.0332 115.127C52.1855 115.689 52.2617 116.305 52.2617 116.973V117.702H45.1602V116.375H50.6357V116.252C50.6123 115.83 50.5244 115.42 50.3721 115.021C50.2256 114.623 49.9912 114.295 49.6689 114.037C49.3467 113.779 48.9072 113.65 48.3506 113.65C47.9814 113.65 47.6416 113.729 47.3311 113.888C47.0205 114.04 46.7539 114.269 46.5312 114.573C46.3086 114.878 46.1357 115.25 46.0127 115.689C45.8896 116.129 45.8281 116.636 45.8281 117.21V117.579C45.8281 118.03 45.8896 118.455 46.0127 118.854C46.1416 119.246 46.3262 119.592 46.5664 119.891C46.8125 120.189 47.1084 120.424 47.4541 120.594C47.8057 120.764 48.2041 120.849 48.6494 120.849C49.2236 120.849 49.71 120.731 50.1084 120.497C50.5068 120.263 50.8555 119.949 51.1543 119.557L52.1387 120.339C51.9336 120.649 51.6729 120.945 51.3564 121.227C51.04 121.508 50.6504 121.736 50.1875 121.912C49.7305 122.088 49.1885 122.176 48.5615 122.176ZM55.7861 114.521V122H54.1602V112.49H55.6982L55.7861 114.521ZM55.3994 116.885L54.7227 116.858C54.7285 116.208 54.8252 115.607 55.0127 115.057C55.2002 114.5 55.4639 114.017 55.8037 113.606C56.1436 113.196 56.5479 112.88 57.0166 112.657C57.4912 112.429 58.0156 112.314 58.5898 112.314C59.0586 112.314 59.4805 112.379 59.8555 112.508C60.2305 112.631 60.5498 112.83 60.8135 113.105C61.083 113.381 61.2881 113.738 61.4287 114.178C61.5693 114.611 61.6396 115.142 61.6396 115.769V122H60.0049V115.751C60.0049 115.253 59.9316 114.854 59.7852 114.556C59.6387 114.251 59.4248 114.031 59.1436 113.896C58.8623 113.756 58.5166 113.686 58.1064 113.686C57.7021 113.686 57.333 113.771 56.999 113.94C56.6709 114.11 56.3867 114.345 56.1465 114.644C55.9121 114.942 55.7275 115.285 55.5928 115.672C55.4639 116.053 55.3994 116.457 55.3994 116.885ZM68.0557 122.176C67.3936 122.176 66.793 122.064 66.2539 121.842C65.7207 121.613 65.2607 121.294 64.874 120.884C64.4932 120.474 64.2002 119.987 63.9951 119.425C63.79 118.862 63.6875 118.247 63.6875 117.579V117.21C63.6875 116.437 63.8018 115.748 64.0303 115.145C64.2588 114.535 64.5693 114.02 64.9619 113.598C65.3545 113.176 65.7998 112.856 66.2979 112.64C66.7959 112.423 67.3115 112.314 67.8447 112.314C68.5244 112.314 69.1104 112.432 69.6025 112.666C70.1006 112.9 70.5078 113.229 70.8242 113.65C71.1406 114.066 71.375 114.559 71.5273 115.127C71.6797 115.689 71.7559 116.305 71.7559 116.973V117.702H64.6543V116.375H70.1299V116.252C70.1064 115.83 70.0186 115.42 69.8662 115.021C69.7197 114.623 69.4854 114.295 69.1631 114.037C68.8408 113.779 68.4014 113.65 67.8447 113.65C67.4756 113.65 67.1357 113.729 66.8252 113.888C66.5146 114.04 66.248 114.269 66.0254 114.573C65.8027 114.878 65.6299 115.25 65.5068 115.689C65.3838 116.129 65.3223 116.636 65.3223 117.21V117.579C65.3223 118.03 65.3838 118.455 65.5068 118.854C65.6357 119.246 65.8203 119.592 66.0605 119.891C66.3066 120.189 66.6025 120.424 66.9482 120.594C67.2998 120.764 67.6982 120.849 68.1436 120.849C68.7178 120.849 69.2041 120.731 69.6025 120.497C70.001 120.263 70.3496 119.949 70.6484 119.557L71.6328 120.339C71.4277 120.649 71.167 120.945 70.8506 121.227C70.5342 121.508 70.1445 121.736 69.6816 121.912C69.2246 122.088 68.6826 122.176 68.0557 122.176ZM76.0801 122H74.4541V111.488C74.4541 110.803 74.5771 110.226 74.8232 109.757C75.0752 109.282 75.4355 108.925 75.9043 108.685C76.373 108.438 76.9297 108.315 77.5742 108.315C77.7617 108.315 77.9492 108.327 78.1367 108.351C78.3301 108.374 78.5176 108.409 78.6992 108.456L78.6113 109.783C78.4883 109.754 78.3477 109.733 78.1895 109.722C78.0371 109.71 77.8848 109.704 77.7324 109.704C77.3867 109.704 77.0879 109.774 76.8359 109.915C76.5898 110.05 76.4023 110.249 76.2734 110.513C76.1445 110.776 76.0801 111.102 76.0801 111.488V122ZM78.1016 112.49V113.738H72.9512V112.49H78.1016ZM81.6699 112.49V122H80.0439V112.49H81.6699ZM79.9912 111.102L81.6963 108.518H83.6562L81.3008 111.102H79.9912ZM88.1826 120.84C88.5693 120.84 88.9268 120.761 89.2549 120.603C89.583 120.444 89.8525 120.228 90.0635 119.952C90.2744 119.671 90.3945 119.352 90.4238 118.994H91.9707C91.9414 119.557 91.751 120.081 91.3994 120.567C91.0537 121.048 90.5996 121.438 90.0371 121.736C89.4746 122.029 88.8564 122.176 88.1826 122.176C87.4678 122.176 86.8438 122.05 86.3105 121.798C85.7832 121.546 85.3438 121.2 84.9922 120.761C84.6465 120.321 84.3857 119.817 84.21 119.249C84.04 118.675 83.9551 118.068 83.9551 117.43V117.061C83.9551 116.422 84.04 115.818 84.21 115.25C84.3857 114.676 84.6465 114.169 84.9922 113.729C85.3438 113.29 85.7832 112.944 86.3105 112.692C86.8438 112.44 87.4678 112.314 88.1826 112.314C88.9268 112.314 89.5771 112.467 90.1338 112.771C90.6904 113.07 91.127 113.48 91.4434 114.002C91.7656 114.518 91.9414 115.104 91.9707 115.76H90.4238C90.3945 115.367 90.2832 115.013 90.0898 114.696C89.9023 114.38 89.6445 114.128 89.3164 113.94C88.9941 113.747 88.6162 113.65 88.1826 113.65C87.6846 113.65 87.2656 113.75 86.9258 113.949C86.5918 114.143 86.3252 114.406 86.126 114.74C85.9326 115.068 85.792 115.435 85.7041 115.839C85.6221 116.237 85.5811 116.645 85.5811 117.061V117.43C85.5811 117.846 85.6221 118.256 85.7041 118.66C85.7861 119.064 85.9238 119.431 86.1172 119.759C86.3164 120.087 86.583 120.351 86.917 120.55C87.2568 120.743 87.6787 120.84 88.1826 120.84ZM95.5654 112.49V122H93.9307V112.49H95.5654ZM93.8076 109.968C93.8076 109.704 93.8867 109.481 94.0449 109.3C94.209 109.118 94.4492 109.027 94.7656 109.027C95.0762 109.027 95.3135 109.118 95.4775 109.3C95.6475 109.481 95.7324 109.704 95.7324 109.968C95.7324 110.22 95.6475 110.437 95.4775 110.618C95.3135 110.794 95.0762 110.882 94.7656 110.882C94.4492 110.882 94.209 110.794 94.0449 110.618C93.8867 110.437 93.8076 110.22 93.8076 109.968ZM97.7451 117.351V117.148C97.7451 116.463 97.8447 115.827 98.0439 115.241C98.2432 114.649 98.5303 114.137 98.9053 113.703C99.2803 113.264 99.7344 112.924 100.268 112.684C100.801 112.438 101.398 112.314 102.061 112.314C102.729 112.314 103.329 112.438 103.862 112.684C104.401 112.924 104.858 113.264 105.233 113.703C105.614 114.137 105.904 114.649 106.104 115.241C106.303 115.827 106.402 116.463 106.402 117.148V117.351C106.402 118.036 106.303 118.672 106.104 119.258C105.904 119.844 105.614 120.356 105.233 120.796C104.858 121.229 104.404 121.569 103.871 121.815C103.344 122.056 102.746 122.176 102.078 122.176C101.41 122.176 100.81 122.056 100.276 121.815C99.7432 121.569 99.2861 121.229 98.9053 120.796C98.5303 120.356 98.2432 119.844 98.0439 119.258C97.8447 118.672 97.7451 118.036 97.7451 117.351ZM99.3711 117.148V117.351C99.3711 117.825 99.4268 118.273 99.5381 118.695C99.6494 119.111 99.8164 119.48 100.039 119.803C100.268 120.125 100.552 120.38 100.892 120.567C101.231 120.749 101.627 120.84 102.078 120.84C102.523 120.84 102.913 120.749 103.247 120.567C103.587 120.38 103.868 120.125 104.091 119.803C104.313 119.48 104.48 119.111 104.592 118.695C104.709 118.273 104.768 117.825 104.768 117.351V117.148C104.768 116.68 104.709 116.237 104.592 115.821C104.48 115.399 104.311 115.027 104.082 114.705C103.859 114.377 103.578 114.119 103.238 113.932C102.904 113.744 102.512 113.65 102.061 113.65C101.615 113.65 101.223 113.744 100.883 113.932C100.549 114.119 100.268 114.377 100.039 114.705C99.8164 115.027 99.6494 115.399 99.5381 115.821C99.4268 116.237 99.3711 116.68 99.3711 117.148ZM113.979 119.478C113.979 119.243 113.926 119.026 113.82 118.827C113.721 118.622 113.513 118.438 113.196 118.273C112.886 118.104 112.417 117.957 111.79 117.834C111.263 117.723 110.785 117.591 110.357 117.438C109.936 117.286 109.575 117.102 109.276 116.885C108.983 116.668 108.758 116.413 108.6 116.12C108.441 115.827 108.362 115.484 108.362 115.092C108.362 114.717 108.444 114.362 108.608 114.028C108.778 113.694 109.016 113.398 109.32 113.141C109.631 112.883 110.003 112.681 110.437 112.534C110.87 112.388 111.354 112.314 111.887 112.314C112.648 112.314 113.299 112.449 113.838 112.719C114.377 112.988 114.79 113.349 115.077 113.8C115.364 114.245 115.508 114.74 115.508 115.285H113.882C113.882 115.021 113.803 114.767 113.645 114.521C113.492 114.269 113.267 114.061 112.968 113.896C112.675 113.732 112.314 113.65 111.887 113.65C111.436 113.65 111.069 113.721 110.788 113.861C110.513 113.996 110.311 114.169 110.182 114.38C110.059 114.591 109.997 114.813 109.997 115.048C109.997 115.224 110.026 115.382 110.085 115.522C110.149 115.657 110.261 115.783 110.419 115.9C110.577 116.012 110.8 116.117 111.087 116.217C111.374 116.316 111.74 116.416 112.186 116.516C112.965 116.691 113.606 116.902 114.11 117.148C114.614 117.395 114.989 117.696 115.235 118.054C115.481 118.411 115.604 118.845 115.604 119.354C115.604 119.771 115.517 120.151 115.341 120.497C115.171 120.843 114.922 121.142 114.594 121.394C114.271 121.64 113.885 121.833 113.434 121.974C112.988 122.108 112.487 122.176 111.931 122.176C111.093 122.176 110.384 122.026 109.804 121.728C109.224 121.429 108.784 121.042 108.485 120.567C108.187 120.093 108.037 119.592 108.037 119.064H109.672C109.695 119.51 109.824 119.864 110.059 120.128C110.293 120.386 110.58 120.57 110.92 120.682C111.26 120.787 111.597 120.84 111.931 120.84C112.376 120.84 112.748 120.781 113.047 120.664C113.352 120.547 113.583 120.386 113.741 120.181C113.899 119.976 113.979 119.741 113.979 119.478ZM123.972 112.49V122H122.337V112.49H123.972ZM122.214 109.968C122.214 109.704 122.293 109.481 122.451 109.3C122.615 109.118 122.855 109.027 123.172 109.027C123.482 109.027 123.72 109.118 123.884 109.3C124.054 109.481 124.139 109.704 124.139 109.968C124.139 110.22 124.054 110.437 123.884 110.618C123.72 110.794 123.482 110.882 123.172 110.882C122.855 110.882 122.615 110.794 122.451 110.618C122.293 110.437 122.214 110.22 122.214 109.968ZM128.208 114.521V122H126.582V112.49H128.12L128.208 114.521ZM127.821 116.885L127.145 116.858C127.15 116.208 127.247 115.607 127.435 115.057C127.622 114.5 127.886 114.017 128.226 113.606C128.565 113.196 128.97 112.88 129.438 112.657C129.913 112.429 130.438 112.314 131.012 112.314C131.48 112.314 131.902 112.379 132.277 112.508C132.652 112.631 132.972 112.83 133.235 113.105C133.505 113.381 133.71 113.738 133.851 114.178C133.991 114.611 134.062 115.142 134.062 115.769V122H132.427V115.751C132.427 115.253 132.354 114.854 132.207 114.556C132.061 114.251 131.847 114.031 131.565 113.896C131.284 113.756 130.938 113.686 130.528 113.686C130.124 113.686 129.755 113.771 129.421 113.94C129.093 114.11 128.809 114.345 128.568 114.644C128.334 114.942 128.149 115.285 128.015 115.672C127.886 116.053 127.821 116.457 127.821 116.885ZM142.525 120.154V108.5H144.16V122H142.666L142.525 120.154ZM136.127 117.351V117.166C136.127 116.439 136.215 115.78 136.391 115.188C136.572 114.591 136.827 114.078 137.155 113.65C137.489 113.223 137.885 112.895 138.342 112.666C138.805 112.432 139.32 112.314 139.889 112.314C140.486 112.314 141.008 112.42 141.453 112.631C141.904 112.836 142.285 113.138 142.596 113.536C142.912 113.929 143.161 114.403 143.343 114.96C143.524 115.517 143.65 116.146 143.721 116.85V117.658C143.656 118.355 143.53 118.982 143.343 119.539C143.161 120.096 142.912 120.57 142.596 120.963C142.285 121.355 141.904 121.657 141.453 121.868C141.002 122.073 140.475 122.176 139.871 122.176C139.314 122.176 138.805 122.056 138.342 121.815C137.885 121.575 137.489 121.238 137.155 120.805C136.827 120.371 136.572 119.861 136.391 119.275C136.215 118.684 136.127 118.042 136.127 117.351ZM137.762 117.166V117.351C137.762 117.825 137.809 118.271 137.902 118.687C138.002 119.103 138.154 119.469 138.359 119.785C138.564 120.102 138.825 120.351 139.142 120.532C139.458 120.708 139.836 120.796 140.275 120.796C140.814 120.796 141.257 120.682 141.603 120.453C141.954 120.225 142.235 119.923 142.446 119.548C142.657 119.173 142.821 118.766 142.938 118.326V116.208C142.868 115.886 142.766 115.575 142.631 115.276C142.502 114.972 142.332 114.702 142.121 114.468C141.916 114.228 141.661 114.037 141.356 113.896C141.058 113.756 140.703 113.686 140.293 113.686C139.848 113.686 139.464 113.779 139.142 113.967C138.825 114.148 138.564 114.4 138.359 114.723C138.154 115.039 138.002 115.408 137.902 115.83C137.809 116.246 137.762 116.691 137.762 117.166ZM148.458 112.49V122H146.823V112.49H148.458ZM146.7 109.968C146.7 109.704 146.779 109.481 146.938 109.3C147.102 109.118 147.342 109.027 147.658 109.027C147.969 109.027 148.206 109.118 148.37 109.3C148.54 109.481 148.625 109.704 148.625 109.968C148.625 110.22 148.54 110.437 148.37 110.618C148.206 110.794 147.969 110.882 147.658 110.882C147.342 110.882 147.102 110.794 146.938 110.618C146.779 110.437 146.7 110.22 146.7 109.968ZM156.605 119.478C156.605 119.243 156.553 119.026 156.447 118.827C156.348 118.622 156.14 118.438 155.823 118.273C155.513 118.104 155.044 117.957 154.417 117.834C153.89 117.723 153.412 117.591 152.984 117.438C152.562 117.286 152.202 117.102 151.903 116.885C151.61 116.668 151.385 116.413 151.227 116.12C151.068 115.827 150.989 115.484 150.989 115.092C150.989 114.717 151.071 114.362 151.235 114.028C151.405 113.694 151.643 113.398 151.947 113.141C152.258 112.883 152.63 112.681 153.063 112.534C153.497 112.388 153.98 112.314 154.514 112.314C155.275 112.314 155.926 112.449 156.465 112.719C157.004 112.988 157.417 113.349 157.704 113.8C157.991 114.245 158.135 114.74 158.135 115.285H156.509C156.509 115.021 156.43 114.767 156.271 114.521C156.119 114.269 155.894 114.061 155.595 113.896C155.302 113.732 154.941 113.65 154.514 113.65C154.062 113.65 153.696 113.721 153.415 113.861C153.14 113.996 152.938 114.169 152.809 114.38C152.686 114.591 152.624 114.813 152.624 115.048C152.624 115.224 152.653 115.382 152.712 115.522C152.776 115.657 152.888 115.783 153.046 115.9C153.204 116.012 153.427 116.117 153.714 116.217C154.001 116.316 154.367 116.416 154.812 116.516C155.592 116.691 156.233 116.902 156.737 117.148C157.241 117.395 157.616 117.696 157.862 118.054C158.108 118.411 158.231 118.845 158.231 119.354C158.231 119.771 158.144 120.151 157.968 120.497C157.798 120.843 157.549 121.142 157.221 121.394C156.898 121.64 156.512 121.833 156.061 121.974C155.615 122.108 155.114 122.176 154.558 122.176C153.72 122.176 153.011 122.026 152.431 121.728C151.851 121.429 151.411 121.042 151.112 120.567C150.813 120.093 150.664 119.592 150.664 119.064H152.299C152.322 119.51 152.451 119.864 152.686 120.128C152.92 120.386 153.207 120.57 153.547 120.682C153.887 120.787 154.224 120.84 154.558 120.84C155.003 120.84 155.375 120.781 155.674 120.664C155.979 120.547 156.21 120.386 156.368 120.181C156.526 119.976 156.605 119.741 156.605 119.478ZM161.993 114.318V125.656H160.358V112.49H161.853L161.993 114.318ZM168.4 117.166V117.351C168.4 118.042 168.318 118.684 168.154 119.275C167.99 119.861 167.75 120.371 167.434 120.805C167.123 121.238 166.739 121.575 166.282 121.815C165.825 122.056 165.301 122.176 164.709 122.176C164.105 122.176 163.572 122.076 163.109 121.877C162.646 121.678 162.254 121.388 161.932 121.007C161.609 120.626 161.352 120.169 161.158 119.636C160.971 119.103 160.842 118.502 160.771 117.834V116.85C160.842 116.146 160.974 115.517 161.167 114.96C161.36 114.403 161.615 113.929 161.932 113.536C162.254 113.138 162.644 112.836 163.101 112.631C163.558 112.42 164.085 112.314 164.683 112.314C165.28 112.314 165.811 112.432 166.273 112.666C166.736 112.895 167.126 113.223 167.442 113.65C167.759 114.078 167.996 114.591 168.154 115.188C168.318 115.78 168.4 116.439 168.4 117.166ZM166.766 117.351V117.166C166.766 116.691 166.716 116.246 166.616 115.83C166.517 115.408 166.361 115.039 166.15 114.723C165.945 114.4 165.682 114.148 165.359 113.967C165.037 113.779 164.653 113.686 164.208 113.686C163.798 113.686 163.44 113.756 163.136 113.896C162.837 114.037 162.582 114.228 162.371 114.468C162.16 114.702 161.987 114.972 161.853 115.276C161.724 115.575 161.627 115.886 161.562 116.208V118.484C161.68 118.895 161.844 119.281 162.055 119.645C162.266 120.002 162.547 120.292 162.898 120.515C163.25 120.731 163.692 120.84 164.226 120.84C164.665 120.84 165.043 120.749 165.359 120.567C165.682 120.38 165.945 120.125 166.15 119.803C166.361 119.48 166.517 119.111 166.616 118.695C166.716 118.273 166.766 117.825 166.766 117.351ZM170.044 117.351V117.148C170.044 116.463 170.144 115.827 170.343 115.241C170.542 114.649 170.829 114.137 171.204 113.703C171.579 113.264 172.033 112.924 172.566 112.684C173.1 112.438 173.697 112.314 174.359 112.314C175.027 112.314 175.628 112.438 176.161 112.684C176.7 112.924 177.157 113.264 177.532 113.703C177.913 114.137 178.203 114.649 178.402 115.241C178.602 115.827 178.701 116.463 178.701 117.148V117.351C178.701 118.036 178.602 118.672 178.402 119.258C178.203 119.844 177.913 120.356 177.532 120.796C177.157 121.229 176.703 121.569 176.17 121.815C175.643 122.056 175.045 122.176 174.377 122.176C173.709 122.176 173.108 122.056 172.575 121.815C172.042 121.569 171.585 121.229 171.204 120.796C170.829 120.356 170.542 119.844 170.343 119.258C170.144 118.672 170.044 118.036 170.044 117.351ZM171.67 117.148V117.351C171.67 117.825 171.726 118.273 171.837 118.695C171.948 119.111 172.115 119.48 172.338 119.803C172.566 120.125 172.851 120.38 173.19 120.567C173.53 120.749 173.926 120.84 174.377 120.84C174.822 120.84 175.212 120.749 175.546 120.567C175.886 120.38 176.167 120.125 176.39 119.803C176.612 119.48 176.779 119.111 176.891 118.695C177.008 118.273 177.066 117.825 177.066 117.351V117.148C177.066 116.68 177.008 116.237 176.891 115.821C176.779 115.399 176.609 115.027 176.381 114.705C176.158 114.377 175.877 114.119 175.537 113.932C175.203 113.744 174.811 113.65 174.359 113.65C173.914 113.65 173.521 113.744 173.182 113.932C172.848 114.119 172.566 114.377 172.338 114.705C172.115 115.027 171.948 115.399 171.837 115.821C171.726 116.237 171.67 116.68 171.67 117.148ZM182.366 114.521V122H180.74V112.49H182.278L182.366 114.521ZM181.979 116.885L181.303 116.858C181.309 116.208 181.405 115.607 181.593 115.057C181.78 114.5 182.044 114.017 182.384 113.606C182.724 113.196 183.128 112.88 183.597 112.657C184.071 112.429 184.596 112.314 185.17 112.314C185.639 112.314 186.061 112.379 186.436 112.508C186.811 112.631 187.13 112.83 187.394 113.105C187.663 113.381 187.868 113.738 188.009 114.178C188.149 114.611 188.22 115.142 188.22 115.769V122H186.585V115.751C186.585 115.253 186.512 114.854 186.365 114.556C186.219 114.251 186.005 114.031 185.724 113.896C185.442 113.756 185.097 113.686 184.687 113.686C184.282 113.686 183.913 113.771 183.579 113.94C183.251 114.11 182.967 114.345 182.727 114.644C182.492 114.942 182.308 115.285 182.173 115.672C182.044 116.053 181.979 116.457 181.979 116.885ZM192.447 112.49V122H190.821V112.49H192.447ZM190.769 111.102L192.474 108.518H194.434L192.078 111.102H190.769ZM198.046 120.532L200.647 112.49H202.309L198.89 122H197.8L198.046 120.532ZM195.875 112.49L198.556 120.576L198.74 122H197.65L194.205 112.49H195.875ZM207.696 122.176C207.034 122.176 206.434 122.064 205.895 121.842C205.361 121.613 204.901 121.294 204.515 120.884C204.134 120.474 203.841 119.987 203.636 119.425C203.431 118.862 203.328 118.247 203.328 117.579V117.21C203.328 116.437 203.442 115.748 203.671 115.145C203.899 114.535 204.21 114.02 204.603 113.598C204.995 113.176 205.44 112.856 205.938 112.64C206.437 112.423 206.952 112.314 207.485 112.314C208.165 112.314 208.751 112.432 209.243 112.666C209.741 112.9 210.148 113.229 210.465 113.65C210.781 114.066 211.016 114.559 211.168 115.127C211.32 115.689 211.396 116.305 211.396 116.973V117.702H204.295V116.375H209.771V116.252C209.747 115.83 209.659 115.42 209.507 115.021C209.36 114.623 209.126 114.295 208.804 114.037C208.481 113.779 208.042 113.65 207.485 113.65C207.116 113.65 206.776 113.729 206.466 113.888C206.155 114.04 205.889 114.269 205.666 114.573C205.443 114.878 205.271 115.25 205.147 115.689C205.024 116.129 204.963 116.636 204.963 117.21V117.579C204.963 118.03 205.024 118.455 205.147 118.854C205.276 119.246 205.461 119.592 205.701 119.891C205.947 120.189 206.243 120.424 206.589 120.594C206.94 120.764 207.339 120.849 207.784 120.849C208.358 120.849 208.845 120.731 209.243 120.497C209.642 120.263 209.99 119.949 210.289 119.557L211.273 120.339C211.068 120.649 210.808 120.945 210.491 121.227C210.175 121.508 209.785 121.736 209.322 121.912C208.865 122.088 208.323 122.176 207.696 122.176ZM215.062 112.49V122H213.427V112.49H215.062ZM213.304 109.968C213.304 109.704 213.383 109.481 213.541 109.3C213.705 109.118 213.945 109.027 214.262 109.027C214.572 109.027 214.81 109.118 214.974 109.3C215.144 109.481 215.229 109.704 215.229 109.968C215.229 110.22 215.144 110.437 214.974 110.618C214.81 110.794 214.572 110.882 214.262 110.882C213.945 110.882 213.705 110.794 213.541 110.618C213.383 110.437 213.304 110.22 213.304 109.968ZM223.209 119.478C223.209 119.243 223.156 119.026 223.051 118.827C222.951 118.622 222.743 118.438 222.427 118.273C222.116 118.104 221.647 117.957 221.021 117.834C220.493 117.723 220.016 117.591 219.588 117.438C219.166 117.286 218.806 117.102 218.507 116.885C218.214 116.668 217.988 116.413 217.83 116.12C217.672 115.827 217.593 115.484 217.593 115.092C217.593 114.717 217.675 114.362 217.839 114.028C218.009 113.694 218.246 113.398 218.551 113.141C218.861 112.883 219.233 112.681 219.667 112.534C220.101 112.388 220.584 112.314 221.117 112.314C221.879 112.314 222.529 112.449 223.068 112.719C223.607 112.988 224.021 113.349 224.308 113.8C224.595 114.245 224.738 114.74 224.738 115.285H223.112C223.112 115.021 223.033 114.767 222.875 114.521C222.723 114.269 222.497 114.061 222.198 113.896C221.905 113.732 221.545 113.65 221.117 113.65C220.666 113.65 220.3 113.721 220.019 113.861C219.743 113.996 219.541 114.169 219.412 114.38C219.289 114.591 219.228 114.813 219.228 115.048C219.228 115.224 219.257 115.382 219.315 115.522C219.38 115.657 219.491 115.783 219.649 115.9C219.808 116.012 220.03 116.117 220.317 116.217C220.604 116.316 220.971 116.416 221.416 116.516C222.195 116.691 222.837 116.902 223.341 117.148C223.845 117.395 224.22 117.696 224.466 118.054C224.712 118.411 224.835 118.845 224.835 119.354C224.835 119.771 224.747 120.151 224.571 120.497C224.401 120.843 224.152 121.142 223.824 121.394C223.502 121.64 223.115 121.833 222.664 121.974C222.219 122.108 221.718 122.176 221.161 122.176C220.323 122.176 219.614 122.026 219.034 121.728C218.454 121.429 218.015 121.042 217.716 120.567C217.417 120.093 217.268 119.592 217.268 119.064H218.902C218.926 119.51 219.055 119.864 219.289 120.128C219.523 120.386 219.811 120.57 220.15 120.682C220.49 120.787 220.827 120.84 221.161 120.84C221.606 120.84 221.979 120.781 222.277 120.664C222.582 120.547 222.813 120.386 222.972 120.181C223.13 119.976 223.209 119.741 223.209 119.478Z" fill="#403D3D"/>
</svg>
