<svg width="214" height="126" viewBox="0 0 214 126" fill="none" xmlns="http://www.w3.org/2000/svg">
<path d="M12.0371 15.0801C12.0371 14.8783 11.9785 14.696 11.8613 14.5332C11.7441 14.3704 11.526 14.2207 11.207 14.084C10.8945 13.9408 10.4421 13.8105 9.84961 13.6934C9.31576 13.5762 8.81771 13.4297 8.35547 13.2539C7.89974 13.0716 7.5026 12.8535 7.16406 12.5996C6.83203 12.3457 6.57161 12.0462 6.38281 11.7012C6.19401 11.3496 6.09961 10.9492 6.09961 10.5C6.09961 10.0573 6.19401 9.64062 6.38281 9.25C6.57812 8.85938 6.85482 8.51432 7.21289 8.21484C7.57747 7.90885 8.02018 7.67122 8.54102 7.50195C9.06836 7.32617 9.66081 7.23828 10.3184 7.23828C11.2363 7.23828 12.0241 7.38477 12.6816 7.67773C13.3457 7.9707 13.8535 8.37435 14.2051 8.88867C14.5632 9.39648 14.7422 9.97591 14.7422 10.627H11.9297C11.9297 10.3535 11.8711 10.1094 11.7539 9.89453C11.6432 9.67318 11.4674 9.50065 11.2266 9.37695C10.9922 9.24674 10.6862 9.18164 10.3086 9.18164C9.99609 9.18164 9.72591 9.23698 9.49805 9.34766C9.27018 9.45182 9.0944 9.59505 8.9707 9.77734C8.85352 9.95312 8.79492 10.1484 8.79492 10.3633C8.79492 10.526 8.82747 10.6725 8.89258 10.8027C8.96419 10.9264 9.07812 11.0404 9.23438 11.1445C9.39062 11.2487 9.59245 11.3464 9.83984 11.4375C10.0938 11.5221 10.4062 11.6003 10.7773 11.6719C11.5391 11.8281 12.2194 12.0332 12.8184 12.2871C13.4173 12.5345 13.8926 12.873 14.2441 13.3027C14.5957 13.7259 14.7715 14.2826 14.7715 14.9727C14.7715 15.4414 14.6673 15.8711 14.459 16.2617C14.2507 16.6523 13.9512 16.9941 13.5605 17.2871C13.1699 17.5736 12.7012 17.7982 12.1543 17.9609C11.6139 18.1172 11.0052 18.1953 10.3281 18.1953C9.34505 18.1953 8.51172 18.0195 7.82812 17.668C7.15104 17.3164 6.63672 16.8704 6.28516 16.3301C5.9401 15.7832 5.76758 15.2233 5.76758 14.6504H8.43359C8.44661 15.0345 8.54427 15.3438 8.72656 15.5781C8.91536 15.8125 9.15299 15.9818 9.43945 16.0859C9.73242 16.1901 10.0482 16.2422 10.3867 16.2422C10.7513 16.2422 11.054 16.1934 11.2949 16.0957C11.5358 15.9915 11.7181 15.8548 11.8418 15.6855C11.972 15.5098 12.0371 15.3079 12.0371 15.0801ZM21.4609 18.1953C20.6406 18.1953 19.9049 18.0651 19.2539 17.8047C18.6029 17.5378 18.0495 17.1699 17.5938 16.7012C17.1445 16.2324 16.7995 15.6888 16.5586 15.0703C16.3177 14.4453 16.1973 13.7812 16.1973 13.0781V12.6875C16.1973 11.8867 16.3112 11.1543 16.5391 10.4902C16.7669 9.82617 17.0924 9.25 17.5156 8.76172C17.9453 8.27344 18.4661 7.89909 19.0781 7.63867C19.6901 7.37174 20.3802 7.23828 21.1484 7.23828C21.8971 7.23828 22.5612 7.36198 23.1406 7.60938C23.7201 7.85677 24.2051 8.20833 24.5957 8.66406C24.9928 9.11979 25.2923 9.66667 25.4941 10.3047C25.696 10.9362 25.7969 11.6393 25.7969 12.4141V13.5859H17.3984V11.7109H23.0332V11.4961C23.0332 11.1055 22.9616 10.7572 22.8184 10.4512C22.6816 10.1387 22.4733 9.89128 22.1934 9.70898C21.9134 9.52669 21.5553 9.43555 21.1191 9.43555C20.748 9.43555 20.429 9.51693 20.1621 9.67969C19.8952 9.84245 19.6771 10.0703 19.5078 10.3633C19.3451 10.6562 19.2214 11.0013 19.1367 11.3984C19.0586 11.7891 19.0195 12.2188 19.0195 12.6875V13.0781C19.0195 13.5013 19.0781 13.8919 19.1953 14.25C19.319 14.6081 19.4915 14.9173 19.7129 15.1777C19.9408 15.4382 20.2142 15.64 20.5332 15.7832C20.8587 15.9264 21.2266 15.998 21.6367 15.998C22.1445 15.998 22.6165 15.9004 23.0527 15.7051C23.4954 15.5033 23.8763 15.2005 24.1953 14.7969L25.5625 16.2812C25.3411 16.6003 25.0384 16.9062 24.6543 17.1992C24.2767 17.4922 23.821 17.7331 23.2871 17.9219C22.7533 18.1042 22.1445 18.1953 21.4609 18.1953ZM30.2109 9.62109V18H27.3887V7.43359H30.0352L30.2109 9.62109ZM29.8203 12.3457H29.0391C29.0391 11.61 29.127 10.9329 29.3027 10.3145C29.485 9.68945 29.7487 9.14909 30.0938 8.69336C30.4453 8.23112 30.8783 7.87305 31.3926 7.61914C31.9069 7.36523 32.5026 7.23828 33.1797 7.23828C33.6484 7.23828 34.0781 7.3099 34.4688 7.45312C34.8594 7.58984 35.1947 7.80794 35.4746 8.10742C35.7611 8.40039 35.9824 8.78451 36.1387 9.25977C36.2949 9.72852 36.373 10.2917 36.373 10.9492V18H33.5605V11.2617C33.5605 10.7799 33.4954 10.4089 33.3652 10.1484C33.235 9.88802 33.0495 9.70573 32.8086 9.60156C32.5742 9.4974 32.291 9.44531 31.959 9.44531C31.5944 9.44531 31.2754 9.52018 31.002 9.66992C30.735 9.81966 30.5137 10.028 30.3379 10.2949C30.1621 10.5553 30.0319 10.8613 29.9473 11.2129C29.8626 11.5645 29.8203 11.9421 29.8203 12.3457ZM36.1094 12.0234L35.1035 12.1504C35.1035 11.4603 35.1882 10.819 35.3574 10.2266C35.5332 9.63411 35.7904 9.11328 36.1289 8.66406C36.474 8.21484 36.9004 7.86654 37.4082 7.61914C37.916 7.36523 38.502 7.23828 39.166 7.23828C39.6738 7.23828 40.1361 7.31315 40.5527 7.46289C40.9694 7.60612 41.3242 7.83724 41.6172 8.15625C41.9167 8.46875 42.1445 8.87891 42.3008 9.38672C42.4635 9.89453 42.5449 10.5163 42.5449 11.252V18H39.7227V11.252C39.7227 10.7637 39.6576 10.3926 39.5273 10.1387C39.4036 9.87826 39.2214 9.69922 38.9805 9.60156C38.7461 9.4974 38.4661 9.44531 38.1406 9.44531C37.8021 9.44531 37.5059 9.51367 37.252 9.65039C36.998 9.7806 36.7865 9.96289 36.6172 10.1973C36.4479 10.4316 36.321 10.7051 36.2363 11.0176C36.1517 11.3236 36.1094 11.6589 36.1094 12.0234ZM54.0684 15.998C54.4134 15.998 54.7194 15.9329 54.9863 15.8027C55.2533 15.666 55.4616 15.4772 55.6113 15.2363C55.7676 14.9889 55.849 14.6992 55.8555 14.3672H58.502C58.4954 15.1094 58.2969 15.7702 57.9062 16.3496C57.5156 16.9225 56.9915 17.375 56.334 17.707C55.6764 18.0326 54.9408 18.1953 54.127 18.1953C53.3066 18.1953 52.5905 18.0586 51.9785 17.7852C51.373 17.5117 50.8685 17.1341 50.4648 16.6523C50.0612 16.1641 49.7585 15.5977 49.5566 14.9531C49.3548 14.3021 49.2539 13.6055 49.2539 12.8633V12.5801C49.2539 11.8314 49.3548 11.1348 49.5566 10.4902C49.7585 9.83919 50.0612 9.27279 50.4648 8.79102C50.8685 8.30273 51.373 7.92188 51.9785 7.64844C52.584 7.375 53.2936 7.23828 54.1074 7.23828C54.9733 7.23828 55.7318 7.4043 56.3828 7.73633C57.0404 8.06836 57.5547 8.54362 57.9258 9.16211C58.3034 9.77409 58.4954 10.5 58.502 11.3398H55.8555C55.849 10.9883 55.7741 10.6693 55.6309 10.3828C55.4941 10.0964 55.2923 9.86849 55.0254 9.69922C54.765 9.52344 54.4427 9.43555 54.0586 9.43555C53.6484 9.43555 53.3132 9.52344 53.0527 9.69922C52.7923 9.86849 52.5905 10.1029 52.4473 10.4023C52.304 10.6953 52.2031 11.0306 52.1445 11.4082C52.0924 11.7793 52.0664 12.1699 52.0664 12.5801V12.8633C52.0664 13.2734 52.0924 13.6673 52.1445 14.0449C52.1966 14.4225 52.2943 14.7578 52.4375 15.0508C52.5872 15.3438 52.7923 15.5749 53.0527 15.7441C53.3132 15.9134 53.6517 15.998 54.0684 15.998ZM63.1016 3V18H60.2793V3H63.1016ZM71.6758 15.4707V7.43359H74.4883V18H71.8418L71.6758 15.4707ZM71.9883 13.3027L72.8184 13.2832C72.8184 13.9863 72.737 14.6406 72.5742 15.2461C72.4115 15.8451 72.1673 16.3659 71.8418 16.8086C71.5163 17.2448 71.1061 17.5866 70.6113 17.834C70.1165 18.0749 69.5339 18.1953 68.8633 18.1953C68.349 18.1953 67.8737 18.1237 67.4375 17.9805C67.0078 17.8307 66.6367 17.5996 66.3242 17.2871C66.0182 16.9681 65.7773 16.5612 65.6016 16.0664C65.4323 15.5651 65.3477 14.9629 65.3477 14.2598V7.43359H68.1602V14.2793C68.1602 14.5918 68.196 14.8555 68.2676 15.0703C68.3457 15.2852 68.4531 15.4609 68.5898 15.5977C68.7266 15.7344 68.8861 15.832 69.0684 15.8906C69.2572 15.9492 69.4655 15.9785 69.6934 15.9785C70.2728 15.9785 70.7285 15.8613 71.0605 15.627C71.3991 15.3926 71.6367 15.0736 71.7734 14.6699C71.9167 14.2598 71.9883 13.804 71.9883 13.3027ZM76.6367 3H79.4492V15.5781L79.166 18H76.6367V3ZM86.1387 12.6094V12.8145C86.1387 13.6022 86.054 14.3249 85.8848 14.9824C85.722 15.64 85.4681 16.2096 85.123 16.6914C84.778 17.1667 84.3483 17.5378 83.834 17.8047C83.3262 18.0651 82.7272 18.1953 82.0371 18.1953C81.3926 18.1953 80.8327 18.0651 80.3574 17.8047C79.8887 17.5443 79.4948 17.1764 79.1758 16.7012C78.8568 16.2259 78.5996 15.6693 78.4043 15.0312C78.209 14.3932 78.0625 13.6966 77.9648 12.9414V12.4922C78.0625 11.737 78.209 11.0404 78.4043 10.4023C78.5996 9.76432 78.8568 9.20768 79.1758 8.73242C79.4948 8.25716 79.8887 7.88932 80.3574 7.62891C80.8262 7.36849 81.3796 7.23828 82.0176 7.23828C82.7142 7.23828 83.3197 7.37174 83.834 7.63867C84.3548 7.89909 84.7845 8.27018 85.123 8.75195C85.4681 9.22721 85.722 9.79362 85.8848 10.4512C86.054 11.1022 86.1387 11.8216 86.1387 12.6094ZM83.3262 12.8145V12.6094C83.3262 12.1797 83.2936 11.776 83.2285 11.3984C83.1699 11.0143 83.0658 10.679 82.916 10.3926C82.7663 10.0996 82.5612 9.86849 82.3008 9.69922C82.0469 9.52995 81.7181 9.44531 81.3145 9.44531C80.9303 9.44531 80.6048 9.51042 80.3379 9.64062C80.071 9.77083 79.8496 9.95312 79.6738 10.1875C79.5046 10.4219 79.3776 10.7018 79.293 11.0273C79.2083 11.3464 79.1562 11.6979 79.1367 12.082V13.3613C79.1562 13.8757 79.2409 14.3314 79.3906 14.7285C79.5469 15.1191 79.7812 15.4284 80.0938 15.6562C80.4128 15.8776 80.8262 15.9883 81.334 15.9883C81.7311 15.9883 82.0599 15.9102 82.3203 15.7539C82.5807 15.5977 82.7826 15.3763 82.9258 15.0898C83.0755 14.8034 83.1797 14.4681 83.2383 14.084C83.2969 13.6934 83.3262 13.2702 83.3262 12.8145ZM92.75 18.1953C91.9297 18.1953 91.194 18.0651 90.543 17.8047C89.8919 17.5378 89.3385 17.1699 88.8828 16.7012C88.4336 16.2324 88.0885 15.6888 87.8477 15.0703C87.6068 14.4453 87.4863 13.7812 87.4863 13.0781V12.6875C87.4863 11.8867 87.6003 11.1543 87.8281 10.4902C88.056 9.82617 88.3815 9.25 88.8047 8.76172C89.2344 8.27344 89.7552 7.89909 90.3672 7.63867C90.9792 7.37174 91.6693 7.23828 92.4375 7.23828C93.1862 7.23828 93.8503 7.36198 94.4297 7.60938C95.0091 7.85677 95.4941 8.20833 95.8848 8.66406C96.2819 9.11979 96.5814 9.66667 96.7832 10.3047C96.985 10.9362 97.0859 11.6393 97.0859 12.4141V13.5859H88.6875V11.7109H94.3223V11.4961C94.3223 11.1055 94.2507 10.7572 94.1074 10.4512C93.9707 10.1387 93.7624 9.89128 93.4824 9.70898C93.2025 9.52669 92.8444 9.43555 92.4082 9.43555C92.0371 9.43555 91.7181 9.51693 91.4512 9.67969C91.1842 9.84245 90.9661 10.0703 90.7969 10.3633C90.6341 10.6562 90.5104 11.0013 90.4258 11.3984C90.3477 11.7891 90.3086 12.2188 90.3086 12.6875V13.0781C90.3086 13.5013 90.3672 13.8919 90.4844 14.25C90.6081 14.6081 90.7806 14.9173 91.002 15.1777C91.2298 15.4382 91.5033 15.64 91.8223 15.7832C92.1478 15.9264 92.5156 15.998 92.9258 15.998C93.4336 15.998 93.9056 15.9004 94.3418 15.7051C94.7845 15.5033 95.1654 15.2005 95.4844 14.7969L96.8516 16.2812C96.6302 16.6003 96.3275 16.9062 95.9434 17.1992C95.5658 17.4922 95.11 17.7331 94.5762 17.9219C94.0423 18.1042 93.4336 18.1953 92.75 18.1953ZM109.381 15.0801C109.381 14.8783 109.322 14.696 109.205 14.5332C109.088 14.3704 108.87 14.2207 108.551 14.084C108.238 13.9408 107.786 13.8105 107.193 13.6934C106.66 13.5762 106.161 13.4297 105.699 13.2539C105.243 13.0716 104.846 12.8535 104.508 12.5996C104.176 12.3457 103.915 12.0462 103.727 11.7012C103.538 11.3496 103.443 10.9492 103.443 10.5C103.443 10.0573 103.538 9.64062 103.727 9.25C103.922 8.85938 104.199 8.51432 104.557 8.21484C104.921 7.90885 105.364 7.67122 105.885 7.50195C106.412 7.32617 107.005 7.23828 107.662 7.23828C108.58 7.23828 109.368 7.38477 110.025 7.67773C110.689 7.9707 111.197 8.37435 111.549 8.88867C111.907 9.39648 112.086 9.97591 112.086 10.627H109.273C109.273 10.3535 109.215 10.1094 109.098 9.89453C108.987 9.67318 108.811 9.50065 108.57 9.37695C108.336 9.24674 108.03 9.18164 107.652 9.18164C107.34 9.18164 107.07 9.23698 106.842 9.34766C106.614 9.45182 106.438 9.59505 106.314 9.77734C106.197 9.95312 106.139 10.1484 106.139 10.3633C106.139 10.526 106.171 10.6725 106.236 10.8027C106.308 10.9264 106.422 11.0404 106.578 11.1445C106.734 11.2487 106.936 11.3464 107.184 11.4375C107.438 11.5221 107.75 11.6003 108.121 11.6719C108.883 11.8281 109.563 12.0332 110.162 12.2871C110.761 12.5345 111.236 12.873 111.588 13.3027C111.939 13.7259 112.115 14.2826 112.115 14.9727C112.115 15.4414 112.011 15.8711 111.803 16.2617C111.594 16.6523 111.295 16.9941 110.904 17.2871C110.514 17.5736 110.045 17.7982 109.498 17.9609C108.958 18.1172 108.349 18.1953 107.672 18.1953C106.689 18.1953 105.855 18.0195 105.172 17.668C104.495 17.3164 103.98 16.8704 103.629 16.3301C103.284 15.7832 103.111 15.2233 103.111 14.6504H105.777C105.79 15.0345 105.888 15.3438 106.07 15.5781C106.259 15.8125 106.497 15.9818 106.783 16.0859C107.076 16.1901 107.392 16.2422 107.73 16.2422C108.095 16.2422 108.398 16.1934 108.639 16.0957C108.88 15.9915 109.062 15.8548 109.186 15.6855C109.316 15.5098 109.381 15.3079 109.381 15.0801ZM120.191 15.4707V7.43359H123.004V18H120.357L120.191 15.4707ZM120.504 13.3027L121.334 13.2832C121.334 13.9863 121.253 14.6406 121.09 15.2461C120.927 15.8451 120.683 16.3659 120.357 16.8086C120.032 17.2448 119.622 17.5866 119.127 17.834C118.632 18.0749 118.049 18.1953 117.379 18.1953C116.865 18.1953 116.389 18.1237 115.953 17.9805C115.523 17.8307 115.152 17.5996 114.84 17.2871C114.534 16.9681 114.293 16.5612 114.117 16.0664C113.948 15.5651 113.863 14.9629 113.863 14.2598V7.43359H116.676V14.2793C116.676 14.5918 116.712 14.8555 116.783 15.0703C116.861 15.2852 116.969 15.4609 117.105 15.5977C117.242 15.7344 117.402 15.832 117.584 15.8906C117.773 15.9492 117.981 15.9785 118.209 15.9785C118.788 15.9785 119.244 15.8613 119.576 15.627C119.915 15.3926 120.152 15.0736 120.289 14.6699C120.432 14.2598 120.504 13.804 120.504 13.3027ZM127.965 9.46484V22.0625H125.152V7.43359H127.76L127.965 9.46484ZM134.654 12.5996V12.8047C134.654 13.5729 134.563 14.2858 134.381 14.9434C134.205 15.6009 133.945 16.1738 133.6 16.6621C133.255 17.1439 132.825 17.5215 132.311 17.7949C131.803 18.0618 131.217 18.1953 130.553 18.1953C129.908 18.1953 129.348 18.0651 128.873 17.8047C128.398 17.5443 127.997 17.1797 127.672 16.7109C127.353 16.2357 127.096 15.6855 126.9 15.0605C126.705 14.4355 126.555 13.765 126.451 13.0488V12.5117C126.555 11.7435 126.705 11.0404 126.9 10.4023C127.096 9.75781 127.353 9.20117 127.672 8.73242C127.997 8.25716 128.395 7.88932 128.863 7.62891C129.339 7.36849 129.895 7.23828 130.533 7.23828C131.204 7.23828 131.793 7.36523 132.301 7.61914C132.815 7.87305 133.245 8.23763 133.59 8.71289C133.941 9.18815 134.205 9.75456 134.381 10.4121C134.563 11.0697 134.654 11.7988 134.654 12.5996ZM131.832 12.8047V12.5996C131.832 12.1504 131.793 11.737 131.715 11.3594C131.643 10.9753 131.526 10.64 131.363 10.3535C131.207 10.0671 130.999 9.8457 130.738 9.68945C130.484 9.52669 130.175 9.44531 129.811 9.44531C129.426 9.44531 129.098 9.50716 128.824 9.63086C128.557 9.75456 128.339 9.93359 128.17 10.168C128.001 10.4023 127.874 10.6823 127.789 11.0078C127.704 11.3333 127.652 11.7012 127.633 12.1113V13.4688C127.665 13.9505 127.757 14.3835 127.906 14.7676C128.056 15.1452 128.287 15.4447 128.6 15.666C128.912 15.8874 129.322 15.998 129.83 15.998C130.201 15.998 130.514 15.9167 130.768 15.7539C131.021 15.5846 131.227 15.3535 131.383 15.0605C131.546 14.7676 131.66 14.429 131.725 14.0449C131.796 13.6608 131.832 13.2474 131.832 12.8047ZM141.266 18.1953C140.445 18.1953 139.71 18.0651 139.059 17.8047C138.408 17.5378 137.854 17.1699 137.398 16.7012C136.949 16.2324 136.604 15.6888 136.363 15.0703C136.122 14.4453 136.002 13.7812 136.002 13.0781V12.6875C136.002 11.8867 136.116 11.1543 136.344 10.4902C136.572 9.82617 136.897 9.25 137.32 8.76172C137.75 8.27344 138.271 7.89909 138.883 7.63867C139.495 7.37174 140.185 7.23828 140.953 7.23828C141.702 7.23828 142.366 7.36198 142.945 7.60938C143.525 7.85677 144.01 8.20833 144.4 8.66406C144.798 9.11979 145.097 9.66667 145.299 10.3047C145.501 10.9362 145.602 11.6393 145.602 12.4141V13.5859H137.203V11.7109H142.838V11.4961C142.838 11.1055 142.766 10.7572 142.623 10.4512C142.486 10.1387 142.278 9.89128 141.998 9.70898C141.718 9.52669 141.36 9.43555 140.924 9.43555C140.553 9.43555 140.234 9.51693 139.967 9.67969C139.7 9.84245 139.482 10.0703 139.312 10.3633C139.15 10.6562 139.026 11.0013 138.941 11.3984C138.863 11.7891 138.824 12.2188 138.824 12.6875V13.0781C138.824 13.5013 138.883 13.8919 139 14.25C139.124 14.6081 139.296 14.9173 139.518 15.1777C139.745 15.4382 140.019 15.64 140.338 15.7832C140.663 15.9264 141.031 15.998 141.441 15.998C141.949 15.998 142.421 15.9004 142.857 15.7051C143.3 15.5033 143.681 15.2005 144 14.7969L145.367 16.2812C145.146 16.6003 144.843 16.9062 144.459 17.1992C144.081 17.4922 143.626 17.7331 143.092 17.9219C142.558 18.1042 141.949 18.1953 141.266 18.1953ZM150.016 9.73828V18H147.203V7.43359H149.85L150.016 9.73828ZM153.199 7.36523L153.15 9.97266C153.014 9.95312 152.848 9.93685 152.652 9.92383C152.464 9.9043 152.291 9.89453 152.135 9.89453C151.738 9.89453 151.393 9.94661 151.1 10.0508C150.813 10.1484 150.572 10.2949 150.377 10.4902C150.188 10.6855 150.045 10.9232 149.947 11.2031C149.856 11.4831 149.804 11.8021 149.791 12.1602L149.225 11.9844C149.225 11.3008 149.293 10.6725 149.43 10.0996C149.566 9.52018 149.765 9.01562 150.025 8.58594C150.292 8.15625 150.618 7.82422 151.002 7.58984C151.386 7.35547 151.826 7.23828 152.32 7.23828C152.477 7.23828 152.636 7.2513 152.799 7.27734C152.962 7.29688 153.095 7.32617 153.199 7.36523ZM157.281 9.68945V18H154.469V7.43359H157.105L157.281 9.68945ZM156.871 12.3457H156.109C156.109 11.5645 156.21 10.8613 156.412 10.2363C156.614 9.60482 156.897 9.06771 157.262 8.625C157.626 8.17578 158.059 7.83398 158.561 7.59961C159.068 7.35872 159.635 7.23828 160.26 7.23828C160.755 7.23828 161.207 7.3099 161.617 7.45312C162.027 7.59635 162.379 7.82422 162.672 8.13672C162.971 8.44922 163.199 8.86263 163.355 9.37695C163.518 9.89128 163.6 10.5195 163.6 11.2617V18H160.768V11.252C160.768 10.7832 160.702 10.4186 160.572 10.1582C160.442 9.89779 160.25 9.71549 159.996 9.61133C159.749 9.50065 159.443 9.44531 159.078 9.44531C158.701 9.44531 158.372 9.52018 158.092 9.66992C157.818 9.81966 157.59 10.028 157.408 10.2949C157.232 10.5553 157.099 10.8613 157.008 11.2129C156.917 11.5645 156.871 11.9421 156.871 12.3457ZM165.289 12.8242V12.6191C165.289 11.8444 165.4 11.1315 165.621 10.4805C165.842 9.82292 166.165 9.25326 166.588 8.77148C167.011 8.28971 167.532 7.91536 168.15 7.64844C168.769 7.375 169.479 7.23828 170.279 7.23828C171.08 7.23828 171.793 7.375 172.418 7.64844C173.043 7.91536 173.567 8.28971 173.99 8.77148C174.42 9.25326 174.745 9.82292 174.967 10.4805C175.188 11.1315 175.299 11.8444 175.299 12.6191V12.8242C175.299 13.5924 175.188 14.3053 174.967 14.9629C174.745 15.6139 174.42 16.1836 173.99 16.6719C173.567 17.1536 173.046 17.528 172.428 17.7949C171.809 18.0618 171.1 18.1953 170.299 18.1953C169.498 18.1953 168.785 18.0618 168.16 17.7949C167.542 17.528 167.018 17.1536 166.588 16.6719C166.165 16.1836 165.842 15.6139 165.621 14.9629C165.4 14.3053 165.289 13.5924 165.289 12.8242ZM168.102 12.6191V12.8242C168.102 13.2669 168.141 13.6803 168.219 14.0645C168.297 14.4486 168.421 14.7871 168.59 15.0801C168.766 15.3665 168.993 15.5911 169.273 15.7539C169.553 15.9167 169.895 15.998 170.299 15.998C170.689 15.998 171.025 15.9167 171.305 15.7539C171.585 15.5911 171.809 15.3665 171.979 15.0801C172.148 14.7871 172.271 14.4486 172.35 14.0645C172.434 13.6803 172.477 13.2669 172.477 12.8242V12.6191C172.477 12.1895 172.434 11.7858 172.35 11.4082C172.271 11.0241 172.145 10.6855 171.969 10.3926C171.799 10.0931 171.575 9.85872 171.295 9.68945C171.015 9.52018 170.676 9.43555 170.279 9.43555C169.882 9.43555 169.544 9.52018 169.264 9.68945C168.99 9.85872 168.766 10.0931 168.59 10.3926C168.421 10.6855 168.297 11.0241 168.219 11.4082C168.141 11.7858 168.102 12.1895 168.102 12.6191ZM182.74 15.0801C182.74 14.8783 182.682 14.696 182.564 14.5332C182.447 14.3704 182.229 14.2207 181.91 14.084C181.598 13.9408 181.145 13.8105 180.553 13.6934C180.019 13.5762 179.521 13.4297 179.059 13.2539C178.603 13.0716 178.206 12.8535 177.867 12.5996C177.535 12.3457 177.275 12.0462 177.086 11.7012C176.897 11.3496 176.803 10.9492 176.803 10.5C176.803 10.0573 176.897 9.64062 177.086 9.25C177.281 8.85938 177.558 8.51432 177.916 8.21484C178.281 7.90885 178.723 7.67122 179.244 7.50195C179.771 7.32617 180.364 7.23828 181.021 7.23828C181.939 7.23828 182.727 7.38477 183.385 7.67773C184.049 7.9707 184.557 8.37435 184.908 8.88867C185.266 9.39648 185.445 9.97591 185.445 10.627H182.633C182.633 10.3535 182.574 10.1094 182.457 9.89453C182.346 9.67318 182.171 9.50065 181.93 9.37695C181.695 9.24674 181.389 9.18164 181.012 9.18164C180.699 9.18164 180.429 9.23698 180.201 9.34766C179.973 9.45182 179.798 9.59505 179.674 9.77734C179.557 9.95312 179.498 10.1484 179.498 10.3633C179.498 10.526 179.531 10.6725 179.596 10.8027C179.667 10.9264 179.781 11.0404 179.938 11.1445C180.094 11.2487 180.296 11.3464 180.543 11.4375C180.797 11.5221 181.109 11.6003 181.48 11.6719C182.242 11.8281 182.923 12.0332 183.521 12.2871C184.12 12.5345 184.596 12.873 184.947 13.3027C185.299 13.7259 185.475 14.2826 185.475 14.9727C185.475 15.4414 185.37 15.8711 185.162 16.2617C184.954 16.6523 184.654 16.9941 184.264 17.2871C183.873 17.5736 183.404 17.7982 182.857 17.9609C182.317 18.1172 181.708 18.1953 181.031 18.1953C180.048 18.1953 179.215 18.0195 178.531 17.668C177.854 17.3164 177.34 16.8704 176.988 16.3301C176.643 15.7832 176.471 15.2233 176.471 14.6504H179.137C179.15 15.0345 179.247 15.3438 179.43 15.5781C179.618 15.8125 179.856 15.9818 180.143 16.0859C180.436 16.1901 180.751 16.2422 181.09 16.2422C181.454 16.2422 181.757 16.1934 181.998 16.0957C182.239 15.9915 182.421 15.8548 182.545 15.6855C182.675 15.5098 182.74 15.3079 182.74 15.0801ZM193.014 15.0801C193.014 14.8783 192.955 14.696 192.838 14.5332C192.721 14.3704 192.503 14.2207 192.184 14.084C191.871 13.9408 191.419 13.8105 190.826 13.6934C190.292 13.5762 189.794 13.4297 189.332 13.2539C188.876 13.0716 188.479 12.8535 188.141 12.5996C187.809 12.3457 187.548 12.0462 187.359 11.7012C187.171 11.3496 187.076 10.9492 187.076 10.5C187.076 10.0573 187.171 9.64062 187.359 9.25C187.555 8.85938 187.831 8.51432 188.189 8.21484C188.554 7.90885 188.997 7.67122 189.518 7.50195C190.045 7.32617 190.637 7.23828 191.295 7.23828C192.213 7.23828 193.001 7.38477 193.658 7.67773C194.322 7.9707 194.83 8.37435 195.182 8.88867C195.54 9.39648 195.719 9.97591 195.719 10.627H192.906C192.906 10.3535 192.848 10.1094 192.73 9.89453C192.62 9.67318 192.444 9.50065 192.203 9.37695C191.969 9.24674 191.663 9.18164 191.285 9.18164C190.973 9.18164 190.702 9.23698 190.475 9.34766C190.247 9.45182 190.071 9.59505 189.947 9.77734C189.83 9.95312 189.771 10.1484 189.771 10.3633C189.771 10.526 189.804 10.6725 189.869 10.8027C189.941 10.9264 190.055 11.0404 190.211 11.1445C190.367 11.2487 190.569 11.3464 190.816 11.4375C191.07 11.5221 191.383 11.6003 191.754 11.6719C192.516 11.8281 193.196 12.0332 193.795 12.2871C194.394 12.5345 194.869 12.873 195.221 13.3027C195.572 13.7259 195.748 14.2826 195.748 14.9727C195.748 15.4414 195.644 15.8711 195.436 16.2617C195.227 16.6523 194.928 16.9941 194.537 17.2871C194.146 17.5736 193.678 17.7982 193.131 17.9609C192.59 18.1172 191.982 18.1953 191.305 18.1953C190.322 18.1953 189.488 18.0195 188.805 17.668C188.128 17.3164 187.613 16.8704 187.262 16.3301C186.917 15.7832 186.744 15.2233 186.744 14.6504H189.41C189.423 15.0345 189.521 15.3438 189.703 15.5781C189.892 15.8125 190.13 15.9818 190.416 16.0859C190.709 16.1901 191.025 16.2422 191.363 16.2422C191.728 16.2422 192.031 16.1934 192.271 16.0957C192.512 15.9915 192.695 15.8548 192.818 15.6855C192.949 15.5098 193.014 15.3079 193.014 15.0801ZM197.125 12.8242V12.6191C197.125 11.8444 197.236 11.1315 197.457 10.4805C197.678 9.82292 198.001 9.25326 198.424 8.77148C198.847 8.28971 199.368 7.91536 199.986 7.64844C200.605 7.375 201.314 7.23828 202.115 7.23828C202.916 7.23828 203.629 7.375 204.254 7.64844C204.879 7.91536 205.403 8.28971 205.826 8.77148C206.256 9.25326 206.581 9.82292 206.803 10.4805C207.024 11.1315 207.135 11.8444 207.135 12.6191V12.8242C207.135 13.5924 207.024 14.3053 206.803 14.9629C206.581 15.6139 206.256 16.1836 205.826 16.6719C205.403 17.1536 204.882 17.528 204.264 17.7949C203.645 18.0618 202.936 18.1953 202.135 18.1953C201.334 18.1953 200.621 18.0618 199.996 17.7949C199.378 17.528 198.854 17.1536 198.424 16.6719C198.001 16.1836 197.678 15.6139 197.457 14.9629C197.236 14.3053 197.125 13.5924 197.125 12.8242ZM199.938 12.6191V12.8242C199.938 13.2669 199.977 13.6803 200.055 14.0645C200.133 14.4486 200.257 14.7871 200.426 15.0801C200.602 15.3665 200.829 15.5911 201.109 15.7539C201.389 15.9167 201.731 15.998 202.135 15.998C202.525 15.998 202.861 15.9167 203.141 15.7539C203.421 15.5911 203.645 15.3665 203.814 15.0801C203.984 14.7871 204.107 14.4486 204.186 14.0645C204.27 13.6803 204.312 13.2669 204.312 12.8242V12.6191C204.312 12.1895 204.27 11.7858 204.186 11.4082C204.107 11.0241 203.98 10.6855 203.805 10.3926C203.635 10.0931 203.411 9.85872 203.131 9.68945C202.851 9.52018 202.512 9.43555 202.115 9.43555C201.718 9.43555 201.38 9.52018 201.1 9.68945C200.826 9.85872 200.602 10.0931 200.426 10.3926C200.257 10.6855 200.133 11.0241 200.055 11.4082C199.977 11.7858 199.938 12.1895 199.938 12.6191ZM83.668 35.9316H80.0449V33.6465H83.668C84.2279 33.6465 84.6836 33.5553 85.0352 33.373C85.3867 33.1842 85.6439 32.9238 85.8066 32.5918C85.9694 32.2598 86.0508 31.8854 86.0508 31.4688C86.0508 31.0456 85.9694 30.6517 85.8066 30.2871C85.6439 29.9225 85.3867 29.6296 85.0352 29.4082C84.6836 29.1868 84.2279 29.0762 83.668 29.0762H81.0605V41H78.1309V26.7812H83.668C84.7812 26.7812 85.735 26.9831 86.5293 27.3867C87.3301 27.7839 87.9421 28.334 88.3652 29.0371C88.7884 29.7402 89 30.5443 89 31.4492C89 32.3672 88.7884 33.1615 88.3652 33.832C87.9421 34.5026 87.3301 35.0202 86.5293 35.3848C85.735 35.7493 84.7812 35.9316 83.668 35.9316ZM93.6582 32.7383V41H90.8457V30.4336H93.4922L93.6582 32.7383ZM96.8418 30.3652L96.793 32.9727C96.6562 32.9531 96.4902 32.9368 96.2949 32.9238C96.1061 32.9043 95.9336 32.8945 95.7773 32.8945C95.3802 32.8945 95.0352 32.9466 94.7422 33.0508C94.4557 33.1484 94.2148 33.2949 94.0195 33.4902C93.8307 33.6855 93.6875 33.9232 93.5898 34.2031C93.4987 34.4831 93.4466 34.8021 93.4336 35.1602L92.8672 34.9844C92.8672 34.3008 92.9355 33.6725 93.0723 33.0996C93.209 32.5202 93.4076 32.0156 93.668 31.5859C93.9349 31.1562 94.2604 30.8242 94.6445 30.5898C95.0286 30.3555 95.4681 30.2383 95.9629 30.2383C96.1191 30.2383 96.2786 30.2513 96.4414 30.2773C96.6042 30.2969 96.7376 30.3262 96.8418 30.3652ZM101.139 30.4336V41H98.3164V30.4336H101.139ZM98.1406 27.6797C98.1406 27.2695 98.2839 26.931 98.5703 26.6641C98.8568 26.3971 99.2409 26.2637 99.7227 26.2637C100.198 26.2637 100.579 26.3971 100.865 26.6641C101.158 26.931 101.305 27.2695 101.305 27.6797C101.305 28.0898 101.158 28.4284 100.865 28.6953C100.579 28.9622 100.198 29.0957 99.7227 29.0957C99.2409 29.0957 98.8568 28.9622 98.5703 28.6953C98.2839 28.4284 98.1406 28.0898 98.1406 27.6797ZM106.275 32.6211V41H103.453V30.4336H106.1L106.275 32.6211ZM105.885 35.3457H105.104C105.104 34.61 105.191 33.9329 105.367 33.3145C105.549 32.6895 105.813 32.1491 106.158 31.6934C106.51 31.2311 106.943 30.873 107.457 30.6191C107.971 30.3652 108.567 30.2383 109.244 30.2383C109.713 30.2383 110.143 30.3099 110.533 30.4531C110.924 30.5898 111.259 30.8079 111.539 31.1074C111.826 31.4004 112.047 31.7845 112.203 32.2598C112.359 32.7285 112.438 33.2917 112.438 33.9492V41H109.625V34.2617C109.625 33.7799 109.56 33.4089 109.43 33.1484C109.299 32.888 109.114 32.7057 108.873 32.6016C108.639 32.4974 108.355 32.4453 108.023 32.4453C107.659 32.4453 107.34 32.5202 107.066 32.6699C106.799 32.8197 106.578 33.028 106.402 33.2949C106.227 33.5553 106.096 33.8613 106.012 34.2129C105.927 34.5645 105.885 34.9421 105.885 35.3457ZM112.174 35.0234L111.168 35.1504C111.168 34.4603 111.253 33.819 111.422 33.2266C111.598 32.6341 111.855 32.1133 112.193 31.6641C112.538 31.2148 112.965 30.8665 113.473 30.6191C113.98 30.3652 114.566 30.2383 115.23 30.2383C115.738 30.2383 116.201 30.3132 116.617 30.4629C117.034 30.6061 117.389 30.8372 117.682 31.1562C117.981 31.4688 118.209 31.8789 118.365 32.3867C118.528 32.8945 118.609 33.5163 118.609 34.252V41H115.787V34.252C115.787 33.7637 115.722 33.3926 115.592 33.1387C115.468 32.8783 115.286 32.6992 115.045 32.6016C114.811 32.4974 114.531 32.4453 114.205 32.4453C113.867 32.4453 113.57 32.5137 113.316 32.6504C113.062 32.7806 112.851 32.9629 112.682 33.1973C112.512 33.4316 112.385 33.7051 112.301 34.0176C112.216 34.3236 112.174 34.6589 112.174 35.0234ZM125.65 41.1953C124.83 41.1953 124.094 41.0651 123.443 40.8047C122.792 40.5378 122.239 40.1699 121.783 39.7012C121.334 39.2324 120.989 38.6888 120.748 38.0703C120.507 37.4453 120.387 36.7812 120.387 36.0781V35.6875C120.387 34.8867 120.501 34.1543 120.729 33.4902C120.956 32.8262 121.282 32.25 121.705 31.7617C122.135 31.2734 122.656 30.8991 123.268 30.6387C123.88 30.3717 124.57 30.2383 125.338 30.2383C126.087 30.2383 126.751 30.362 127.33 30.6094C127.91 30.8568 128.395 31.2083 128.785 31.6641C129.182 32.1198 129.482 32.6667 129.684 33.3047C129.885 33.9362 129.986 34.6393 129.986 35.4141V36.5859H121.588V34.7109H127.223V34.4961C127.223 34.1055 127.151 33.7572 127.008 33.4512C126.871 33.1387 126.663 32.8913 126.383 32.709C126.103 32.5267 125.745 32.4355 125.309 32.4355C124.938 32.4355 124.618 32.5169 124.352 32.6797C124.085 32.8424 123.867 33.0703 123.697 33.3633C123.535 33.6562 123.411 34.0013 123.326 34.3984C123.248 34.7891 123.209 35.2188 123.209 35.6875V36.0781C123.209 36.5013 123.268 36.8919 123.385 37.25C123.508 37.6081 123.681 37.9173 123.902 38.1777C124.13 38.4382 124.404 38.64 124.723 38.7832C125.048 38.9264 125.416 38.998 125.826 38.998C126.334 38.998 126.806 38.9004 127.242 38.7051C127.685 38.5033 128.066 38.2005 128.385 37.7969L129.752 39.2812C129.531 39.6003 129.228 39.9062 128.844 40.1992C128.466 40.4922 128.01 40.7331 127.477 40.9219C126.943 41.1042 126.334 41.1953 125.65 41.1953ZM131.695 39.6426C131.695 39.2259 131.839 38.8776 132.125 38.5977C132.418 38.3177 132.805 38.1777 133.287 38.1777C133.769 38.1777 134.153 38.3177 134.439 38.5977C134.732 38.8776 134.879 39.2259 134.879 39.6426C134.879 40.0592 134.732 40.4076 134.439 40.6875C134.153 40.9674 133.769 41.1074 133.287 41.1074C132.805 41.1074 132.418 40.9674 132.125 40.6875C131.839 40.4076 131.695 40.0592 131.695 39.6426ZM131.695 31.5859C131.695 31.1693 131.839 30.821 132.125 30.541C132.418 30.2611 132.805 30.1211 133.287 30.1211C133.769 30.1211 134.153 30.2611 134.439 30.541C134.732 30.821 134.879 31.1693 134.879 31.5859C134.879 32.0026 134.732 32.3509 134.439 32.6309C134.153 32.9108 133.769 33.0508 133.287 33.0508C132.805 33.0508 132.418 32.9108 132.125 32.6309C131.839 32.3509 131.695 32.0026 131.695 31.5859Z" fill="#403D3D"/>
<path d="M44.2646 90.1758C43.6025 90.1758 43.002 90.0645 42.4629 89.8418C41.9297 89.6133 41.4697 89.2939 41.083 88.8838C40.7021 88.4736 40.4092 87.9873 40.2041 87.4248C39.999 86.8623 39.8965 86.2471 39.8965 85.5791V85.21C39.8965 84.4365 40.0107 83.748 40.2393 83.1445C40.4678 82.5352 40.7783 82.0195 41.1709 81.5977C41.5635 81.1758 42.0088 80.8564 42.5068 80.6396C43.0049 80.4229 43.5205 80.3145 44.0537 80.3145C44.7334 80.3145 45.3193 80.4316 45.8115 80.666C46.3096 80.9004 46.7168 81.2285 47.0332 81.6504C47.3496 82.0664 47.584 82.5586 47.7363 83.127C47.8887 83.6895 47.9648 84.3047 47.9648 84.9727V85.7021H40.8633V84.375H46.3389V84.252C46.3154 83.8301 46.2275 83.4199 46.0752 83.0215C45.9287 82.623 45.6943 82.2949 45.3721 82.0371C45.0498 81.7793 44.6104 81.6504 44.0537 81.6504C43.6846 81.6504 43.3447 81.7295 43.0342 81.8877C42.7236 82.04 42.457 82.2686 42.2344 82.5732C42.0117 82.8779 41.8389 83.25 41.7158 83.6895C41.5928 84.1289 41.5312 84.6357 41.5312 85.21V85.5791C41.5312 86.0303 41.5928 86.4551 41.7158 86.8535C41.8447 87.2461 42.0293 87.5918 42.2695 87.8906C42.5156 88.1895 42.8115 88.4238 43.1572 88.5938C43.5088 88.7637 43.9072 88.8486 44.3525 88.8486C44.9268 88.8486 45.4131 88.7314 45.8115 88.4971C46.21 88.2627 46.5586 87.9492 46.8574 87.5566L47.8418 88.3389C47.6367 88.6494 47.376 88.9453 47.0596 89.2266C46.7432 89.5078 46.3535 89.7363 45.8906 89.9121C45.4336 90.0879 44.8916 90.1758 44.2646 90.1758ZM51.4893 82.5205V90H49.8633V80.4902H51.4014L51.4893 82.5205ZM51.1025 84.8848L50.4258 84.8584C50.4316 84.208 50.5283 83.6074 50.7158 83.0566C50.9033 82.5 51.167 82.0166 51.5068 81.6064C51.8467 81.1963 52.251 80.8799 52.7197 80.6572C53.1943 80.4287 53.7188 80.3145 54.293 80.3145C54.7617 80.3145 55.1836 80.3789 55.5586 80.5078C55.9336 80.6309 56.2529 80.8301 56.5166 81.1055C56.7861 81.3809 56.9912 81.7383 57.1318 82.1777C57.2725 82.6113 57.3428 83.1416 57.3428 83.7686V90H55.708V83.751C55.708 83.2529 55.6348 82.8545 55.4883 82.5557C55.3418 82.251 55.1279 82.0312 54.8467 81.8965C54.5654 81.7559 54.2197 81.6855 53.8096 81.6855C53.4053 81.6855 53.0361 81.7705 52.7021 81.9404C52.374 82.1104 52.0898 82.3447 51.8496 82.6436C51.6152 82.9424 51.4307 83.2852 51.2959 83.6719C51.167 84.0527 51.1025 84.457 51.1025 84.8848ZM63.7939 80.4902V81.7383H58.6523V80.4902H63.7939ZM60.3926 78.1787H62.0186V87.6445C62.0186 87.9668 62.0684 88.21 62.168 88.374C62.2676 88.5381 62.3965 88.6465 62.5547 88.6992C62.7129 88.752 62.8828 88.7783 63.0645 88.7783C63.1992 88.7783 63.3398 88.7666 63.4863 88.7432C63.6387 88.7139 63.7529 88.6904 63.8291 88.6729L63.8379 90C63.709 90.041 63.5391 90.0791 63.3281 90.1143C63.123 90.1553 62.874 90.1758 62.5811 90.1758C62.1826 90.1758 61.8164 90.0967 61.4824 89.9385C61.1484 89.7803 60.8818 89.5166 60.6826 89.1475C60.4893 88.7725 60.3926 88.2686 60.3926 87.6357V78.1787ZM67.3271 81.9844V90H65.7012V80.4902H67.2832L67.3271 81.9844ZM70.2979 80.4375L70.2891 81.9492C70.1543 81.9199 70.0254 81.9023 69.9023 81.8965C69.7852 81.8848 69.6504 81.8789 69.498 81.8789C69.123 81.8789 68.792 81.9375 68.5049 82.0547C68.2178 82.1719 67.9746 82.3359 67.7754 82.5469C67.5762 82.7578 67.418 83.0098 67.3008 83.3027C67.1895 83.5898 67.1162 83.9062 67.0811 84.252L66.624 84.5156C66.624 83.9414 66.6797 83.4023 66.791 82.8984C66.9082 82.3945 67.0869 81.9492 67.3271 81.5625C67.5674 81.1699 67.8721 80.8652 68.2412 80.6484C68.6162 80.4258 69.0615 80.3145 69.5771 80.3145C69.6943 80.3145 69.8291 80.3291 69.9814 80.3584C70.1338 80.3818 70.2393 80.4082 70.2979 80.4375ZM75.5713 90.1758C74.9092 90.1758 74.3086 90.0645 73.7695 89.8418C73.2363 89.6133 72.7764 89.2939 72.3896 88.8838C72.0088 88.4736 71.7158 87.9873 71.5107 87.4248C71.3057 86.8623 71.2031 86.2471 71.2031 85.5791V85.21C71.2031 84.4365 71.3174 83.748 71.5459 83.1445C71.7744 82.5352 72.085 82.0195 72.4775 81.5977C72.8701 81.1758 73.3154 80.8564 73.8135 80.6396C74.3115 80.4229 74.8271 80.3145 75.3604 80.3145C76.04 80.3145 76.626 80.4316 77.1182 80.666C77.6162 80.9004 78.0234 81.2285 78.3398 81.6504C78.6562 82.0664 78.8906 82.5586 79.043 83.127C79.1953 83.6895 79.2715 84.3047 79.2715 84.9727V85.7021H72.1699V84.375H77.6455V84.252C77.6221 83.8301 77.5342 83.4199 77.3818 83.0215C77.2354 82.623 77.001 82.2949 76.6787 82.0371C76.3564 81.7793 75.917 81.6504 75.3604 81.6504C74.9912 81.6504 74.6514 81.7295 74.3408 81.8877C74.0303 82.04 73.7637 82.2686 73.541 82.5732C73.3184 82.8779 73.1455 83.25 73.0225 83.6895C72.8994 84.1289 72.8379 84.6357 72.8379 85.21V85.5791C72.8379 86.0303 72.8994 86.4551 73.0225 86.8535C73.1514 87.2461 73.3359 87.5918 73.5762 87.8906C73.8223 88.1895 74.1182 88.4238 74.4639 88.5938C74.8154 88.7637 75.2139 88.8486 75.6592 88.8486C76.2334 88.8486 76.7197 88.7314 77.1182 88.4971C77.5166 88.2627 77.8652 87.9492 78.1641 87.5566L79.1484 88.3389C78.9434 88.6494 78.6826 88.9453 78.3662 89.2266C78.0498 89.5078 77.6602 89.7363 77.1973 89.9121C76.7402 90.0879 76.1982 90.1758 75.5713 90.1758ZM87.3311 80.4902H88.8076V89.7979C88.8076 90.6357 88.6377 91.3506 88.2979 91.9424C87.958 92.5342 87.4834 92.9824 86.874 93.2871C86.2705 93.5977 85.5732 93.7529 84.7822 93.7529C84.4541 93.7529 84.0674 93.7002 83.6221 93.5947C83.1826 93.4951 82.749 93.3223 82.3213 93.0762C81.8994 92.8359 81.5449 92.5107 81.2578 92.1006L82.1104 91.1338C82.5088 91.6143 82.9248 91.9482 83.3584 92.1357C83.7979 92.3232 84.2314 92.417 84.6592 92.417C85.1748 92.417 85.6201 92.3203 85.9951 92.127C86.3701 91.9336 86.6602 91.6465 86.8652 91.2656C87.0762 90.8906 87.1816 90.4277 87.1816 89.877V82.582L87.3311 80.4902ZM80.7832 85.3506V85.166C80.7832 84.4395 80.8682 83.7803 81.0381 83.1885C81.2139 82.5908 81.4629 82.0781 81.7852 81.6504C82.1133 81.2227 82.5088 80.8945 82.9717 80.666C83.4346 80.4316 83.9561 80.3145 84.5361 80.3145C85.1338 80.3145 85.6553 80.4199 86.1006 80.6309C86.5518 80.8359 86.9326 81.1377 87.2432 81.5361C87.5596 81.9287 87.8086 82.4033 87.9902 82.96C88.1719 83.5166 88.2979 84.1465 88.3682 84.8496V85.6582C88.3037 86.3555 88.1777 86.9824 87.9902 87.5391C87.8086 88.0957 87.5596 88.5703 87.2432 88.9629C86.9326 89.3555 86.5518 89.6572 86.1006 89.8682C85.6494 90.0732 85.1221 90.1758 84.5186 90.1758C83.9502 90.1758 83.4346 90.0557 82.9717 89.8154C82.5146 89.5752 82.1221 89.2383 81.7939 88.8047C81.4658 88.3711 81.2139 87.8613 81.0381 87.2754C80.8682 86.6836 80.7832 86.042 80.7832 85.3506ZM82.4092 85.166V85.3506C82.4092 85.8252 82.4561 86.2705 82.5498 86.6865C82.6494 87.1025 82.7988 87.4688 82.998 87.7852C83.2031 88.1016 83.4639 88.3506 83.7803 88.5322C84.0967 88.708 84.4746 88.7959 84.9141 88.7959C85.4531 88.7959 85.8984 88.6816 86.25 88.4531C86.6016 88.2246 86.8799 87.9229 87.085 87.5479C87.2959 87.1729 87.46 86.7656 87.5771 86.3262V84.208C87.5127 83.8857 87.4131 83.5752 87.2783 83.2764C87.1494 82.9717 86.9795 82.7021 86.7686 82.4678C86.5635 82.2275 86.3086 82.0371 86.0039 81.8965C85.6992 81.7559 85.3418 81.6855 84.9316 81.6855C84.4863 81.6855 84.1025 81.7793 83.7803 81.9668C83.4639 82.1484 83.2031 82.4004 82.998 82.7227C82.7988 83.0391 82.6494 83.4082 82.5498 83.8301C82.4561 84.2461 82.4092 84.6914 82.4092 85.166ZM96.8848 88.374V83.4785C96.8848 83.1035 96.8086 82.7783 96.6562 82.5029C96.5098 82.2217 96.2871 82.0049 95.9883 81.8525C95.6895 81.7002 95.3203 81.624 94.8809 81.624C94.4707 81.624 94.1104 81.6943 93.7998 81.835C93.4951 81.9756 93.2549 82.1602 93.0791 82.3887C92.9092 82.6172 92.8242 82.8633 92.8242 83.127H91.1982C91.1982 82.7871 91.2861 82.4502 91.4619 82.1162C91.6377 81.7822 91.8896 81.4805 92.2178 81.2109C92.5518 80.9355 92.9502 80.7188 93.4131 80.5605C93.8818 80.3965 94.4033 80.3145 94.9775 80.3145C95.6689 80.3145 96.2783 80.4316 96.8057 80.666C97.3389 80.9004 97.7549 81.2549 98.0537 81.7295C98.3584 82.1982 98.5107 82.7871 98.5107 83.4961V87.9258C98.5107 88.2422 98.5371 88.5791 98.5898 88.9365C98.6484 89.2939 98.7334 89.6016 98.8447 89.8594V90H97.1484C97.0664 89.8125 97.002 89.5635 96.9551 89.2529C96.9082 88.9365 96.8848 88.6436 96.8848 88.374ZM97.166 84.2344L97.1836 85.377H95.54C95.0771 85.377 94.6641 85.415 94.3008 85.4912C93.9375 85.5615 93.6328 85.6699 93.3867 85.8164C93.1406 85.9629 92.9531 86.1475 92.8242 86.3701C92.6953 86.5869 92.6309 86.8418 92.6309 87.1348C92.6309 87.4336 92.6982 87.7061 92.833 87.9521C92.9678 88.1982 93.1699 88.3945 93.4395 88.541C93.7148 88.6816 94.0518 88.752 94.4502 88.752C94.9482 88.752 95.3877 88.6465 95.7686 88.4355C96.1494 88.2246 96.4512 87.9668 96.6738 87.6621C96.9023 87.3574 97.0254 87.0615 97.043 86.7744L97.7373 87.5566C97.6963 87.8027 97.585 88.0752 97.4033 88.374C97.2217 88.6729 96.9785 88.96 96.6738 89.2354C96.375 89.5049 96.0176 89.7305 95.6016 89.9121C95.1914 90.0879 94.7285 90.1758 94.2129 90.1758C93.5684 90.1758 93.0029 90.0498 92.5166 89.7979C92.0361 89.5459 91.6611 89.209 91.3916 88.7871C91.1279 88.3594 90.9961 87.8818 90.9961 87.3545C90.9961 86.8447 91.0957 86.3965 91.2949 86.0098C91.4941 85.6172 91.7812 85.292 92.1562 85.0342C92.5312 84.7705 92.9824 84.5713 93.5098 84.4365C94.0371 84.3018 94.626 84.2344 95.2764 84.2344H97.166ZM100.998 89.1387C100.998 88.8633 101.083 88.6318 101.253 88.4443C101.429 88.251 101.681 88.1543 102.009 88.1543C102.337 88.1543 102.586 88.251 102.756 88.4443C102.932 88.6318 103.02 88.8633 103.02 89.1387C103.02 89.4082 102.932 89.6367 102.756 89.8242C102.586 90.0117 102.337 90.1055 102.009 90.1055C101.681 90.1055 101.429 90.0117 101.253 89.8242C101.083 89.6367 100.998 89.4082 100.998 89.1387ZM101.007 81.3779C101.007 81.1025 101.092 80.8711 101.262 80.6836C101.438 80.4902 101.689 80.3936 102.018 80.3936C102.346 80.3936 102.595 80.4902 102.765 80.6836C102.94 80.8711 103.028 81.1025 103.028 81.3779C103.028 81.6475 102.94 81.876 102.765 82.0635C102.595 82.251 102.346 82.3447 102.018 82.3447C101.689 82.3447 101.438 82.251 101.262 82.0635C101.092 81.876 101.007 81.6475 101.007 81.3779ZM110.139 77.2031H114.375C115.336 77.2031 116.147 77.3496 116.81 77.6426C117.478 77.9355 117.984 78.3691 118.33 78.9434C118.682 79.5117 118.857 80.2119 118.857 81.0439C118.857 81.6299 118.737 82.166 118.497 82.6523C118.263 83.1328 117.923 83.543 117.478 83.8828C117.038 84.2168 116.511 84.4658 115.896 84.6299L115.421 84.8145H111.439L111.422 83.4346H114.428C115.037 83.4346 115.544 83.3291 115.948 83.1182C116.353 82.9014 116.657 82.6113 116.862 82.248C117.067 81.8848 117.17 81.4834 117.17 81.0439C117.17 80.5518 117.073 80.1211 116.88 79.752C116.687 79.3828 116.382 79.0986 115.966 78.8994C115.556 78.6943 115.025 78.5918 114.375 78.5918H111.835V90H110.139V77.2031ZM117.618 90L114.507 84.1992L116.273 84.1904L119.429 89.8945V90H117.618ZM125.669 75.1289V77.8096H124.351V75.1289H125.669ZM125.511 89.4814V91.8281H124.201V89.4814H125.511ZM127.269 86.7041C127.269 86.3525 127.189 86.0361 127.031 85.7549C126.873 85.4736 126.612 85.2158 126.249 84.9814C125.886 84.7471 125.399 84.5303 124.79 84.3311C124.052 84.1025 123.413 83.8242 122.874 83.4961C122.341 83.168 121.928 82.7607 121.635 82.2744C121.348 81.7881 121.204 81.1992 121.204 80.5078C121.204 79.7871 121.359 79.166 121.67 78.6445C121.98 78.123 122.42 77.7217 122.988 77.4404C123.557 77.1592 124.225 77.0186 124.992 77.0186C125.59 77.0186 126.123 77.1094 126.592 77.291C127.061 77.4668 127.456 77.7305 127.778 78.082C128.106 78.4336 128.355 78.8643 128.525 79.374C128.701 79.8838 128.789 80.4727 128.789 81.1406H127.172C127.172 80.748 127.125 80.3877 127.031 80.0596C126.938 79.7314 126.797 79.4473 126.609 79.207C126.422 78.9609 126.193 78.7734 125.924 78.6445C125.654 78.5098 125.344 78.4424 124.992 78.4424C124.5 78.4424 124.093 78.5273 123.771 78.6973C123.454 78.8672 123.22 79.1074 123.067 79.418C122.915 79.7227 122.839 80.0771 122.839 80.4814C122.839 80.8564 122.915 81.1846 123.067 81.4658C123.22 81.7471 123.478 82.002 123.841 82.2305C124.21 82.4531 124.717 82.6729 125.361 82.8896C126.117 83.1299 126.759 83.4141 127.286 83.7422C127.813 84.0645 128.215 84.4629 128.49 84.9375C128.766 85.4062 128.903 85.9893 128.903 86.6865C128.903 87.4424 128.733 88.0811 128.394 88.6025C128.054 89.1182 127.576 89.5107 126.961 89.7803C126.346 90.0498 125.625 90.1846 124.799 90.1846C124.301 90.1846 123.809 90.1172 123.322 89.9824C122.836 89.8477 122.396 89.6279 122.004 89.3232C121.611 89.0127 121.298 88.6055 121.063 88.1016C120.829 87.5918 120.712 86.9678 120.712 86.2295H122.347C122.347 86.7275 122.417 87.1406 122.558 87.4688C122.704 87.791 122.897 88.0488 123.138 88.2422C123.378 88.4297 123.642 88.5645 123.929 88.6465C124.222 88.7227 124.512 88.7607 124.799 88.7607C125.326 88.7607 125.771 88.6787 126.135 88.5146C126.504 88.3447 126.785 88.1045 126.979 87.7939C127.172 87.4834 127.269 87.1201 127.269 86.7041ZM136.277 77.1328V90H134.651V79.1631L131.373 80.3584V78.8906L136.022 77.1328H136.277ZM149.707 85.6934V87.0293H140.461V86.0713L146.191 77.2031H147.519L146.095 79.7695L142.307 85.6934H149.707ZM147.923 77.2031V90H146.297V77.2031H147.923ZM152.836 88.0664V89.376C152.836 89.9092 152.701 90.4717 152.432 91.0635C152.162 91.6611 151.784 92.1592 151.298 92.5576L150.375 91.916C150.562 91.6582 150.721 91.3945 150.85 91.125C150.979 90.8613 151.075 90.5859 151.14 90.2988C151.21 90.0176 151.245 89.7188 151.245 89.4023V88.0664H152.836ZM156.352 88.6377H156.519C157.456 88.6377 158.218 88.5059 158.804 88.2422C159.39 87.9785 159.841 87.624 160.157 87.1787C160.474 86.7334 160.69 86.2324 160.808 85.6758C160.925 85.1133 160.983 84.5361 160.983 83.9443V81.9844C160.983 81.4043 160.916 80.8887 160.781 80.4375C160.652 79.9863 160.471 79.6084 160.236 79.3037C160.008 78.999 159.747 78.7676 159.454 78.6094C159.161 78.4512 158.851 78.3721 158.522 78.3721C158.147 78.3721 157.811 78.4482 157.512 78.6006C157.219 78.7471 156.97 78.9551 156.765 79.2246C156.565 79.4941 156.413 79.8105 156.308 80.1738C156.202 80.5371 156.149 80.9326 156.149 81.3604C156.149 81.7412 156.196 82.1104 156.29 82.4678C156.384 82.8252 156.527 83.1475 156.721 83.4346C156.914 83.7217 157.154 83.9502 157.441 84.1201C157.734 84.2842 158.077 84.3662 158.47 84.3662C158.833 84.3662 159.173 84.2959 159.489 84.1553C159.812 84.0088 160.096 83.8125 160.342 83.5664C160.594 83.3145 160.793 83.0303 160.939 82.7139C161.092 82.3975 161.18 82.0664 161.203 81.7207H161.977C161.977 82.207 161.88 82.6875 161.687 83.1621C161.499 83.6309 161.235 84.0586 160.896 84.4453C160.556 84.832 160.157 85.1426 159.7 85.377C159.243 85.6055 158.745 85.7197 158.206 85.7197C157.573 85.7197 157.025 85.5967 156.562 85.3506C156.1 85.1045 155.719 84.7764 155.42 84.3662C155.127 83.9561 154.907 83.499 154.761 82.9951C154.62 82.4854 154.55 81.9697 154.55 81.4482C154.55 80.8389 154.635 80.2676 154.805 79.7344C154.975 79.2012 155.227 78.7324 155.561 78.3281C155.895 77.918 156.308 77.5986 156.8 77.3701C157.298 77.1416 157.872 77.0273 158.522 77.0273C159.255 77.0273 159.879 77.1738 160.395 77.4668C160.91 77.7598 161.329 78.1523 161.651 78.6445C161.979 79.1367 162.22 79.6904 162.372 80.3057C162.524 80.9209 162.601 81.5537 162.601 82.2041V82.793C162.601 83.4551 162.557 84.1289 162.469 84.8145C162.387 85.4941 162.226 86.1445 161.985 86.7656C161.751 87.3867 161.408 87.9434 160.957 88.4355C160.506 88.9219 159.917 89.3086 159.19 89.5957C158.47 89.877 157.579 90.0176 156.519 90.0176H156.352V88.6377ZM172.893 82.582V84.5332C172.893 85.582 172.799 86.4668 172.611 87.1875C172.424 87.9082 172.154 88.4883 171.803 88.9277C171.451 89.3672 171.026 89.6865 170.528 89.8857C170.036 90.0791 169.479 90.1758 168.858 90.1758C168.366 90.1758 167.912 90.1143 167.496 89.9912C167.08 89.8682 166.705 89.6719 166.371 89.4023C166.043 89.127 165.762 88.7695 165.527 88.3301C165.293 87.8906 165.114 87.3574 164.991 86.7305C164.868 86.1035 164.807 85.3711 164.807 84.5332V82.582C164.807 81.5332 164.9 80.6543 165.088 79.9453C165.281 79.2363 165.554 78.668 165.905 78.2402C166.257 77.8066 166.679 77.4961 167.171 77.3086C167.669 77.1211 168.226 77.0273 168.841 77.0273C169.339 77.0273 169.796 77.0889 170.212 77.2119C170.634 77.3291 171.009 77.5195 171.337 77.7832C171.665 78.041 171.943 78.3867 172.172 78.8203C172.406 79.248 172.585 79.7725 172.708 80.3936C172.831 81.0146 172.893 81.7441 172.893 82.582ZM171.258 84.7969V82.3096C171.258 81.7354 171.223 81.2314 171.152 80.7979C171.088 80.3584 170.991 79.9834 170.862 79.6729C170.733 79.3623 170.569 79.1104 170.37 78.917C170.177 78.7236 169.951 78.583 169.693 78.4951C169.441 78.4014 169.157 78.3545 168.841 78.3545C168.454 78.3545 168.111 78.4277 167.812 78.5742C167.514 78.7148 167.262 78.9404 167.057 79.251C166.857 79.5615 166.705 79.9688 166.6 80.4727C166.494 80.9766 166.441 81.5889 166.441 82.3096V84.7969C166.441 85.3711 166.474 85.8779 166.538 86.3174C166.608 86.7568 166.711 87.1377 166.846 87.46C166.98 87.7764 167.145 88.0371 167.338 88.2422C167.531 88.4473 167.754 88.5996 168.006 88.6992C168.264 88.793 168.548 88.8398 168.858 88.8398C169.257 88.8398 169.605 88.7637 169.904 88.6113C170.203 88.459 170.452 88.2217 170.651 87.8994C170.856 87.5713 171.009 87.1523 171.108 86.6426C171.208 86.127 171.258 85.5117 171.258 84.7969Z" fill="#403D3D"/>
<path d="M11.499 108.5H13.1338V120.154L12.9932 122H11.499V108.5ZM19.5586 117.166V117.351C19.5586 118.042 19.4766 118.684 19.3125 119.275C19.1484 119.861 18.9082 120.371 18.5918 120.805C18.2754 121.238 17.8887 121.575 17.4316 121.815C16.9746 122.056 16.4502 122.176 15.8584 122.176C15.2549 122.176 14.7246 122.073 14.2676 121.868C13.8164 121.657 13.4355 121.355 13.125 120.963C12.8145 120.57 12.5654 120.096 12.3779 119.539C12.1963 118.982 12.0703 118.355 12 117.658V116.85C12.0703 116.146 12.1963 115.517 12.3779 114.96C12.5654 114.403 12.8145 113.929 13.125 113.536C13.4355 113.138 13.8164 112.836 14.2676 112.631C14.7188 112.42 15.2432 112.314 15.8408 112.314C16.4385 112.314 16.9688 112.432 17.4316 112.666C17.8945 112.895 18.2812 113.223 18.5918 113.65C18.9082 114.078 19.1484 114.591 19.3125 115.188C19.4766 115.78 19.5586 116.439 19.5586 117.166ZM17.9238 117.351V117.166C17.9238 116.691 17.8799 116.246 17.792 115.83C17.7041 115.408 17.5635 115.039 17.3701 114.723C17.1768 114.4 16.9219 114.148 16.6055 113.967C16.2891 113.779 15.8994 113.686 15.4365 113.686C15.0264 113.686 14.6689 113.756 14.3643 113.896C14.0654 114.037 13.8105 114.228 13.5996 114.468C13.3887 114.702 13.2158 114.972 13.0811 115.276C12.9521 115.575 12.8555 115.886 12.791 116.208V118.326C12.8848 118.736 13.0371 119.132 13.248 119.513C13.4648 119.888 13.752 120.195 14.1094 120.436C14.4727 120.676 14.9209 120.796 15.4541 120.796C15.8936 120.796 16.2686 120.708 16.5791 120.532C16.8955 120.351 17.1504 120.102 17.3438 119.785C17.543 119.469 17.6895 119.103 17.7832 118.687C17.877 118.271 17.9238 117.825 17.9238 117.351ZM25.5615 122.176C24.8994 122.176 24.2988 122.064 23.7598 121.842C23.2266 121.613 22.7666 121.294 22.3799 120.884C21.999 120.474 21.7061 119.987 21.501 119.425C21.2959 118.862 21.1934 118.247 21.1934 117.579V117.21C21.1934 116.437 21.3076 115.748 21.5361 115.145C21.7646 114.535 22.0752 114.02 22.4678 113.598C22.8604 113.176 23.3057 112.856 23.8037 112.64C24.3018 112.423 24.8174 112.314 25.3506 112.314C26.0303 112.314 26.6162 112.432 27.1084 112.666C27.6064 112.9 28.0137 113.229 28.3301 113.65C28.6465 114.066 28.8809 114.559 29.0332 115.127C29.1855 115.689 29.2617 116.305 29.2617 116.973V117.702H22.1602V116.375H27.6357V116.252C27.6123 115.83 27.5244 115.42 27.3721 115.021C27.2256 114.623 26.9912 114.295 26.6689 114.037C26.3467 113.779 25.9072 113.65 25.3506 113.65C24.9814 113.65 24.6416 113.729 24.3311 113.888C24.0205 114.04 23.7539 114.269 23.5312 114.573C23.3086 114.878 23.1357 115.25 23.0127 115.689C22.8896 116.129 22.8281 116.636 22.8281 117.21V117.579C22.8281 118.03 22.8896 118.455 23.0127 118.854C23.1416 119.246 23.3262 119.592 23.5664 119.891C23.8125 120.189 24.1084 120.424 24.4541 120.594C24.8057 120.764 25.2041 120.849 25.6494 120.849C26.2236 120.849 26.71 120.731 27.1084 120.497C27.5068 120.263 27.8555 119.949 28.1543 119.557L29.1387 120.339C28.9336 120.649 28.6729 120.945 28.3564 121.227C28.04 121.508 27.6504 121.736 27.1875 121.912C26.7305 122.088 26.1885 122.176 25.5615 122.176ZM32.7861 114.521V122H31.1602V112.49H32.6982L32.7861 114.521ZM32.3994 116.885L31.7227 116.858C31.7285 116.208 31.8252 115.607 32.0127 115.057C32.2002 114.5 32.4639 114.017 32.8037 113.606C33.1436 113.196 33.5479 112.88 34.0166 112.657C34.4912 112.429 35.0156 112.314 35.5898 112.314C36.0586 112.314 36.4805 112.379 36.8555 112.508C37.2305 112.631 37.5498 112.83 37.8135 113.105C38.083 113.381 38.2881 113.738 38.4287 114.178C38.5693 114.611 38.6396 115.142 38.6396 115.769V122H37.0049V115.751C37.0049 115.253 36.9316 114.854 36.7852 114.556C36.6387 114.251 36.4248 114.031 36.1436 113.896C35.8623 113.756 35.5166 113.686 35.1064 113.686C34.7021 113.686 34.333 113.771 33.999 113.94C33.6709 114.11 33.3867 114.345 33.1465 114.644C32.9121 114.942 32.7275 115.285 32.5928 115.672C32.4639 116.053 32.3994 116.457 32.3994 116.885ZM45.0557 122.176C44.3936 122.176 43.793 122.064 43.2539 121.842C42.7207 121.613 42.2607 121.294 41.874 120.884C41.4932 120.474 41.2002 119.987 40.9951 119.425C40.79 118.862 40.6875 118.247 40.6875 117.579V117.21C40.6875 116.437 40.8018 115.748 41.0303 115.145C41.2588 114.535 41.5693 114.02 41.9619 113.598C42.3545 113.176 42.7998 112.856 43.2979 112.64C43.7959 112.423 44.3115 112.314 44.8447 112.314C45.5244 112.314 46.1104 112.432 46.6025 112.666C47.1006 112.9 47.5078 113.229 47.8242 113.65C48.1406 114.066 48.375 114.559 48.5273 115.127C48.6797 115.689 48.7559 116.305 48.7559 116.973V117.702H41.6543V116.375H47.1299V116.252C47.1064 115.83 47.0186 115.42 46.8662 115.021C46.7197 114.623 46.4854 114.295 46.1631 114.037C45.8408 113.779 45.4014 113.65 44.8447 113.65C44.4756 113.65 44.1357 113.729 43.8252 113.888C43.5146 114.04 43.248 114.269 43.0254 114.573C42.8027 114.878 42.6299 115.25 42.5068 115.689C42.3838 116.129 42.3223 116.636 42.3223 117.21V117.579C42.3223 118.03 42.3838 118.455 42.5068 118.854C42.6357 119.246 42.8203 119.592 43.0605 119.891C43.3066 120.189 43.6025 120.424 43.9482 120.594C44.2998 120.764 44.6982 120.849 45.1436 120.849C45.7178 120.849 46.2041 120.731 46.6025 120.497C47.001 120.263 47.3496 119.949 47.6484 119.557L48.6328 120.339C48.4277 120.649 48.167 120.945 47.8506 121.227C47.5342 121.508 47.1445 121.736 46.6816 121.912C46.2246 122.088 45.6826 122.176 45.0557 122.176ZM53.0801 122H51.4541V111.488C51.4541 110.803 51.5771 110.226 51.8232 109.757C52.0752 109.282 52.4355 108.925 52.9043 108.685C53.373 108.438 53.9297 108.315 54.5742 108.315C54.7617 108.315 54.9492 108.327 55.1367 108.351C55.3301 108.374 55.5176 108.409 55.6992 108.456L55.6113 109.783C55.4883 109.754 55.3477 109.733 55.1895 109.722C55.0371 109.71 54.8848 109.704 54.7324 109.704C54.3867 109.704 54.0879 109.774 53.8359 109.915C53.5898 110.05 53.4023 110.249 53.2734 110.513C53.1445 110.776 53.0801 111.102 53.0801 111.488V122ZM55.1016 112.49V113.738H49.9512V112.49H55.1016ZM58.6699 112.49V122H57.0439V112.49H58.6699ZM56.9912 111.102L58.6963 108.518H60.6562L58.3008 111.102H56.9912ZM65.1826 120.84C65.5693 120.84 65.9268 120.761 66.2549 120.603C66.583 120.444 66.8525 120.228 67.0635 119.952C67.2744 119.671 67.3945 119.352 67.4238 118.994H68.9707C68.9414 119.557 68.751 120.081 68.3994 120.567C68.0537 121.048 67.5996 121.438 67.0371 121.736C66.4746 122.029 65.8564 122.176 65.1826 122.176C64.4678 122.176 63.8438 122.05 63.3105 121.798C62.7832 121.546 62.3438 121.2 61.9922 120.761C61.6465 120.321 61.3857 119.817 61.21 119.249C61.04 118.675 60.9551 118.068 60.9551 117.43V117.061C60.9551 116.422 61.04 115.818 61.21 115.25C61.3857 114.676 61.6465 114.169 61.9922 113.729C62.3438 113.29 62.7832 112.944 63.3105 112.692C63.8438 112.44 64.4678 112.314 65.1826 112.314C65.9268 112.314 66.5771 112.467 67.1338 112.771C67.6904 113.07 68.127 113.48 68.4434 114.002C68.7656 114.518 68.9414 115.104 68.9707 115.76H67.4238C67.3945 115.367 67.2832 115.013 67.0898 114.696C66.9023 114.38 66.6445 114.128 66.3164 113.94C65.9941 113.747 65.6162 113.65 65.1826 113.65C64.6846 113.65 64.2656 113.75 63.9258 113.949C63.5918 114.143 63.3252 114.406 63.126 114.74C62.9326 115.068 62.792 115.435 62.7041 115.839C62.6221 116.237 62.5811 116.645 62.5811 117.061V117.43C62.5811 117.846 62.6221 118.256 62.7041 118.66C62.7861 119.064 62.9238 119.431 63.1172 119.759C63.3164 120.087 63.583 120.351 63.917 120.55C64.2568 120.743 64.6787 120.84 65.1826 120.84ZM72.5654 112.49V122H70.9307V112.49H72.5654ZM70.8076 109.968C70.8076 109.704 70.8867 109.481 71.0449 109.3C71.209 109.118 71.4492 109.027 71.7656 109.027C72.0762 109.027 72.3135 109.118 72.4775 109.3C72.6475 109.481 72.7324 109.704 72.7324 109.968C72.7324 110.22 72.6475 110.437 72.4775 110.618C72.3135 110.794 72.0762 110.882 71.7656 110.882C71.4492 110.882 71.209 110.794 71.0449 110.618C70.8867 110.437 70.8076 110.22 70.8076 109.968ZM74.7451 117.351V117.148C74.7451 116.463 74.8447 115.827 75.0439 115.241C75.2432 114.649 75.5303 114.137 75.9053 113.703C76.2803 113.264 76.7344 112.924 77.2676 112.684C77.8008 112.438 78.3984 112.314 79.0605 112.314C79.7285 112.314 80.3291 112.438 80.8623 112.684C81.4014 112.924 81.8584 113.264 82.2334 113.703C82.6143 114.137 82.9043 114.649 83.1035 115.241C83.3027 115.827 83.4023 116.463 83.4023 117.148V117.351C83.4023 118.036 83.3027 118.672 83.1035 119.258C82.9043 119.844 82.6143 120.356 82.2334 120.796C81.8584 121.229 81.4043 121.569 80.8711 121.815C80.3438 122.056 79.7461 122.176 79.0781 122.176C78.4102 122.176 77.8096 122.056 77.2764 121.815C76.7432 121.569 76.2861 121.229 75.9053 120.796C75.5303 120.356 75.2432 119.844 75.0439 119.258C74.8447 118.672 74.7451 118.036 74.7451 117.351ZM76.3711 117.148V117.351C76.3711 117.825 76.4268 118.273 76.5381 118.695C76.6494 119.111 76.8164 119.48 77.0391 119.803C77.2676 120.125 77.5518 120.38 77.8916 120.567C78.2314 120.749 78.627 120.84 79.0781 120.84C79.5234 120.84 79.9131 120.749 80.2471 120.567C80.5869 120.38 80.8682 120.125 81.0908 119.803C81.3135 119.48 81.4805 119.111 81.5918 118.695C81.709 118.273 81.7676 117.825 81.7676 117.351V117.148C81.7676 116.68 81.709 116.237 81.5918 115.821C81.4805 115.399 81.3105 115.027 81.082 114.705C80.8594 114.377 80.5781 114.119 80.2383 113.932C79.9043 113.744 79.5117 113.65 79.0605 113.65C78.6152 113.65 78.2227 113.744 77.8828 113.932C77.5488 114.119 77.2676 114.377 77.0391 114.705C76.8164 115.027 76.6494 115.399 76.5381 115.821C76.4268 116.237 76.3711 116.68 76.3711 117.148ZM90.9785 119.478C90.9785 119.243 90.9258 119.026 90.8203 118.827C90.7207 118.622 90.5127 118.438 90.1963 118.273C89.8857 118.104 89.417 117.957 88.79 117.834C88.2627 117.723 87.7852 117.591 87.3574 117.438C86.9355 117.286 86.5752 117.102 86.2764 116.885C85.9834 116.668 85.7578 116.413 85.5996 116.12C85.4414 115.827 85.3623 115.484 85.3623 115.092C85.3623 114.717 85.4443 114.362 85.6084 114.028C85.7783 113.694 86.0156 113.398 86.3203 113.141C86.6309 112.883 87.0029 112.681 87.4365 112.534C87.8701 112.388 88.3535 112.314 88.8867 112.314C89.6484 112.314 90.2988 112.449 90.8379 112.719C91.377 112.988 91.79 113.349 92.0771 113.8C92.3643 114.245 92.5078 114.74 92.5078 115.285H90.8818C90.8818 115.021 90.8027 114.767 90.6445 114.521C90.4922 114.269 90.2666 114.061 89.9678 113.896C89.6748 113.732 89.3145 113.65 88.8867 113.65C88.4355 113.65 88.0693 113.721 87.7881 113.861C87.5127 113.996 87.3105 114.169 87.1816 114.38C87.0586 114.591 86.9971 114.813 86.9971 115.048C86.9971 115.224 87.0264 115.382 87.085 115.522C87.1494 115.657 87.2607 115.783 87.4189 115.9C87.5771 116.012 87.7998 116.117 88.0869 116.217C88.374 116.316 88.7402 116.416 89.1855 116.516C89.9648 116.691 90.6064 116.902 91.1104 117.148C91.6143 117.395 91.9893 117.696 92.2354 118.054C92.4814 118.411 92.6045 118.845 92.6045 119.354C92.6045 119.771 92.5166 120.151 92.3408 120.497C92.1709 120.843 91.9219 121.142 91.5938 121.394C91.2715 121.64 90.8848 121.833 90.4336 121.974C89.9883 122.108 89.4873 122.176 88.9307 122.176C88.0928 122.176 87.3838 122.026 86.8037 121.728C86.2236 121.429 85.7842 121.042 85.4854 120.567C85.1865 120.093 85.0371 119.592 85.0371 119.064H86.6719C86.6953 119.51 86.8242 119.864 87.0586 120.128C87.293 120.386 87.5801 120.57 87.9199 120.682C88.2598 120.787 88.5967 120.84 88.9307 120.84C89.376 120.84 89.748 120.781 90.0469 120.664C90.3516 120.547 90.583 120.386 90.7412 120.181C90.8994 119.976 90.9785 119.741 90.9785 119.478ZM100.972 112.49V122H99.3369V112.49H100.972ZM99.2139 109.968C99.2139 109.704 99.293 109.481 99.4512 109.3C99.6152 109.118 99.8555 109.027 100.172 109.027C100.482 109.027 100.72 109.118 100.884 109.3C101.054 109.481 101.139 109.704 101.139 109.968C101.139 110.22 101.054 110.437 100.884 110.618C100.72 110.794 100.482 110.882 100.172 110.882C99.8555 110.882 99.6152 110.794 99.4512 110.618C99.293 110.437 99.2139 110.22 99.2139 109.968ZM105.208 114.521V122H103.582V112.49H105.12L105.208 114.521ZM104.821 116.885L104.145 116.858C104.15 116.208 104.247 115.607 104.435 115.057C104.622 114.5 104.886 114.017 105.226 113.606C105.565 113.196 105.97 112.88 106.438 112.657C106.913 112.429 107.438 112.314 108.012 112.314C108.48 112.314 108.902 112.379 109.277 112.508C109.652 112.631 109.972 112.83 110.235 113.105C110.505 113.381 110.71 113.738 110.851 114.178C110.991 114.611 111.062 115.142 111.062 115.769V122H109.427V115.751C109.427 115.253 109.354 114.854 109.207 114.556C109.061 114.251 108.847 114.031 108.565 113.896C108.284 113.756 107.938 113.686 107.528 113.686C107.124 113.686 106.755 113.771 106.421 113.94C106.093 114.11 105.809 114.345 105.568 114.644C105.334 114.942 105.149 115.285 105.015 115.672C104.886 116.053 104.821 116.457 104.821 116.885ZM119.525 120.154V108.5H121.16V122H119.666L119.525 120.154ZM113.127 117.351V117.166C113.127 116.439 113.215 115.78 113.391 115.188C113.572 114.591 113.827 114.078 114.155 113.65C114.489 113.223 114.885 112.895 115.342 112.666C115.805 112.432 116.32 112.314 116.889 112.314C117.486 112.314 118.008 112.42 118.453 112.631C118.904 112.836 119.285 113.138 119.596 113.536C119.912 113.929 120.161 114.403 120.343 114.96C120.524 115.517 120.65 116.146 120.721 116.85V117.658C120.656 118.355 120.53 118.982 120.343 119.539C120.161 120.096 119.912 120.57 119.596 120.963C119.285 121.355 118.904 121.657 118.453 121.868C118.002 122.073 117.475 122.176 116.871 122.176C116.314 122.176 115.805 122.056 115.342 121.815C114.885 121.575 114.489 121.238 114.155 120.805C113.827 120.371 113.572 119.861 113.391 119.275C113.215 118.684 113.127 118.042 113.127 117.351ZM114.762 117.166V117.351C114.762 117.825 114.809 118.271 114.902 118.687C115.002 119.103 115.154 119.469 115.359 119.785C115.564 120.102 115.825 120.351 116.142 120.532C116.458 120.708 116.836 120.796 117.275 120.796C117.814 120.796 118.257 120.682 118.603 120.453C118.954 120.225 119.235 119.923 119.446 119.548C119.657 119.173 119.821 118.766 119.938 118.326V116.208C119.868 115.886 119.766 115.575 119.631 115.276C119.502 114.972 119.332 114.702 119.121 114.468C118.916 114.228 118.661 114.037 118.356 113.896C118.058 113.756 117.703 113.686 117.293 113.686C116.848 113.686 116.464 113.779 116.142 113.967C115.825 114.148 115.564 114.4 115.359 114.723C115.154 115.039 115.002 115.408 114.902 115.83C114.809 116.246 114.762 116.691 114.762 117.166ZM125.458 112.49V122H123.823V112.49H125.458ZM123.7 109.968C123.7 109.704 123.779 109.481 123.938 109.3C124.102 109.118 124.342 109.027 124.658 109.027C124.969 109.027 125.206 109.118 125.37 109.3C125.54 109.481 125.625 109.704 125.625 109.968C125.625 110.22 125.54 110.437 125.37 110.618C125.206 110.794 124.969 110.882 124.658 110.882C124.342 110.882 124.102 110.794 123.938 110.618C123.779 110.437 123.7 110.22 123.7 109.968ZM133.605 119.478C133.605 119.243 133.553 119.026 133.447 118.827C133.348 118.622 133.14 118.438 132.823 118.273C132.513 118.104 132.044 117.957 131.417 117.834C130.89 117.723 130.412 117.591 129.984 117.438C129.562 117.286 129.202 117.102 128.903 116.885C128.61 116.668 128.385 116.413 128.227 116.12C128.068 115.827 127.989 115.484 127.989 115.092C127.989 114.717 128.071 114.362 128.235 114.028C128.405 113.694 128.643 113.398 128.947 113.141C129.258 112.883 129.63 112.681 130.063 112.534C130.497 112.388 130.98 112.314 131.514 112.314C132.275 112.314 132.926 112.449 133.465 112.719C134.004 112.988 134.417 113.349 134.704 113.8C134.991 114.245 135.135 114.74 135.135 115.285H133.509C133.509 115.021 133.43 114.767 133.271 114.521C133.119 114.269 132.894 114.061 132.595 113.896C132.302 113.732 131.941 113.65 131.514 113.65C131.062 113.65 130.696 113.721 130.415 113.861C130.14 113.996 129.938 114.169 129.809 114.38C129.686 114.591 129.624 114.813 129.624 115.048C129.624 115.224 129.653 115.382 129.712 115.522C129.776 115.657 129.888 115.783 130.046 115.9C130.204 116.012 130.427 116.117 130.714 116.217C131.001 116.316 131.367 116.416 131.812 116.516C132.592 116.691 133.233 116.902 133.737 117.148C134.241 117.395 134.616 117.696 134.862 118.054C135.108 118.411 135.231 118.845 135.231 119.354C135.231 119.771 135.144 120.151 134.968 120.497C134.798 120.843 134.549 121.142 134.221 121.394C133.898 121.64 133.512 121.833 133.061 121.974C132.615 122.108 132.114 122.176 131.558 122.176C130.72 122.176 130.011 122.026 129.431 121.728C128.851 121.429 128.411 121.042 128.112 120.567C127.813 120.093 127.664 119.592 127.664 119.064H129.299C129.322 119.51 129.451 119.864 129.686 120.128C129.92 120.386 130.207 120.57 130.547 120.682C130.887 120.787 131.224 120.84 131.558 120.84C132.003 120.84 132.375 120.781 132.674 120.664C132.979 120.547 133.21 120.386 133.368 120.181C133.526 119.976 133.605 119.741 133.605 119.478ZM138.993 114.318V125.656H137.358V112.49H138.853L138.993 114.318ZM145.4 117.166V117.351C145.4 118.042 145.318 118.684 145.154 119.275C144.99 119.861 144.75 120.371 144.434 120.805C144.123 121.238 143.739 121.575 143.282 121.815C142.825 122.056 142.301 122.176 141.709 122.176C141.105 122.176 140.572 122.076 140.109 121.877C139.646 121.678 139.254 121.388 138.932 121.007C138.609 120.626 138.352 120.169 138.158 119.636C137.971 119.103 137.842 118.502 137.771 117.834V116.85C137.842 116.146 137.974 115.517 138.167 114.96C138.36 114.403 138.615 113.929 138.932 113.536C139.254 113.138 139.644 112.836 140.101 112.631C140.558 112.42 141.085 112.314 141.683 112.314C142.28 112.314 142.811 112.432 143.273 112.666C143.736 112.895 144.126 113.223 144.442 113.65C144.759 114.078 144.996 114.591 145.154 115.188C145.318 115.78 145.4 116.439 145.4 117.166ZM143.766 117.351V117.166C143.766 116.691 143.716 116.246 143.616 115.83C143.517 115.408 143.361 115.039 143.15 114.723C142.945 114.4 142.682 114.148 142.359 113.967C142.037 113.779 141.653 113.686 141.208 113.686C140.798 113.686 140.44 113.756 140.136 113.896C139.837 114.037 139.582 114.228 139.371 114.468C139.16 114.702 138.987 114.972 138.853 115.276C138.724 115.575 138.627 115.886 138.562 116.208V118.484C138.68 118.895 138.844 119.281 139.055 119.645C139.266 120.002 139.547 120.292 139.898 120.515C140.25 120.731 140.692 120.84 141.226 120.84C141.665 120.84 142.043 120.749 142.359 120.567C142.682 120.38 142.945 120.125 143.15 119.803C143.361 119.48 143.517 119.111 143.616 118.695C143.716 118.273 143.766 117.825 143.766 117.351ZM147.044 117.351V117.148C147.044 116.463 147.144 115.827 147.343 115.241C147.542 114.649 147.829 114.137 148.204 113.703C148.579 113.264 149.033 112.924 149.566 112.684C150.1 112.438 150.697 112.314 151.359 112.314C152.027 112.314 152.628 112.438 153.161 112.684C153.7 112.924 154.157 113.264 154.532 113.703C154.913 114.137 155.203 114.649 155.402 115.241C155.602 115.827 155.701 116.463 155.701 117.148V117.351C155.701 118.036 155.602 118.672 155.402 119.258C155.203 119.844 154.913 120.356 154.532 120.796C154.157 121.229 153.703 121.569 153.17 121.815C152.643 122.056 152.045 122.176 151.377 122.176C150.709 122.176 150.108 122.056 149.575 121.815C149.042 121.569 148.585 121.229 148.204 120.796C147.829 120.356 147.542 119.844 147.343 119.258C147.144 118.672 147.044 118.036 147.044 117.351ZM148.67 117.148V117.351C148.67 117.825 148.726 118.273 148.837 118.695C148.948 119.111 149.115 119.48 149.338 119.803C149.566 120.125 149.851 120.38 150.19 120.567C150.53 120.749 150.926 120.84 151.377 120.84C151.822 120.84 152.212 120.749 152.546 120.567C152.886 120.38 153.167 120.125 153.39 119.803C153.612 119.48 153.779 119.111 153.891 118.695C154.008 118.273 154.066 117.825 154.066 117.351V117.148C154.066 116.68 154.008 116.237 153.891 115.821C153.779 115.399 153.609 115.027 153.381 114.705C153.158 114.377 152.877 114.119 152.537 113.932C152.203 113.744 151.811 113.65 151.359 113.65C150.914 113.65 150.521 113.744 150.182 113.932C149.848 114.119 149.566 114.377 149.338 114.705C149.115 115.027 148.948 115.399 148.837 115.821C148.726 116.237 148.67 116.68 148.67 117.148ZM159.366 114.521V122H157.74V112.49H159.278L159.366 114.521ZM158.979 116.885L158.303 116.858C158.309 116.208 158.405 115.607 158.593 115.057C158.78 114.5 159.044 114.017 159.384 113.606C159.724 113.196 160.128 112.88 160.597 112.657C161.071 112.429 161.596 112.314 162.17 112.314C162.639 112.314 163.061 112.379 163.436 112.508C163.811 112.631 164.13 112.83 164.394 113.105C164.663 113.381 164.868 113.738 165.009 114.178C165.149 114.611 165.22 115.142 165.22 115.769V122H163.585V115.751C163.585 115.253 163.512 114.854 163.365 114.556C163.219 114.251 163.005 114.031 162.724 113.896C162.442 113.756 162.097 113.686 161.687 113.686C161.282 113.686 160.913 113.771 160.579 113.94C160.251 114.11 159.967 114.345 159.727 114.644C159.492 114.942 159.308 115.285 159.173 115.672C159.044 116.053 158.979 116.457 158.979 116.885ZM169.447 112.49V122H167.821V112.49H169.447ZM167.769 111.102L169.474 108.518H171.434L169.078 111.102H167.769ZM175.046 120.532L177.647 112.49H179.309L175.89 122H174.8L175.046 120.532ZM172.875 112.49L175.556 120.576L175.74 122H174.65L171.205 112.49H172.875ZM184.696 122.176C184.034 122.176 183.434 122.064 182.895 121.842C182.361 121.613 181.901 121.294 181.515 120.884C181.134 120.474 180.841 119.987 180.636 119.425C180.431 118.862 180.328 118.247 180.328 117.579V117.21C180.328 116.437 180.442 115.748 180.671 115.145C180.899 114.535 181.21 114.02 181.603 113.598C181.995 113.176 182.44 112.856 182.938 112.64C183.437 112.423 183.952 112.314 184.485 112.314C185.165 112.314 185.751 112.432 186.243 112.666C186.741 112.9 187.148 113.229 187.465 113.65C187.781 114.066 188.016 114.559 188.168 115.127C188.32 115.689 188.396 116.305 188.396 116.973V117.702H181.295V116.375H186.771V116.252C186.747 115.83 186.659 115.42 186.507 115.021C186.36 114.623 186.126 114.295 185.804 114.037C185.481 113.779 185.042 113.65 184.485 113.65C184.116 113.65 183.776 113.729 183.466 113.888C183.155 114.04 182.889 114.269 182.666 114.573C182.443 114.878 182.271 115.25 182.147 115.689C182.024 116.129 181.963 116.636 181.963 117.21V117.579C181.963 118.03 182.024 118.455 182.147 118.854C182.276 119.246 182.461 119.592 182.701 119.891C182.947 120.189 183.243 120.424 183.589 120.594C183.94 120.764 184.339 120.849 184.784 120.849C185.358 120.849 185.845 120.731 186.243 120.497C186.642 120.263 186.99 119.949 187.289 119.557L188.273 120.339C188.068 120.649 187.808 120.945 187.491 121.227C187.175 121.508 186.785 121.736 186.322 121.912C185.865 122.088 185.323 122.176 184.696 122.176ZM192.062 112.49V122H190.427V112.49H192.062ZM190.304 109.968C190.304 109.704 190.383 109.481 190.541 109.3C190.705 109.118 190.945 109.027 191.262 109.027C191.572 109.027 191.81 109.118 191.974 109.3C192.144 109.481 192.229 109.704 192.229 109.968C192.229 110.22 192.144 110.437 191.974 110.618C191.81 110.794 191.572 110.882 191.262 110.882C190.945 110.882 190.705 110.794 190.541 110.618C190.383 110.437 190.304 110.22 190.304 109.968ZM200.209 119.478C200.209 119.243 200.156 119.026 200.051 118.827C199.951 118.622 199.743 118.438 199.427 118.273C199.116 118.104 198.647 117.957 198.021 117.834C197.493 117.723 197.016 117.591 196.588 117.438C196.166 117.286 195.806 117.102 195.507 116.885C195.214 116.668 194.988 116.413 194.83 116.12C194.672 115.827 194.593 115.484 194.593 115.092C194.593 114.717 194.675 114.362 194.839 114.028C195.009 113.694 195.246 113.398 195.551 113.141C195.861 112.883 196.233 112.681 196.667 112.534C197.101 112.388 197.584 112.314 198.117 112.314C198.879 112.314 199.529 112.449 200.068 112.719C200.607 112.988 201.021 113.349 201.308 113.8C201.595 114.245 201.738 114.74 201.738 115.285H200.112C200.112 115.021 200.033 114.767 199.875 114.521C199.723 114.269 199.497 114.061 199.198 113.896C198.905 113.732 198.545 113.65 198.117 113.65C197.666 113.65 197.3 113.721 197.019 113.861C196.743 113.996 196.541 114.169 196.412 114.38C196.289 114.591 196.228 114.813 196.228 115.048C196.228 115.224 196.257 115.382 196.315 115.522C196.38 115.657 196.491 115.783 196.649 115.9C196.808 116.012 197.03 116.117 197.317 116.217C197.604 116.316 197.971 116.416 198.416 116.516C199.195 116.691 199.837 116.902 200.341 117.148C200.845 117.395 201.22 117.696 201.466 118.054C201.712 118.411 201.835 118.845 201.835 119.354C201.835 119.771 201.747 120.151 201.571 120.497C201.401 120.843 201.152 121.142 200.824 121.394C200.502 121.64 200.115 121.833 199.664 121.974C199.219 122.108 198.718 122.176 198.161 122.176C197.323 122.176 196.614 122.026 196.034 121.728C195.454 121.429 195.015 121.042 194.716 120.567C194.417 120.093 194.268 119.592 194.268 119.064H195.902C195.926 119.51 196.055 119.864 196.289 120.128C196.523 120.386 196.811 120.57 197.15 120.682C197.49 120.787 197.827 120.84 198.161 120.84C198.606 120.84 198.979 120.781 199.277 120.664C199.582 120.547 199.813 120.386 199.972 120.181C200.13 119.976 200.209 119.741 200.209 119.478Z" fill="#403D3D"/>
</svg>
